<svg width="111" height="30" viewBox="0 0 111 30" fill="none" xmlns="http://www.w3.org/2000/svg">
<g opacity="0.5">
<path d="M8.928 8.74724L13.608 6L18.288 8.74724L16.532 9.71304L13.608 8.00464L10.608 9.71304L8.928 8.74724ZM18.216 12.16L16.532 11.1942L13.608 12.9026L10.608 11.1942L8.924 12.16V14.1646L11.852 15.873V19.3629L13.536 20.4017L15.22 19.3629V15.9501L18.148 14.2417V12.1641H18.216V12.16ZM18.216 17.6545V15.6498L16.532 16.6887V18.6162L18.216 17.6545ZM19.46 18.32L16.536 20.0284V22.033L21.22 19.2858V13.7954L19.464 14.9072L19.46 18.32ZM17.776 10.4556L19.46 11.4945V13.4991L21.144 12.4603V10.4556L19.46 9.41681L17.776 10.4556ZM11.852 20.771V22.7756L13.536 23.8145L15.22 22.7756V20.771L13.536 21.8098L11.852 20.771ZM8.924 17.6545L10.608 18.6203V16.6156L8.924 15.5768V17.6545ZM11.852 10.4556L13.536 11.4945L15.292 10.4556L13.608 9.41681L11.852 10.4556ZM7.684 11.4945L9.44 10.4556L7.684 9.41681L6 10.4556V12.4603L7.684 13.4991V11.4945ZM7.684 14.9072L6 13.8684V19.3588L10.684 22.1061V20.1014L7.756 18.393V14.9032L7.684 14.9072Z" fill="white"/>
<path d="M34.6762 17.2086C34.6762 15.8735 33.9442 15.204 32.8482 14.7576C33.5802 14.3883 34.1642 13.7187 34.1642 12.6069C34.1642 11.0486 32.9202 10.0098 30.9442 10.0098H26.4082V19.9558H31.0882C33.2122 19.8787 34.6762 18.99 34.6762 17.2086ZM31.9682 12.9761C31.9682 13.7187 31.3842 14.015 30.4322 14.015H28.4562V11.8643H30.5762C31.5322 11.8643 31.9682 12.2376 31.9682 12.9761ZM32.5562 16.9124C32.5562 17.655 31.9722 18.0242 31.0202 18.0242H28.4602V15.8735H30.9482C32.0442 15.7964 32.5562 16.2428 32.5562 16.9124Z" fill="white"/>
<path d="M45.2831 19.8787V10.0098H43.1591V16.0967L38.5511 10.0098H36.5791V19.9558H38.6991V13.6457L43.4551 19.9558H45.2831V19.8787Z" fill="white"/>
<path d="M56.0365 17.2086C56.0365 15.8735 55.3045 15.204 54.2085 14.7576C54.9405 14.3883 55.5245 13.7187 55.5245 12.6069C55.5245 11.0486 54.2805 10.0098 52.3046 10.0098H47.7686V19.9558H52.4486C54.5725 19.8787 56.0365 18.99 56.0365 17.2086ZM53.4046 12.9761C53.4046 13.7187 52.8205 14.015 51.8686 14.015H49.8926V11.8643H52.0126C52.8926 11.8643 53.4046 12.2376 53.4046 12.9761ZM53.9166 16.9124C53.9166 17.655 53.3326 18.0242 52.3806 18.0242H49.8206V15.8735H52.3086C53.4045 15.7964 53.9166 16.2428 53.9166 16.9124Z" fill="white"/>
<path d="M68.9845 18.1744L67.8885 17.0625C67.0845 17.8781 66.2805 18.3245 65.1085 18.3245C63.2045 18.3245 61.8885 16.7663 61.8885 14.7616C61.8885 12.83 63.2805 11.2758 65.1085 11.2758C66.2045 11.2758 67.0845 11.7953 67.8165 12.5379L68.9125 11.2028C67.9605 10.3141 66.8645 9.64453 65.1085 9.64453C62.1805 9.64453 60.0605 11.9454 60.0605 14.7657C60.0605 17.659 62.1805 19.8868 65.0365 19.8868C66.8645 19.8787 67.9605 19.2132 68.9845 18.1744Z" fill="white"/>
<path d="M77.324 15.5759V19.7312H79.008V9.78516H77.324V13.9405H72.644V9.78516H70.96V19.7312H72.644V15.5759H77.324Z" fill="white"/>
<path d="M86.7599 9.78516H85.1519L80.8359 19.8043H82.5919L83.6159 17.4304H88.2239L89.2479 19.8043H91.0759L86.7599 9.78516ZM87.6399 15.795H84.2759L85.9599 11.8628L87.6399 15.795Z" fill="white"/>
<path d="M92.9795 9.78516V19.7312H94.6595V9.78516H92.9795Z" fill="white"/>
<path d="M104.243 16.6878L98.9754 9.8582H97.4395V19.8043H99.1235V12.6785L104.535 19.7312H105.999V9.78516H104.315V16.6878H104.243Z" fill="white"/>
</g>
</svg>
