<svg width="111" height="30" viewBox="0 0 111 30" fill="none" xmlns="http://www.w3.org/2000/svg">
<g opacity="0.5">
<path d="M30.2812 19.7077C29.8516 19.7077 29.4118 19.651 28.996 19.7266C28.6815 19.7833 28.4083 20.0393 28.0956 20.151C27.6455 20.3125 27.118 20.6183 26.7366 20.4998C26.3981 20.395 26.0424 19.8108 26.0046 19.4087C25.9479 18.8228 26.4204 18.4844 27.008 18.304C27.3345 18.2026 27.7039 17.9775 27.8809 17.6992C28.4324 16.8349 29.2984 15.914 29.2915 15.0222C29.2829 14.0893 28.4324 13.146 27.886 12.2474C27.7314 11.9931 27.3671 11.7852 27.0647 11.7199C26.4548 11.5859 25.9874 11.2526 26.0098 10.6701C26.0252 10.2698 26.3431 9.75775 26.6816 9.52408C27.1799 9.18216 27.7245 9.39865 28.1077 9.88833C28.142 9.93301 28.1609 10.0292 28.1936 10.0309C29.3843 10.1306 30.5767 10.2646 31.7691 10.2835C32.0303 10.287 32.3567 9.91926 32.5492 9.64779C32.8962 9.15983 33.1694 8.62032 33.4632 8.09628C33.7862 7.52069 34.2433 7.01383 33.8 6.22862C33.678 6.01213 34.0251 5.31455 34.3326 5.12899C34.6402 4.94171 35.3017 4.95889 35.5663 5.1771C35.8635 5.42452 36.1298 6.11522 35.9872 6.40559C35.6917 7.00524 36.0267 7.33341 36.1865 7.80075C36.915 9.93301 38.3377 10.7491 40.549 10.3385C41.0524 10.244 41.4751 10.2715 41.8634 9.78524C42.0799 9.51377 42.7998 9.38663 43.1383 9.53783C43.4664 9.68559 43.7998 10.2973 43.7568 10.6615C43.7139 11.0275 43.2448 11.5739 42.9012 11.6237C42.3067 11.7096 42.0816 12.0257 41.8462 12.4587C41.384 13.3109 40.5421 14.1563 40.5404 15.0051C40.5387 15.8538 41.3789 16.7009 41.8359 17.5548C42.0678 17.9895 42.2981 18.2954 42.8874 18.3813C43.2362 18.4328 43.7104 18.9655 43.7585 19.3314C43.8066 19.6957 43.4768 20.34 43.1589 20.4603C42.7843 20.6029 42.0678 20.4654 41.8221 20.175C41.4596 19.7472 41.1108 19.6957 40.6486 19.7026C39.848 19.7129 39.0404 19.6527 38.2466 19.73C37.9185 19.7627 37.5216 20.0015 37.3222 20.2713C36.9013 20.8434 36.5937 21.498 36.2329 22.1166C35.9546 22.5942 35.6127 22.9929 35.9975 23.6544C36.1419 23.9035 35.8429 24.6492 35.5353 24.8571C35.2278 25.0633 34.5336 25.0426 34.2381 24.8193C33.9495 24.5994 33.7519 23.9327 33.8704 23.5822C34.0422 23.0736 33.9959 22.7351 33.7141 22.3331C33.501 22.0307 33.3 21.7077 33.1608 21.3675C32.6282 20.0565 31.8086 19.2799 30.2812 19.7077ZM32.9873 15.0051V15.347C32.9873 16.914 33.7782 17.6442 35.3601 17.5377C36.4958 17.4621 37.1178 16.5102 36.7827 15.426C36.6917 15.1322 36.6779 14.7783 36.7467 14.4793C36.9786 13.4896 36.4992 12.6666 35.4907 12.5378C34.8721 12.4587 34.2381 12.5051 33.6127 12.4965C33.1316 12.4914 32.9718 12.7577 32.9856 13.2061C33.0028 13.8041 32.989 14.4037 32.9873 15.0033V15.0051Z" fill="white"/>
<path d="M77.4049 12.5371C78.7828 12.5423 79.8601 13.6127 79.8584 14.9769C79.8567 16.379 78.7399 17.4649 77.3293 17.4391C75.9719 17.415 74.8946 16.2999 74.9204 14.946C74.9461 13.5766 76.0234 12.532 77.4066 12.5371H77.4049ZM75.8568 15.3309C75.9392 15.3378 76.0217 15.3463 76.1059 15.3532C76.6935 14.8 77.2829 14.245 77.8705 13.6917C77.8396 13.6041 77.8103 13.5165 77.7794 13.4289C77.2863 13.5955 76.6763 13.6385 76.3344 13.9649C76.0234 14.2605 76.0045 14.8635 75.8568 15.3309ZM76.9272 16.3463C77.5887 16.6109 78.1557 16.4872 78.4976 15.9924C78.7519 15.6213 78.7794 15.0955 78.9065 14.6385C78.8223 14.6178 78.7382 14.5955 78.654 14.5749C78.1042 15.1384 77.5561 15.702 76.9255 16.348L76.9272 16.3463Z" fill="white"/>
<path d="M48.7383 17.3658V12.6064C49.441 12.6064 50.0974 12.5531 50.7417 12.6184C51.9049 12.7353 52.2983 13.682 51.7331 14.9311C52.166 15.4294 52.4066 15.9775 52.0475 16.6373C51.6935 17.2867 51.1128 17.4018 50.4427 17.3709C49.9032 17.3469 49.3603 17.3658 48.7383 17.3658ZM49.8053 16.4964C50.319 16.3538 50.7107 16.2661 51.0819 16.1218C51.1403 16.0995 51.1454 15.7026 51.0973 15.6854C50.7056 15.5359 50.2967 15.4362 49.8053 15.2971V16.4981V16.4964ZM49.8053 14.5445C50.2073 14.4328 50.5424 14.3641 50.8516 14.2335C50.9066 14.2095 50.9015 13.8126 50.8413 13.7868C50.5303 13.6597 50.1919 13.5978 49.8053 13.4981V14.5428V14.5445Z" fill="white"/>
<path d="M62.8066 12.543C64.2997 12.7801 64.3702 14.366 65.4269 15.0275V12.665H66.4354V17.2525C65.9658 17.3476 65.5082 17.0795 65.0626 16.4484C64.7035 15.9432 64.3341 15.4467 63.829 14.7543V17.2972H62.8066V12.543Z" fill="white"/>
<path d="M55.137 12.5371C56.527 12.544 57.5665 13.5852 57.5699 14.9786C57.5734 16.3927 56.4703 17.4717 55.0545 17.4391C53.6937 17.4081 52.6061 16.2862 52.6353 14.9426C52.6645 13.5835 53.759 12.532 55.137 12.5388V12.5371ZM55.1233 13.5611C54.3037 13.5646 53.6783 14.2106 53.6783 15.0508C53.6783 15.879 54.3174 16.4872 55.1765 16.4786C55.9789 16.4717 56.5682 15.8618 56.5614 15.0474C56.5545 14.1934 55.9394 13.5577 55.125 13.5594L55.1233 13.5611Z" fill="white"/>
<path d="M58.2501 12.6402H59.2603C59.2603 13.5594 59.2707 14.4391 59.2569 15.3171C59.2483 15.8979 59.2724 16.4563 60.0404 16.4735C60.8101 16.4906 60.8686 15.9546 60.8565 15.3584C60.8393 14.4769 60.8514 13.5955 60.8514 12.654C61.1795 12.6282 61.451 12.6076 61.8256 12.5801C61.8256 13.8378 61.8909 15.0577 61.8032 16.2673C61.7465 17.0576 60.8462 17.5645 59.9081 17.5009C58.9872 17.4391 58.3016 16.8446 58.2621 15.9563C58.2123 14.8773 58.2501 13.7948 58.2501 12.6402Z" fill="white"/>
<path d="M80.1436 12.6979C81.3085 12.234 81.5405 13.1361 81.9735 13.8251C82.5422 13.289 82.6865 12.1017 83.8875 12.7254C83.5783 13.2615 83.2759 13.8388 82.9202 14.3818C82.6711 14.7615 82.6298 15.0656 82.903 15.4642C83.2879 16.026 83.5989 16.6394 83.9459 17.2374C83.3938 17.3679 82.7415 16.9836 81.9889 16.0845C81.4804 16.6343 81.3721 17.782 80.0869 17.2683C80.3343 16.837 80.5525 16.3577 80.8584 15.9453C81.3618 15.2683 81.4477 14.6549 80.8756 13.9625C80.5749 13.5983 80.391 13.1361 80.1436 12.6997V12.6979Z" fill="white"/>
<path d="M68.2824 17.317V13.6538C67.8683 13.6109 67.5127 13.5748 67.1055 13.5335V12.6504H70.5418V13.5473C70.1673 13.5713 69.8322 13.592 69.3924 13.6194V17.317H68.2824Z" fill="white"/>
<path d="M70.8232 12.6722C72.404 12.1516 72.1823 13.7684 72.8661 14.3233C73.5672 13.8096 73.3129 12.1602 74.8953 12.6773C74.3146 14.1807 72.9418 15.423 73.4383 17.3044H72.306C72.8026 15.4487 71.4401 14.1807 70.8232 12.6739V12.6722Z" fill="white"/>
</g>
</svg>
