<svg width="19" height="19" viewBox="0 0 19 19" fill="none" xmlns="http://www.w3.org/2000/svg">
<path d="M17.5758 0.136719H2.23711C1.50234 0.136719 0.908203 0.716797 0.908203 1.43398V16.8359C0.908203 17.5531 1.50234 18.1367 2.23711 18.1367H17.5758C18.3105 18.1367 18.9082 17.5531 18.9082 16.8395V1.43398C18.9082 0.716797 18.3105 0.136719 17.5758 0.136719ZM6.24844 15.4754H3.57656V6.8832H6.24844V15.4754ZM4.9125 5.7125C4.05469 5.7125 3.36211 5.01992 3.36211 4.16562C3.36211 3.31133 4.05469 2.61875 4.9125 2.61875C5.7668 2.61875 6.45937 3.31133 6.45937 4.16562C6.45937 5.01641 5.7668 5.7125 4.9125 5.7125ZM16.2469 15.4754H13.5785V11.2988C13.5785 10.3039 13.5609 9.0207 12.1898 9.0207C10.8012 9.0207 10.5902 10.107 10.5902 11.2285V15.4754H7.92539V6.8832H10.4848V8.05742H10.5199C10.875 7.38242 11.7469 6.66875 13.0441 6.66875C15.7477 6.66875 16.2469 8.44766 16.2469 10.7609V15.4754V15.4754Z" fill="#383F49"/>
</svg>
