<svg width="111" height="30" viewBox="0 0 111 30" fill="none" xmlns="http://www.w3.org/2000/svg">
<g opacity="0.5">
<path d="M40.2958 17.9375C39.2576 18.6264 37.9169 18.814 36.227 18.814C34.537 18.814 33.185 18.6264 32.1451 17.9246C30.9694 17.1483 30.5684 15.8723 30.5684 14.3441C30.5684 12.8158 30.9694 11.5269 32.1451 10.7523C33.1834 10.0633 34.524 9.88867 36.214 9.88867C37.904 9.88867 39.256 10.0763 40.2942 10.7523C41.4586 11.5415 41.8709 12.8304 41.8709 14.3441C41.8709 15.8577 41.4586 17.1483 40.2942 17.9375H40.2958ZM36.227 11.6158C33.8981 11.6158 32.8341 12.2676 32.8341 14.2826C32.8341 16.2977 33.8723 17.0868 36.214 17.0868C38.5557 17.0868 39.6069 16.4238 39.6069 14.4071C39.6069 12.3905 38.5687 11.6158 36.227 11.6158Z" fill="white"/>
<path d="M51.4867 18.0612C50.5472 18.6127 49.4847 18.6369 47.3937 18.6369H43.5625V10.0625H47.4179C49.158 10.0625 50.1979 10.0868 51.0987 10.614C51.7245 10.9892 52.001 11.5536 52.001 12.3169C52.001 13.2176 51.6259 13.7934 50.662 14.2203V14.2705C51.7633 14.5341 52.4652 15.0969 52.4652 16.2985C52.4652 17.1378 52.1401 17.7005 51.4884 18.0628L51.4867 18.0612ZM47.6686 11.6263H45.7781V13.6171H47.6799C49.2066 13.6171 49.7823 13.4295 49.7823 12.6031C49.7823 11.7767 49.0561 11.6263 47.667 11.6263H47.6686ZM48.1068 15.1195H45.7797V17.0601H48.1327C49.6723 17.0601 50.2237 16.8968 50.2237 16.0834C50.2237 15.2699 49.4977 15.1195 48.1084 15.1195H48.1068Z" fill="white"/>
<path d="M54.1533 18.6369V10.0625H56.3689V16.8467H61.827V18.6369H54.1533Z" fill="white"/>
<path d="M63.7266 18.6369V10.0625H65.9421V18.6369H63.7266Z" fill="white"/>
<path d="M71.6765 18.6369L67.3828 10.0625H69.8734L72.9394 16.6089H73.0029L76.0573 10.0625H78.4366L74.156 18.6369H71.6765Z" fill="white"/>
<path d="M79.875 18.6369V10.0625H82.0902V18.6369H79.875Z" fill="white"/>
<path d="M93.5069 17.9375C92.4689 18.6264 91.1282 18.814 89.4379 18.814C87.7483 18.814 86.3965 18.6264 85.3565 17.9246C84.1807 17.1483 83.7793 15.8723 83.7793 14.3441C83.7793 12.8158 84.1807 11.5269 85.3565 10.7523C86.3945 10.0633 87.7351 9.88867 89.4255 9.88867C91.1151 9.88867 92.4669 10.0763 93.5055 10.7523C94.6696 11.5415 95.082 12.8304 95.082 14.3441C95.082 15.8577 94.6696 17.1483 93.5055 17.9375H93.5069ZM89.4379 11.6158C87.1096 11.6158 86.0455 12.2676 86.0455 14.2826C86.0455 16.2977 87.0834 17.0868 89.4255 17.0868C91.7669 17.0868 92.8179 16.4238 92.8179 14.4071C92.8179 12.3905 91.78 11.6158 89.4379 11.6158Z" fill="white"/>
<path d="M103.595 18.6369L98.5883 12.7907H98.551V18.6369H96.5234V10.0625H99.1027L103.935 15.8958H103.985V10.0625H106V18.6369H103.597H103.595Z" fill="white"/>
<path d="M23.7583 19.6485C23.7793 19.6129 23.8019 19.5773 23.823 19.5434C23.8876 19.4366 23.9491 19.3283 24.0073 19.2199C24.0364 19.1665 24.0655 19.1148 24.093 19.0614C24.1755 18.9013 24.2564 18.7412 24.3292 18.5779C24.3421 18.5488 24.3534 18.5196 24.3663 18.4905C24.4294 18.3483 24.4892 18.2043 24.5443 18.0588C24.5636 18.0103 24.5814 17.9617 24.5992 17.9132C24.6494 17.7741 24.6979 17.6334 24.7415 17.4912C24.7529 17.4539 24.7658 17.4168 24.7771 17.3796C24.8321 17.1968 24.8806 17.0141 24.9243 16.8281C24.9275 16.8152 24.9292 16.8022 24.9323 16.7892C24.9712 16.6211 25.0052 16.4497 25.0343 16.2799C25.0423 16.2313 25.0504 16.1844 25.0569 16.1359C25.0795 15.992 25.099 15.8481 25.1151 15.7041C25.12 15.6556 25.1264 15.6087 25.1313 15.5602C25.1491 15.3726 25.1636 15.1834 25.1701 14.9941H21.0996L16.4404 19.6517H23.7567L23.7583 19.6485Z" fill="white"/>
<path d="M7.41344 9.58008C7.39241 9.61565 7.36977 9.65123 7.34875 9.6852C7.28406 9.79193 7.2226 9.90028 7.16438 10.0086C7.13528 10.062 7.10617 10.1138 7.07867 10.1671C6.9962 10.3272 6.91534 10.4873 6.84256 10.6507C6.82963 10.6798 6.8183 10.7089 6.80537 10.738C6.74229 10.8803 6.68246 11.0242 6.62747 11.1698C6.60807 11.2183 6.59028 11.2668 6.57249 11.3153C6.52236 11.4544 6.47384 11.5951 6.43018 11.7374C6.41885 11.7747 6.40592 11.8118 6.3946 11.849C6.33961 12.0318 6.2911 12.2145 6.24743 12.4004C6.2442 12.4134 6.24258 12.4264 6.23934 12.4393C6.20053 12.6075 6.16657 12.7789 6.13746 12.9487C6.12938 12.9972 6.12129 13.0441 6.11482 13.0926C6.09218 13.2366 6.07277 13.3805 6.0566 13.5244C6.05175 13.5729 6.04528 13.6198 6.04043 13.6684C6.02102 13.8592 6.00647 14.0484 6 14.2376H10.0705L14.7296 9.58008H7.41344Z" fill="url(#paint0_linear_17_78)"/>
<path d="M15.5843 5C12.4389 5 9.64435 6.5234 7.89453 8.86996H15.586C15.6765 8.86996 15.7671 8.90393 15.8366 8.97346L21.1006 14.2374H25.1727C24.9835 9.11255 20.7545 5 15.5843 5Z" fill="white"/>
<path d="M15.5851 24.2277C18.7306 24.2277 21.5251 22.7043 23.2766 20.3577H15.5851C15.4946 20.3577 15.404 20.3238 15.3345 20.2543L10.0721 14.9902H6C6.18759 20.1152 10.415 24.2277 15.5851 24.2277Z" fill="white"/>
</g>
<defs>
<linearGradient id="paint0_linear_17_78" x1="10.3648" y1="15.7675" x2="10.3648" y2="9.57684" gradientUnits="userSpaceOnUse">
<stop stop-color="white"/>
<stop offset="1" stop-color="#E2E1E1" stop-opacity="0"/>
</linearGradient>
</defs>
</svg>
