<svg width="281" height="70" viewBox="0 0 281 70" fill="none" xmlns="http://www.w3.org/2000/svg">
<path d="M141.087 23.1471V46.8977C141.087 47.0787 140.952 47.2596 140.726 47.2596H138.237C137.106 47.2596 136.021 46.6715 135.387 45.7215L124.168 28.3948L124.53 37.0355V46.9429C124.53 47.1239 124.394 47.3049 124.168 47.3049H120.911C120.73 47.3049 120.549 47.1691 120.549 46.9429V23.1471C120.549 22.9661 120.685 22.7852 120.911 22.7852H123.354C124.485 22.7852 125.57 23.3733 126.204 24.3233L137.423 41.6047L137.061 32.964V23.1471C137.061 22.9661 137.197 22.7852 137.423 22.7852H140.68C140.952 22.7852 141.087 22.9209 141.087 23.1471Z" fill="white"/>
<path d="M174.476 47.2144H171.038C170.812 47.2144 170.631 46.9882 170.721 46.762L179.859 23.1018C179.95 22.9209 180.131 22.7852 180.312 22.7852H184.655C184.881 22.7852 185.062 22.9209 185.107 23.1018L194.291 46.762C194.381 46.9882 194.2 47.2144 193.974 47.2144H190.536C190.4 47.2144 190.264 47.1239 190.219 46.9882L182.845 27.5353C182.755 27.2638 182.302 27.2638 182.212 27.5353L174.838 46.9882C174.747 47.1239 174.612 47.2144 174.476 47.2144Z" fill="white"/>
<path d="M218.265 46.6715L211.389 37.8951C215.279 37.1713 217.541 34.5474 217.541 30.5211C217.541 25.9067 214.556 22.7852 209.217 22.7852H199.627C199.355 22.7852 199.129 23.0114 199.129 23.2828C199.129 25.0924 200.577 26.54 202.386 26.54H208.855C212.067 26.54 213.605 28.1686 213.605 30.5663C213.605 32.964 212.113 34.5926 208.855 34.5926H199.717C199.446 34.5926 199.219 34.8188 199.219 35.0902V46.8525C199.219 47.0334 199.355 47.2144 199.581 47.2144H202.839C203.019 47.2144 203.2 47.0787 203.2 46.8525V38.1213H206.955L212.927 45.9024C213.56 46.762 214.556 47.2144 215.641 47.2144H218.129C218.31 47.2144 218.446 46.8977 218.265 46.6715Z" fill="white"/>
<path d="M164.16 22.7852H149.005C148.734 22.7852 148.553 22.9661 148.553 23.2375C148.553 25.0471 150.046 26.54 151.855 26.54H164.16C164.341 26.54 164.522 26.4043 164.522 26.1781V23.1018C164.477 22.9209 164.341 22.7852 164.16 22.7852ZM164.16 43.4595H152.85C152.67 43.4595 152.489 43.3238 152.489 43.0976V36.9903C152.489 36.8093 152.624 36.6284 152.85 36.6284H163.301C163.482 36.6284 163.663 36.4927 163.663 36.2665V33.1902C163.663 33.0092 163.527 32.8283 163.301 32.8283H149.05C148.779 32.8283 148.553 33.0545 148.553 33.3259V46.6715C148.553 46.9429 148.779 47.1691 149.05 47.1691H164.16C164.341 47.1691 164.522 47.0334 164.522 46.8072V43.731C164.477 43.5952 164.341 43.4595 164.16 43.4595Z" fill="white"/>
<path d="M96.3015 16.7236L87.7965 29.3454C87.2084 30.2049 88.3393 31.2454 89.1536 30.5216L97.5229 23.238C97.7491 23.0571 98.0658 23.1928 98.0658 23.5095V46.2648C98.0658 46.5815 97.6586 46.7172 97.4777 46.491L72.1437 16.1807C71.3294 15.1855 70.1531 14.6426 68.8412 14.6426H67.9364C65.584 14.6426 63.6387 16.5879 63.6387 18.9856V51.015C63.6387 53.4127 65.584 55.358 67.9816 55.358C69.4745 55.358 70.877 54.5889 71.6913 53.2769L80.1963 40.6552C80.7844 39.7956 79.6534 38.7551 78.8391 39.479L70.4698 46.7172C70.2436 46.8982 69.9269 46.7625 69.9269 46.4458V23.7357C69.9269 23.419 70.3341 23.2833 70.515 23.5095L95.8491 53.8198C96.6634 54.8151 97.8848 55.358 99.1515 55.358H100.056C102.454 55.358 104.399 53.4127 104.399 51.015V18.9856C104.354 16.5879 102.409 14.6426 100.011 14.6426C98.5182 14.6426 97.1158 15.4116 96.3015 16.7236Z" fill="white"/>
</svg>
