<svg width="281" height="70" viewBox="0 0 281 70" fill="none" xmlns="http://www.w3.org/2000/svg">
<path d="M153.796 40.1865C153.484 39.8744 153.359 39.4374 153.359 38.938V17.4641H155.169V38.938H167.716V40.6234H155.044C154.482 40.561 154.045 40.4362 153.796 40.1865Z" fill="white"/>
<path d="M184.383 33.8192H174.021L171.524 40.561H169.526L178.328 17.4016H179.14C179.639 17.4016 180.076 17.7137 180.326 18.4004L188.691 40.4361H186.756L184.383 33.8192ZM174.52 32.321H183.822L179.202 19.961L174.52 32.321Z" fill="white"/>
<path d="M191.749 40.0616C191.437 39.7495 191.25 39.3125 191.25 38.8131V17.4641H200.863C202.674 17.4641 204.109 17.9011 205.295 18.775C206.357 19.7114 206.981 20.835 206.981 22.3956V24.3308C206.981 25.2671 206.794 26.0786 206.419 26.8277C206.045 27.5768 205.483 28.1386 204.859 28.5756C205.92 28.8253 206.856 29.3871 207.543 30.261C208.229 31.0726 208.542 32.0089 208.542 33.195V34.9428C208.542 36.6907 207.98 38.0641 206.856 39.1253C205.795 40.1865 204.297 40.6859 202.362 40.6859H193.06C192.499 40.561 192.062 40.4362 191.749 40.0616ZM201.612 28.1386C202.674 28.1386 203.548 27.8265 204.172 27.0774C204.859 26.3907 205.171 25.392 205.171 24.2059V22.2708C205.171 21.272 204.734 20.5229 203.985 19.9611C203.236 19.3992 202.174 19.0247 200.863 19.0247H193.123V28.0762H201.55V28.1386H201.612ZM202.112 38.938C203.423 38.938 204.546 38.6259 205.358 37.8768C206.169 37.1277 206.606 36.1289 206.606 34.9428V33.195C206.606 32.1962 206.294 31.3847 205.545 30.7604C204.796 30.0738 203.86 29.8241 202.674 29.8241H193.06V39.1253H202.112V38.938Z" fill="white"/>
<path d="M212.786 39.0629C211.6 37.8768 211.038 36.3162 211.038 34.3187H212.786C212.786 35.8168 213.223 37.0029 214.035 37.8144C214.846 38.6259 216.032 39.1253 217.468 39.1253H221.151C222.587 39.1253 223.648 38.8132 224.522 38.189C225.334 37.5023 225.771 36.6908 225.771 35.692V33.4447C225.771 32.6332 225.458 31.8841 224.834 31.2599C224.272 30.6981 223.336 30.2611 222.275 30.0738L216.345 29.075C214.784 28.8253 213.473 28.2635 212.662 27.3272C211.725 26.3908 211.351 25.3296 211.351 23.9563V22.0211C211.351 20.5229 211.912 19.2745 213.098 18.3381C214.285 17.4017 215.783 16.9023 217.593 16.9023H221.338C223.086 16.9023 224.585 17.4017 225.708 18.4629C226.832 19.5242 227.394 20.9599 227.394 22.7078H225.583C225.583 21.4593 225.146 20.3981 224.397 19.5866C223.648 18.7751 222.587 18.5878 221.338 18.5878H217.593C216.282 18.5878 215.158 18.8999 214.347 19.5242C213.535 20.2108 213.161 20.9599 213.161 22.0211V24.206C213.161 25.1423 213.473 25.7666 214.097 26.3908C214.659 26.9526 215.533 27.3896 216.594 27.5769L222.462 28.5757C224.023 28.8253 225.396 29.3872 226.332 30.3235C227.269 31.135 227.643 32.2587 227.643 33.5072V35.7544C227.643 37.2526 227.081 38.5011 225.895 39.4374C224.709 40.3738 223.149 40.8732 221.214 40.8732H217.468C215.595 40.8108 213.972 40.249 212.786 39.0629Z" fill="white"/>
<path d="M76.577 18.3383C74.6419 17.5268 72.3946 17.0898 69.8976 17.0898H52.3564V48.9261C52.3564 50.4243 52.8558 51.6103 53.7922 52.5467C54.7286 53.4831 55.977 53.8576 57.4752 53.8576H70.1473C74.7667 53.8576 78.2 52.6715 80.5097 50.3619C81.2588 49.6128 81.9455 48.6764 82.5073 47.6776L76.577 18.3383ZM76.7643 39.8122C76.7643 42.3091 76.2025 44.2443 75.0164 45.5552C73.8303 46.8661 72.1449 47.4903 69.8976 47.4903H59.6601V23.5195H69.7728C71.8328 23.5195 73.5182 24.0813 74.8915 25.3298C76.2025 26.5158 76.8267 28.2013 76.8267 30.1989C76.7643 30.1989 76.7643 39.8122 76.7643 39.8122Z" fill="white"/>
<path d="M148.302 23.3944V17.152H126.766L126.704 17.7138L120.836 46.9283V53.9198H128.077V39.5622H146.492V33.3198H128.077V23.3944H148.302Z" fill="white"/>
<path d="M123.707 17.0897L120.711 31.9466L117.153 49.7999C116.903 51.2357 116.341 52.2345 115.592 52.9211C114.843 53.6078 113.844 53.9199 112.471 53.9199H109.474L101.609 28.6381H101.484L93.4939 53.8575H90.4975C89.3115 53.8575 88.3127 53.5454 87.5012 52.9211C86.6897 52.2969 86.1903 51.2357 85.8157 49.7375L84.0054 40.3739L79.3236 16.9648H86.6897L91.1842 43.1205H91.2466L98.8624 18.9624H101.422C102.233 18.9624 103.107 19.2121 103.669 19.6491C104.231 20.086 104.855 20.8975 105.167 22.146L111.597 43.1205H111.847L116.341 17.0273C116.404 17.0897 123.707 17.0897 123.707 17.0897Z" fill="white"/>
<path d="M170.775 44.4939C172.46 44.4939 174.021 44.9933 175.27 45.9297C176.268 46.6163 176.955 47.4903 177.579 48.2394C178.079 48.8012 178.578 49.4878 179.14 49.9248C179.452 50.1745 179.827 50.3618 180.326 50.3618C180.825 50.3618 181.137 50.1745 181.512 49.9248C182.011 49.4878 182.573 48.926 183.073 48.2394C183.759 47.4903 184.383 46.5539 185.382 45.9297C186.631 44.9933 188.254 44.4939 189.877 44.4939C191.5 44.4939 193.123 44.9933 194.371 45.9297C195.37 46.6163 196.057 47.4903 196.681 48.2394C197.18 48.8012 197.68 49.4878 198.242 49.9248C198.554 50.1745 198.928 50.3618 199.428 50.3618C199.927 50.3618 200.239 50.1745 200.614 49.9248C201.113 49.4878 201.675 48.926 202.174 48.2394C202.861 47.4903 203.485 46.5539 204.484 45.9297C205.733 44.9933 207.356 44.4939 208.979 44.4939C210.602 44.4939 212.225 44.9933 213.473 45.9297C214.472 46.6163 215.159 47.4903 215.783 48.2394C216.282 48.8012 216.782 49.4878 217.343 49.9248C217.656 50.1745 218.03 50.3618 218.529 50.3618C219.029 50.3618 219.341 50.1745 219.716 49.9248C220.215 49.4878 220.777 48.926 221.276 48.2394C221.963 47.4903 222.587 46.5539 223.586 45.9297C224.585 45.1806 225.646 44.7436 226.957 44.6188V48.5515C226.457 48.9885 225.896 49.5503 225.396 50.2369C224.709 50.986 224.085 51.9224 223.086 52.5466C221.838 53.483 220.215 53.9824 218.592 53.9824C216.906 53.9824 215.346 53.483 214.097 52.5466C213.099 51.86 212.412 50.986 211.788 50.2369C211.288 49.6751 210.789 48.9885 210.227 48.5515C209.915 48.3018 209.54 48.1145 209.041 48.1145C208.542 48.1145 208.229 48.3018 207.855 48.5515C207.356 48.9885 206.794 49.5503 206.294 50.2369C205.608 50.986 204.983 51.9224 203.985 52.5466C202.736 53.483 201.113 53.9824 199.49 53.9824C197.867 53.9824 196.244 53.483 194.996 52.5466C193.997 51.86 193.31 50.986 192.686 50.2369C192.187 49.6751 191.687 48.9885 191.125 48.5515C190.813 48.3018 190.439 48.1145 189.939 48.1145C189.44 48.1145 189.128 48.3018 188.753 48.5515C188.254 48.9885 187.692 49.5503 187.193 50.2369C186.506 50.986 185.882 51.9224 184.883 52.5466C183.634 53.483 182.011 53.9824 180.388 53.9824C178.765 53.9824 177.142 53.483 175.894 52.5466C174.895 51.86 174.208 50.986 173.584 50.2369C173.085 49.6751 172.585 48.9885 172.024 48.5515C171.711 48.3018 171.337 48.1145 170.837 48.1145C170.338 48.1145 170.026 48.3018 169.651 48.5515C169.152 48.9885 168.59 49.5503 168.091 50.2369C167.404 50.986 166.78 51.9224 165.781 52.5466C164.533 53.483 162.91 53.9824 161.287 53.9824C159.664 53.9824 158.041 53.483 156.792 52.5466C155.793 51.86 155.107 50.986 154.482 50.2369C153.983 49.6751 153.484 48.9885 152.922 48.5515V44.6188C154.17 44.806 155.231 45.1806 156.293 45.9297C157.291 46.6163 157.978 47.4903 158.602 48.2394C159.102 48.8012 159.601 49.4878 160.163 49.9248C160.475 50.1745 160.85 50.3618 161.349 50.3618C161.848 50.3618 162.161 50.1745 162.535 49.9248C163.034 49.4878 163.596 48.926 164.096 48.2394C164.782 47.4903 165.407 46.5539 166.405 45.9297C167.591 44.9933 169.09 44.4939 170.775 44.4939Z" fill="white"/>
</svg>
