<svg width="281" height="70" viewBox="0 0 281 70" fill="none" xmlns="http://www.w3.org/2000/svg">
<path d="M196.429 30.4716C196.429 25.8261 193.114 22.2883 186.825 22.2883H174.379V51.4837H178.986V39.6357H187.338C189.661 39.6357 191.255 40.5288 191.255 43.2174V51.4886H195.906V42.7929C195.906 39.0844 193.793 37.5911 191.172 37.4643V37.2544C193.45 36.5712 196.424 34.8244 196.424 30.4765L196.429 30.4716ZM186.267 35.8002H178.991L179.035 26.0408H186.14C190.057 26.0408 191.696 28.1733 191.696 30.8132C191.696 33.4532 189.974 35.8002 186.272 35.8002H186.267ZM72.277 21.7272L68.9908 18.4724L65.6851 21.7467L68.9762 25.0015L72.282 21.7272H72.277ZM98.9481 22.2883L87.1529 51.4837H92.1067L95.2071 43.7688H107.907L110.963 51.4837H116L104.244 22.2883H98.9481ZM96.3661 40.0212L101.447 27.1046H101.662L106.655 40.0212H96.3661ZM84.5025 25.2845L81.2358 21.976L72.0178 30.8913C70.3405 32.5114 67.6166 32.5114 65.9442 30.8913L56.7214 21.9712L53.4547 25.2845V51.4886H58.1102V29.7836L62.6727 34.1948C64.4087 35.8783 66.6973 36.7176 68.981 36.7176C71.2647 36.7176 73.5485 35.8783 75.2894 34.1948L79.7639 29.8665V51.4837H84.5074V25.2845H84.5025ZM215.789 22.2932H210.493L198.698 51.4886H203.652L206.752 43.7737H219.452L222.509 51.4886H227.545L215.794 22.2932H215.789ZM207.912 40.026L212.993 27.1095H213.208L218.2 40.026H207.912ZM139.018 44.6715H138.803L123.908 22.2883H118.7V51.4837H123.35V29.3639H123.565L138.246 51.4837L143.669 51.5276V22.2883H139.018V44.6667V44.6715ZM146.711 26.0896H156.745V51.4934H161.269L161.313 26.0896H171.342V22.2883H146.715V26.0799L146.711 26.0896Z" fill="white"/>
</svg>
