<svg width="281" height="70" viewBox="0 0 281 70" fill="none" xmlns="http://www.w3.org/2000/svg">
<path d="M76.6294 30.7424C77.7223 26.4492 79.6247 22.5896 82.6405 19.2071C90.4277 10.4706 106.005 9.19632 115.084 16.6219C116.091 17.4458 116.347 17.9929 114.845 18.4666C113.745 18.8135 112.894 19.5641 112.01 20.2612C109.557 22.196 107.013 22.1827 104.585 20.2512C99.5878 16.2783 95.0658 16.4784 90.414 20.865C89.3143 21.9025 88.2213 22.9499 87.0532 23.9106C86.2404 24.5811 86.3019 25.0715 86.9849 25.8054C88.8737 27.8402 88.8361 27.8602 90.9127 25.8988C92.0534 24.8246 93.1668 23.7138 94.393 22.7364C96.7189 20.885 99.236 20.9751 101.494 22.8765C105.879 26.5726 110.353 26.666 114.848 23.1334C115.565 22.5696 116.323 22.1026 117.211 21.8624C119.213 21.3254 120.121 21.6756 121.122 23.4636C125.186 30.7124 125.374 38.0612 121.723 45.5234C121.129 46.7377 120.603 46.9778 119.291 46.2773C115.517 44.2591 111.774 44.5093 108.26 46.9778C105.093 49.2028 102.908 49.0827 100.121 46.4574C96.4901 43.0416 91.1996 42.8781 87.3094 46.0772C85.9671 47.1813 84.6146 48.2788 83.3168 49.4297C82.4937 50.1569 81.9643 50.0835 81.2709 49.2128C78.9382 46.264 77.613 42.8881 76.626 39.3555V37.0371C78.0775 35.7595 79.7101 35.0289 81.7354 35.2791C83.1802 35.4592 84.1945 36.2732 85.2465 37.1405C89.1127 40.3229 93.7304 40.4396 97.7162 37.5141C98.7135 36.7836 99.6664 35.9963 100.688 35.3058C103.399 33.4744 105.961 33.5745 108.475 35.6094C110.087 36.9137 111.695 38.228 113.219 39.6257C114.401 40.7098 114.933 39.7057 115.5 39.0352C116.074 38.3581 117.29 37.7176 115.944 36.6301C114.069 35.1157 112.31 33.4578 110.37 32.03C106.74 29.3514 101.992 29.3947 98.3344 32.0133C97.238 32.7973 96.2066 33.6679 95.1 34.4351C92.7433 36.0697 90.0247 36.0664 87.9173 34.1416C84.5532 31.0726 80.8269 30.4855 76.6191 32.0667V30.7424H76.6294Z" fill="white"/>
<path d="M97.0677 58.2328C93.3312 57.4656 89.7552 56.3314 86.5926 54.1431C85.5543 53.4259 85.281 52.9189 86.4218 52.0649C87.6309 51.1575 88.7238 50.1101 89.8987 49.156C92.2314 47.268 95.1994 47.2179 97.2692 49.3429C101.258 53.4392 107.034 53.3025 110.723 50.2068C112.417 48.7858 114.493 48.5056 116.628 49.3862C118.185 50.03 118.277 50.427 117.116 51.5745C113.67 54.9804 109.466 56.9952 104.684 57.9459C104.298 58.0227 103.922 58.1361 103.54 58.2295H97.0677V58.2328Z" fill="white"/>
<path d="M182.606 38.1253C179.662 38.1921 176.485 38.0486 173.309 38.2955C172.11 38.3889 171.909 38.8125 172.059 39.8433C172.527 43.0557 174.702 45.3674 178.029 46.0679C181.711 46.8452 184.925 45.6209 186.725 42.7555C187.316 41.8148 190.789 41.191 191.653 41.8748C192.193 42.3018 191.858 42.7855 191.704 43.2325C190.635 46.3615 188.542 48.6165 185.338 49.674C179.846 51.4886 174.569 51.1551 170.382 46.8685C165.976 42.3585 165.594 36.8744 167.708 31.2702C170.611 23.5845 180.908 20.8892 187.514 25.983C191.117 28.7617 192.094 32.6613 192.101 36.9078C192.101 37.9752 191.373 38.132 190.489 38.1287C187.934 38.1187 185.382 38.1253 182.599 38.1253H182.606ZM179.16 34.6294C181.028 34.6294 182.896 34.6394 184.761 34.6294C186.578 34.6161 186.855 34.2525 186.373 32.5645C185.516 29.5456 182.493 27.6175 179.05 27.891C175.485 28.1746 172.581 30.5797 172.178 33.5286C172.042 34.526 172.622 34.6294 173.384 34.6294C175.307 34.6294 177.233 34.6294 179.156 34.6294H179.16Z" fill="white"/>
<path d="M143.999 42.2614C145.191 42.0312 146.209 42.3481 146.629 43.9726C146.899 45.0201 147.849 45.7073 148.935 46.0108C150.714 46.5079 152.531 46.5112 154.3 45.9808C155.865 45.5138 156.838 44.433 156.835 42.8251C156.835 41.2539 155.8 40.2832 154.297 39.8796C151.947 39.2491 149.543 38.8021 147.22 38.0949C143.06 36.824 141.144 33.685 141.964 29.6953C142.364 27.7572 143.433 26.2094 145.185 25.2186C149.211 22.9469 153.361 22.7768 157.528 24.835C159.758 25.9392 160.909 27.8606 161.418 30.1857C161.637 31.1931 161.343 31.8102 160.161 31.7902C159.482 31.7769 158.799 31.7669 158.119 31.8036C157.091 31.8603 156.449 31.6001 156.169 30.4726C155.711 28.6212 154.212 27.8439 152.388 27.6571C150.581 27.4737 148.846 27.6638 147.596 29.1616C146.243 30.7828 146.8 32.871 148.853 33.8217C150.502 34.5856 152.326 34.8225 154.072 35.2895C155.11 35.5664 156.165 35.7965 157.176 36.1468C160.055 37.1475 161.845 39.0223 161.954 42.1212C162.064 45.2102 160.807 47.612 157.951 49.0564C153.812 51.1446 149.584 51.2647 145.355 49.2999C143.596 48.4827 142.384 47.1183 141.646 45.3637C140.57 42.8051 140.939 42.258 143.993 42.2647L143.999 42.2614Z" fill="white"/>
<path d="M198.478 36.9602C198.478 33.2674 198.516 29.578 198.458 25.8853C198.437 24.6143 198.891 24.1306 200.213 24.0973C203.769 24.0039 203.769 23.9605 203.769 27.4331C203.769 34.2081 203.772 40.9865 203.769 47.7616C203.769 49.9632 203.721 49.9966 201.511 50.0133C201.057 50.0133 200.603 49.9832 200.152 50.0133C198.912 50.1033 198.447 49.5696 198.465 48.362C198.512 44.5625 198.482 40.7597 198.482 36.9569L198.478 36.9602Z" fill="white"/>
<path d="M204.457 15.1307C204.45 16.9854 202.893 18.5032 201.004 18.4965C199.231 18.4898 197.551 16.8153 197.551 15.0506C197.551 13.1992 199.081 11.7682 201.062 11.7715C203.015 11.7715 204.46 13.2059 204.453 15.1307H204.457Z" fill="white"/>
</svg>
