<svg width="281" height="70" viewBox="0 0 281 70" fill="none" xmlns="http://www.w3.org/2000/svg">
<path d="M111.003 13.9531H70.781C70.5329 13.9531 70.295 14.0516 70.1197 14.2271C69.9442 14.4024 69.8457 14.6403 69.8457 14.8886V55.1109C69.8457 55.3589 69.9442 55.5968 70.1197 55.7722C70.295 55.9477 70.5329 56.0461 70.781 56.0461H111.003C111.251 56.0461 111.489 55.9477 111.665 55.7722C111.84 55.5968 111.939 55.3589 111.939 55.1109V14.8886C111.939 14.6403 111.84 14.4024 111.665 14.2271C111.489 14.0516 111.251 13.9531 111.003 13.9531ZM97.9077 41.0798C97.9077 41.3278 97.8092 41.5658 97.6337 41.7413C97.4583 41.9166 97.2204 42.0153 96.9724 42.0153H84.8121C84.564 42.0153 84.3261 41.9166 84.1506 41.7413C83.9752 41.5658 83.8768 41.3278 83.8768 41.0798V28.9195C83.8768 28.6714 83.9752 28.4335 84.1506 28.2582C84.3261 28.0827 84.564 27.9842 84.8121 27.9842H96.9724C97.2204 27.9842 97.4583 28.0827 97.6337 28.2582C97.8092 28.4335 97.9077 28.6714 97.9077 28.9195V41.0798Z" fill="white"/>
<path d="M195.215 27.9883H183.055C182.538 27.9883 182.119 28.407 182.119 28.9236V41.0839C182.119 41.6005 182.538 42.0194 183.055 42.0194H195.215C195.731 42.0194 196.15 41.6005 196.15 41.0839V28.9236C196.15 28.407 195.731 27.9883 195.215 27.9883Z" fill="white"/>
<path d="M181.178 13.957H169.018C168.501 13.957 168.082 14.3757 168.082 14.8925V27.0526C168.082 27.5692 168.501 27.9881 169.018 27.9881H181.178C181.694 27.9881 182.113 27.5692 182.113 27.0526V14.8925C182.113 14.3757 181.694 13.957 181.178 13.957Z" fill="white"/>
<path d="M209.238 13.957H197.078C196.561 13.957 196.143 14.3757 196.143 14.8925V27.0526C196.143 27.5692 196.561 27.9881 197.078 27.9881H209.238C209.755 27.9881 210.174 27.5692 210.174 27.0526V14.8925C210.174 14.3757 209.755 13.957 209.238 13.957Z" fill="white"/>
<path d="M181.178 42.0176H169.018C168.501 42.0176 168.082 42.4363 168.082 42.9529V55.1132C168.082 55.6298 168.501 56.0487 169.018 56.0487H181.178C181.694 56.0487 182.113 55.6298 182.113 55.1132V42.9529C182.113 42.4363 181.694 42.0176 181.178 42.0176Z" fill="white"/>
<path d="M209.238 42.0176H197.078C196.561 42.0176 196.143 42.4363 196.143 42.9529V55.1132C196.143 55.6298 196.561 56.0487 197.078 56.0487H209.238C209.755 56.0487 210.174 55.6298 210.174 55.1132V42.9529C210.174 42.4363 209.755 42.0176 209.238 42.0176Z" fill="white"/>
<path d="M160.111 13.9551H147.951C147.435 13.9551 147.016 14.3738 147.016 14.8905V27.0507C147.016 27.5673 147.435 27.9861 147.951 27.9861H160.111C160.628 27.9861 161.047 27.5673 161.047 27.0507V14.8905C161.047 14.3738 160.628 13.9551 160.111 13.9551Z" fill="white"/>
<path d="M160.111 42.0156H147.951C147.435 42.0156 147.016 42.4343 147.016 42.9509V55.1112C147.016 55.6278 147.435 56.0467 147.951 56.0467H160.111C160.628 56.0467 161.047 55.6278 161.047 55.1112V42.9509C161.047 42.4343 160.628 42.0156 160.111 42.0156Z" fill="white"/>
<path d="M147.017 28.9089C147.017 28.6609 146.919 28.423 146.743 28.2477C146.568 28.0721 146.33 27.9737 146.082 27.9737H132.986V14.8886C132.986 14.6403 132.887 14.4024 132.712 14.2271C132.537 14.0516 132.299 13.9531 132.051 13.9531H119.891C119.642 13.9531 119.404 14.0516 119.229 14.2271C119.054 14.4024 118.955 14.6403 118.955 14.8886V55.0898C118.955 55.3379 119.054 55.5758 119.229 55.7511C119.404 55.9266 119.642 56.0251 119.891 56.0251H132.051C132.299 56.0251 132.537 55.9266 132.712 55.7511C132.887 55.5758 132.986 55.3379 132.986 55.0898V42.0047H146.082C146.33 42.0047 146.568 41.9061 146.743 41.7307C146.919 41.5552 147.017 41.3173 147.017 41.0693V28.9089Z" fill="white"/>
</svg>
