<svg width="281" height="70" viewBox="0 0 281 70" fill="none" xmlns="http://www.w3.org/2000/svg">
<path d="M112.011 50.39V19.6159H122.077C125.415 19.6159 127.928 20.3077 129.612 21.6913C131.295 23.0692 132.137 25.1158 132.137 27.8312C132.137 29.2667 131.733 30.5465 130.909 31.6477C130.096 32.7603 128.983 33.6193 127.571 34.2247C129.237 34.6859 130.551 35.5737 131.52 36.8709C132.488 38.1795 132.961 39.7303 132.961 41.5233C132.961 44.2848 132.068 46.4525 130.275 48.0263C128.487 49.606 125.962 50.39 122.693 50.39H112.011ZM116.075 36.0637V47.0578H122.768C124.659 47.0578 126.153 46.5735 127.242 45.5992C128.332 44.6249 128.879 43.2817 128.879 41.5809C128.879 37.9028 126.867 36.0637 122.832 36.0637H116.075ZM116.075 32.7315H122.198C123.973 32.7315 125.392 32.2818 126.464 31.394C127.525 30.5062 128.061 29.307 128.061 27.785C128.061 26.0901 127.565 24.8621 126.579 24.0954C125.593 23.3228 124.089 22.9424 122.077 22.9424H116.075V32.7315ZM155.947 42.3419H143.044L140.15 50.3958H135.965L147.72 19.6159H151.271L163.043 50.3958H158.881L155.947 42.3419ZM144.278 39.0097H154.747L149.501 24.6258L144.278 39.0097ZM176.257 36.6748C172.781 35.6717 170.25 34.438 168.659 32.9794C167.073 31.5208 166.278 29.7164 166.278 27.5775C166.278 25.1562 167.252 23.1499 169.183 21.5587C171.126 19.9733 173.64 19.1777 176.736 19.1777C178.851 19.1777 180.742 19.5871 182.391 20.4057C184.052 21.2186 185.326 22.3485 186.237 23.7898C187.147 25.2253 187.603 26.7992 187.603 28.4999H183.527C183.527 26.6378 182.933 25.1734 181.751 24.1069C180.569 23.0461 178.892 22.51 176.736 22.51C174.735 22.51 173.179 22.9481 172.06 23.8302C170.936 24.718 170.377 25.9344 170.377 27.5026C170.377 28.7593 170.901 29.8259 171.974 30.6907C173.034 31.5554 174.845 32.351 177.404 33.0716C179.958 33.7923 181.965 34.5879 183.406 35.4526C184.847 36.3174 185.919 37.3263 186.617 38.4908C187.315 39.6439 187.661 41.0102 187.661 42.5725C187.661 45.0688 186.686 47.0693 184.743 48.5683C182.795 50.0672 180.2 50.8167 176.943 50.8167C174.827 50.8167 172.85 50.4131 171.022 49.606C169.195 48.7931 167.782 47.6804 166.785 46.2737C165.788 44.8671 165.298 43.2644 165.298 41.4772H169.374C169.374 43.3335 170.06 44.7979 171.437 45.8702C172.81 46.9425 174.643 47.4844 176.943 47.4844C179.088 47.4844 180.725 47.0463 181.867 46.17C183.014 45.2994 183.585 44.1061 183.585 42.6071C183.585 41.0967 183.048 39.9321 181.999 39.1077C180.956 38.2948 179.036 37.4762 176.257 36.6748ZM210.277 36.1906H196.942V47.0578H212.433V50.39H192.884V19.6159H212.226V22.9481H196.942V32.8583H210.277V36.1906Z" fill="white"/>
<path d="M86.657 53.4211C96.8266 53.4211 105.076 45.177 105.076 35.0016C105.076 24.8319 96.8324 16.582 86.657 16.582C77.012 16.582 69.0907 24.0075 68.3066 33.4507H92.6469V36.5466H68.3066C69.0907 45.9956 77.012 53.4211 86.657 53.4211Z" fill="white"/>
</svg>
