<svg width="281" height="70" viewBox="0 0 281 70" fill="none" xmlns="http://www.w3.org/2000/svg">
<path d="M22.32 19.8681L34.02 13L45.72 19.8681L41.33 22.2826L34.02 18.0116L26.52 22.2826L22.32 19.8681ZM45.54 28.4L41.33 25.9855L34.02 30.2565L26.52 25.9855L22.31 28.4V33.4116L29.63 37.6826V46.4072L33.84 49.0043L38.05 46.4072V37.8753L45.37 33.6043V28.4101H45.54V28.4ZM45.54 42.1362V37.1246L41.33 39.7217V44.5405L45.54 42.1362ZM48.65 43.8L41.34 48.071V53.0826L53.05 46.2145V32.4884L48.66 35.2681L48.65 43.8ZM44.44 24.1391L48.65 26.7362V31.7478L52.86 29.1507V24.1391L48.65 21.542L44.44 24.1391ZM29.63 49.9275V54.9391L33.84 57.5362L38.05 54.9391V49.9275L33.84 52.5246L29.63 49.9275ZM22.31 42.1362L26.52 44.5507V39.5391L22.31 36.942V42.1362ZM29.63 24.1391L33.84 26.7362L38.23 24.1391L34.02 21.542L29.63 24.1391ZM19.21 26.7362L23.6 24.1391L19.21 21.542L15 24.1391V29.1507L19.21 31.7478V26.7362ZM19.21 35.2681L15 32.671V46.3971L26.71 53.2652V48.2536L19.39 43.9826V35.2579L19.21 35.2681Z" fill="white"/>
<path d="M86.6895 41.0205C86.6895 37.6828 84.8595 36.0089 82.1195 34.893C83.9495 33.9698 85.4095 32.2959 85.4095 29.5162C85.4095 25.6205 82.2995 23.0234 77.3595 23.0234H66.0195V47.8886H77.7195C83.0295 47.6959 86.6895 45.4741 86.6895 41.0205ZM79.9195 30.4394C79.9195 32.2959 78.4595 33.0365 76.0795 33.0365H71.1395V27.6597H76.4395C78.8295 27.6597 79.9195 28.593 79.9195 30.4394ZM81.3895 40.2799C81.3895 42.1365 79.9295 43.0596 77.5495 43.0596H71.1495V37.6828H77.3695C80.1095 37.4901 81.3895 38.606 81.3895 40.2799Z" fill="white"/>
<path d="M113.209 47.6959V23.0234H107.899V38.2408L96.3792 23.0234H91.4492V47.8886H96.7492V32.1133L108.639 47.8886H113.209V47.6959Z" fill="white"/>
<path d="M140.09 41.0205C140.09 37.6828 138.26 36.0089 135.52 34.893C137.35 33.9698 138.81 32.2959 138.81 29.5162C138.81 25.6205 135.7 23.0234 130.76 23.0234H119.42V47.8886H131.12C136.43 47.6959 140.09 45.4741 140.09 41.0205ZM133.51 30.4394C133.51 32.2959 132.05 33.0365 129.67 33.0365H124.73V27.6597H130.03C132.23 27.6597 133.51 28.593 133.51 30.4394ZM134.79 40.2799C134.79 42.1365 133.33 43.0596 130.95 43.0596H124.55V37.6828H130.77C133.51 37.4901 134.79 38.606 134.79 40.2799Z" fill="white"/>
<path d="M172.458 43.434L169.718 40.6543C167.708 42.6934 165.698 43.8094 162.768 43.8094C158.008 43.8094 154.718 39.9137 154.718 34.9021C154.718 30.0731 158.198 26.1876 162.768 26.1876C165.508 26.1876 167.708 27.4862 169.538 29.3427L172.278 26.005C169.898 23.7833 167.158 22.1094 162.768 22.1094C155.448 22.1094 150.148 27.8615 150.148 34.9123C150.148 42.1456 155.448 47.7151 162.588 47.7151C167.158 47.6949 169.898 46.0311 172.458 43.434Z" fill="white"/>
<path d="M193.31 36.9416V47.33H197.52V22.4648H193.31V32.8532H181.61V22.4648H177.4V47.33H181.61V36.9416H193.31Z" fill="white"/>
<path d="M216.9 22.4648H212.88L202.09 47.5126H206.48L209.04 41.5779H220.56L223.12 47.5126H227.69L216.9 22.4648ZM219.1 37.4895H210.69L214.9 27.659L219.1 37.4895Z" fill="white"/>
<path d="M232.449 22.4648V47.33H236.649V22.4648H232.449Z" fill="white"/>
<path d="M260.61 39.7213L247.44 22.6475H243.6V47.5126H247.81V29.6982L261.34 47.33H265V22.4648H260.79V39.7213H260.61Z" fill="white"/>
</svg>
