<svg width="111" height="30" viewBox="0 0 111 30" fill="none" xmlns="http://www.w3.org/2000/svg">
<path d="M34.2948 12.2204C35.6036 13.143 37.2069 13.6859 38.9386 13.6859V10.3997C38.6109 10.3997 38.284 10.366 37.9634 10.299V12.8858C36.2319 12.8858 34.6287 12.3429 33.3196 11.4203V18.1265C33.3196 21.4813 30.5619 24.2007 27.1603 24.2007C25.8911 24.2007 24.7114 23.8223 23.7314 23.1734C24.8499 24.3012 26.4097 25.0008 28.1353 25.0008C31.5371 25.0008 34.295 22.2814 34.295 18.9265V12.2204H34.2948ZM35.4979 8.90498C34.829 8.18434 34.3898 7.25304 34.2948 6.22346V5.80078H33.3706C33.6033 7.10938 34.3967 8.22737 35.4979 8.90498ZM25.883 20.599C25.5092 20.1158 25.3073 19.5246 25.3082 18.9168C25.3082 17.3825 26.5696 16.1384 28.1257 16.1384C28.4157 16.1383 28.704 16.1821 28.9804 16.2686V12.909C28.6574 12.8653 28.3314 12.8468 28.0056 12.8536V15.4686C27.729 15.3821 27.4406 15.3382 27.1505 15.3384C25.5943 15.3384 24.333 16.5824 24.333 18.1169C24.333 19.202 24.9635 20.1414 25.883 20.599Z" fill="white" fill-opacity="0.5"/>
<path d="M37.9626 10.2982V9.59874C37.091 9.60004 36.2365 9.35932 35.4971 8.90411C36.1517 9.61089 37.0136 10.0982 37.9626 10.2982ZM33.3698 5.79999C33.3476 5.67493 33.3306 5.54904 33.3188 5.42268V5H29.967V18.1257C29.9616 19.6556 28.7025 20.8946 27.1495 20.8946C26.6936 20.8946 26.2631 20.7879 25.8819 20.5983C26.3968 21.2645 27.2097 21.6946 28.1248 21.6946C29.6775 21.6946 30.9369 20.4558 30.9423 18.9256V5.79999H33.3698ZM28.0048 12.8528V12.1082C27.7247 12.0705 27.4423 12.0515 27.1596 12.0517C23.7577 12.0516 21 14.7712 21 18.1257C21 20.2288 22.0838 22.0822 23.7308 23.1725C22.6445 22.0775 21.9752 20.5787 21.9752 18.9255C21.9752 15.6138 24.6628 12.9209 28.0048 12.8528Z" fill="white" fill-opacity="0.5"/>
<path d="M42.5693 10.873V13.0594H45.1649V21.3904H47.7615V13.1184H49.8743L50.5987 10.8731L42.5693 10.873ZM63.8202 10.873V13.0594H66.4157V21.3904H69.0123V13.1184H71.1251L71.8494 10.8731L63.8202 10.873ZM51.0821 12.1138C51.0821 11.4287 51.6488 10.873 52.3489 10.873C53.0496 10.873 53.6169 11.4287 53.6169 12.1138C53.6169 12.7989 53.05 13.3545 52.3489 13.3545C51.6488 13.3542 51.0821 12.7989 51.0821 12.1138ZM51.0821 14.2411H53.6169V21.3904H51.0821V14.2411ZM54.7038 10.873V21.3903H57.2396V18.6726L58.0245 17.963L60.4994 21.4493H63.2159L59.6537 16.368L62.8535 13.2952H59.7747L57.2396 15.7767V10.873H54.7038ZM82.0517 10.873V21.3903H84.5878V18.6726L85.3724 17.963L87.848 21.4493H90.5649L87.0026 16.368L90.2023 13.2952H87.1236L84.5878 15.7767V10.873H82.0517Z" fill="white" fill-opacity="0.5"/>
<path d="M76.1354 21.4491C78.5694 21.4491 80.5429 19.5179 80.5429 17.1358C80.5429 14.7538 78.5694 12.8223 76.1354 12.8223H76.0753C73.6412 12.8223 71.668 14.7538 71.668 17.1358C71.668 19.5179 73.6412 21.4491 76.0753 21.4491H76.1354ZM73.9621 17.1358C73.9621 15.9771 74.9221 15.0385 76.1059 15.0385C77.2888 15.0385 78.2487 15.9771 78.2487 17.1358C78.2487 18.2945 77.2888 19.2336 76.1059 19.2336C74.9221 19.2334 73.9621 18.2945 73.9621 17.1358Z" fill="white" fill-opacity="0.5"/>
</svg>
