<svg width="111" height="30" viewBox="0 0 111 30" fill="none" xmlns="http://www.w3.org/2000/svg">
<g opacity="0.5">
<path d="M11.3079 13.4256L15.1919 9.54808L19.0781 13.4277L21.3381 11.1714L15.1919 5.03516L9.04785 11.1693L11.3079 13.4256Z" fill="white"/>
<path d="M9.71115 15.0199L7.45117 12.7637L5.19108 15.02L7.45106 17.2763L9.71115 15.0199Z" fill="white"/>
<path d="M11.3083 16.6113L15.1923 20.4888L19.0783 16.6094L21.3396 18.8644L21.3385 18.8657L15.1923 25.0017L9.04808 18.8677L9.04492 18.8646L11.3083 16.6113Z" fill="white"/>
<path d="M22.9333 17.2759L25.1934 15.0195L22.9334 12.7633L20.6733 15.0196L22.9333 17.2759Z" fill="white"/>
<path d="M17.4843 15.0181H17.4853L15.1919 12.7285L13.4971 14.4205H13.4969L13.3023 14.615L12.9006 15.016L12.8975 15.0192L12.9006 15.0225L15.1919 17.31L17.4853 15.0205L17.4864 15.0192L17.4843 15.0181Z" fill="white"/>
<path d="M28.7158 9.87305H33.6313C34.8512 9.87305 35.7737 10.1856 36.399 10.8108C36.8828 11.2949 37.1247 11.895 37.1247 12.6108V12.6411C37.1247 12.9436 37.0872 13.2109 37.0119 13.4427C36.9367 13.6749 36.8362 13.8838 36.7106 14.0704C36.5854 14.2571 36.4397 14.421 36.2742 14.562C36.1085 14.7033 35.9304 14.8244 35.7398 14.925C36.353 15.1572 36.8358 15.4721 37.1877 15.8705C37.5395 16.269 37.7156 16.8211 37.7156 17.5269V17.557C37.7156 18.0411 37.6224 18.4646 37.4359 18.8278C37.2493 19.1907 36.982 19.4933 36.634 19.7354C36.286 19.9774 35.8676 20.1588 35.3785 20.2799C34.8895 20.4009 34.3475 20.4613 33.7527 20.4613H28.7158V9.87305ZM33.1398 14.1537C33.6551 14.1537 34.0642 14.0657 34.3671 13.889C34.67 13.7126 34.8215 13.4276 34.8215 13.0344V13.0041C34.8215 12.6514 34.6901 12.3817 34.4276 12.195C34.1649 12.0084 33.7861 11.915 33.2913 11.915H30.9883V14.1537H33.1398ZM33.7611 18.4195C34.2762 18.4195 34.68 18.3264 34.9732 18.1397C35.266 17.9531 35.4126 17.6631 35.4126 17.2698V17.2397C35.4126 16.8867 35.2762 16.6069 35.0035 16.4C34.7307 16.1936 34.2914 16.0901 33.6853 16.0901H30.9883V18.4196L33.7611 18.4195Z" fill="white"/>
<path d="M40.6426 9.87305H42.9761V20.4616H40.6426V9.87305Z" fill="white"/>
<path d="M46.5107 9.87305H48.6619L53.6317 16.3926V9.87305H55.9347V20.4616H53.95L48.8136 13.7304V20.4616H46.5107V9.87305Z" fill="white"/>
<path d="M62.9999 9.80078H65.1512L69.6969 20.4649H67.2574L66.2876 18.0901H61.8028L60.8332 20.4649H58.4541L62.9999 9.80078ZM65.4544 16.0327L64.0452 12.5991L62.6364 16.0327H65.4544Z" fill="white"/>
<path d="M72.2148 9.87305H74.3665L79.336 16.3926V9.87305H81.6389V20.4616H79.6543L74.5178 13.7304V20.4616H72.2148V9.87305Z" fill="white"/>
<path d="M90.0371 20.6448C89.2589 20.6448 88.537 20.5035 87.8702 20.2214C87.2035 19.9392 86.6278 19.5533 86.143 19.0641C85.6581 18.5751 85.2791 17.9977 85.0068 17.3322C84.734 16.6665 84.5977 15.9556 84.5977 15.1992V15.1691C84.5977 14.4127 84.734 13.7045 85.0068 13.0438C85.2793 12.3834 85.6581 11.8035 86.143 11.3043C86.6277 10.8052 87.2087 10.4117 87.8852 10.1244C88.5618 9.83703 89.3098 9.69336 90.1279 9.69336C90.6225 9.69336 91.0744 9.73389 91.4836 9.81432C91.8927 9.89522 92.2638 10.0059 92.5974 10.1471C92.9308 10.2884 93.2386 10.4598 93.5218 10.6614C93.8041 10.8632 94.0669 11.085 94.3094 11.327L92.8249 13.0363C92.4102 12.6633 91.9887 12.3706 91.5595 12.1589C91.13 11.9473 90.6479 11.8413 90.1126 11.8413C89.668 11.8413 89.2564 11.9271 88.8779 12.0985C88.4991 12.27 88.1732 12.5068 87.9004 12.8093C87.6279 13.1118 87.4158 13.4624 87.264 13.8606C87.1128 14.2591 87.0371 14.6851 87.0371 15.1388V15.1689C87.0371 15.6226 87.1128 16.0514 87.264 16.4545C87.4158 16.8581 87.6249 17.2109 87.893 17.5134C88.1604 17.8159 88.4838 18.0556 88.8624 18.2321C89.2415 18.4087 89.6581 18.4967 90.1126 18.4967C90.7188 18.4967 91.231 18.3858 91.6502 18.1639C92.0695 17.9423 92.4863 17.6397 92.9004 17.2563L94.3852 18.7539C94.1124 19.0464 93.8292 19.3087 93.5368 19.5404C93.2438 19.7725 92.9231 19.9716 92.5745 20.1381C92.2262 20.3043 91.8445 20.4306 91.4308 20.5161C91.0163 20.6017 90.5519 20.6448 90.0371 20.6448Z" fill="white"/>
<path d="M97.1309 9.87305H105.116V11.9455H99.434V14.0934H104.434V16.1657H99.434V18.3893H105.192V20.4616H97.1309V9.87305Z" fill="white"/>
</g>
</svg>
