<svg width="150" height="40" viewBox="0 0 150 40" fill="none" xmlns="http://www.w3.org/2000/svg">
<path d="M12.4207 19.3031H0L13.0675 13.1699L19.1162 0L19.1304 12.5114C19.1352 16.2605 16.1299 19.3079 12.416 19.3079L12.4207 19.3031Z" fill="white"/>
<path d="M27.1712 19.3031H39.592L26.5245 13.1699L20.4758 0L20.4616 12.5114C20.4568 16.2605 23.4621 19.3079 27.176 19.3079L27.1712 19.3031Z" fill="white"/>
<path d="M27.1712 20.6969H39.592L26.5245 26.8301L20.4758 40L20.4616 27.4886C20.4568 23.7395 23.4621 20.6921 27.176 20.6921L27.1712 20.6969Z" fill="white"/>
<path d="M12.4207 20.6969H0L13.0675 26.8301L19.1162 40L19.1304 27.4886C19.1352 23.7395 16.1299 20.6921 12.416 20.6921L12.4207 20.6969Z" fill="white"/>
<path d="M61.2285 28.7526V32.8767H46.3969V6.64258H50.6623V28.7526H61.2285Z" fill="white"/>
<path d="M64.0057 24.1768V6.64258H68.2712V23.9173C68.2712 26.9886 70.0116 29.166 73.8301 29.166C77.6486 29.166 79.3938 26.9935 79.3938 23.9173V6.64258H83.6592V24.1816C83.6592 29.8389 79.5079 33.3621 73.8349 33.3621C68.1618 33.3621 64.0105 29.8389 64.0105 24.1816L64.0057 24.1768Z" fill="white"/>
<path d="M113.318 32.8719H109.053V14.1744L101.154 27.3636H100.636L92.7373 14.136V32.8719H88.4718V6.64258H93.0701L100.893 19.7596L108.753 6.64258H113.313V32.8767L113.318 32.8719Z" fill="white"/>
<path d="M122.633 6.64258V32.8767H118.368V6.64258H122.633Z" fill="white"/>
<path d="M143.585 27.5896H132.539L130.722 32.872H126.086L135.501 6.63794H140.618L150 32.872H145.402L143.585 27.5896ZM142.178 23.5425L138.064 11.6992L133.951 23.5425H142.183H142.178Z" fill="white"/>
</svg>
