<svg width="111" height="30" viewBox="0 0 111 30" fill="none" xmlns="http://www.w3.org/2000/svg">
<g opacity="0.5">
<path d="M53.0039 19.0833C51.8762 20.1851 50.5031 20.737 48.8848 20.737C47.2665 20.737 45.8935 20.1851 44.7658 19.0833C43.6381 17.9815 43.0742 16.6215 43.0742 15.0052C43.0742 13.389 43.6381 12.0289 44.7658 10.9271C45.8935 9.82533 47.2665 9.27344 48.8848 9.27344C50.5031 9.27344 51.8742 9.82533 53.0039 10.9271C54.1316 12.0289 54.6954 13.389 54.6954 15.0052C54.6954 16.6215 54.1316 17.9815 53.0039 19.0833ZM46.5622 17.3665C47.1854 17.9756 47.9589 18.2791 48.8848 18.2791C49.8107 18.2791 50.5843 17.9756 51.2075 17.3665C51.8307 16.7575 52.1413 15.971 52.1413 15.0052C52.1413 14.0394 51.8307 13.253 51.2075 12.6439C50.5843 12.0349 49.8107 11.7313 48.8848 11.7313C47.9589 11.7313 47.1854 12.0368 46.5622 12.6439C45.939 13.253 45.6283 14.0394 45.6283 15.0052C45.6283 15.971 45.939 16.7575 46.5622 17.3665Z" fill="white"/>
<path d="M62.7391 20.5181L60.6321 16.8973H59.4194V20.5181H56.8652V9.49609H61.3345C62.3989 9.49609 63.303 9.86271 64.0488 10.5979C64.7927 11.3331 65.1666 12.226 65.1666 13.2746C65.1666 13.9467 64.9767 14.5676 64.6008 15.1411C64.2229 15.7127 63.7244 16.1562 63.1091 16.4716L65.4871 20.5181H62.7411H62.7391ZM59.4194 11.8574V14.6917H61.3345C61.6866 14.6917 61.9854 14.5557 62.2366 14.2818C62.4859 14.0098 62.6125 13.6727 62.6125 13.2746C62.6125 12.8764 62.4879 12.5394 62.2366 12.2674C61.9873 11.9954 61.6866 11.8574 61.3345 11.8574H59.4194Z" fill="white"/>
<path d="M67.416 9.49609H69.9701V20.5181H67.416V9.49609Z" fill="white"/>
<path d="M82.0703 19.0833C80.9426 20.1851 79.5696 20.737 77.9512 20.737C76.3329 20.737 74.9599 20.1851 73.8322 19.0833C72.7045 17.9815 72.1406 16.6215 72.1406 15.0052C72.1406 13.389 72.7045 12.0289 73.8322 10.9271C74.9599 9.82533 76.3329 9.27344 77.9512 9.27344C79.5696 9.27344 80.9406 9.82533 82.0703 10.9271C83.198 12.0289 83.7618 13.389 83.7618 15.0052C83.7618 16.6215 83.198 17.9815 82.0703 19.0833ZM75.6286 17.3665C76.2518 17.9756 77.0253 18.2791 77.9512 18.2791C78.8771 18.2791 79.6507 17.9756 80.2739 17.3665C80.8971 16.7575 81.2077 15.971 81.2077 15.0052C81.2077 14.0394 80.8971 13.253 80.2739 12.6439C79.6507 12.0349 78.8771 11.7313 77.9512 11.7313C77.0253 11.7313 76.2518 12.0368 75.6286 12.6439C75.0054 13.253 74.6947 14.0394 74.6947 15.0052C74.6947 15.971 75.0054 16.7575 75.6286 17.3665Z" fill="white"/>
<path d="M92.1587 9.49609H94.7128V20.5181H92.7977L88.4887 14.5341V20.5181H85.9346V9.49609H87.8497L92.1587 15.4802V9.49609Z" fill="white"/>
<path d="M27.1047 5C24.5259 5 22.1725 5.95984 20.3866 7.53329C18.3092 9.36449 17.0811 12.0286 17.0811 15.0004C17.0811 17.9723 18.3384 20.6941 20.4527 22.5272C22.2289 24.0661 24.557 24.9201 27.1027 24.9201C31.7861 24.9201 35.7272 21.8444 36.8699 17.5626C37.0895 16.7451 37.2041 15.8853 37.2041 14.9985C37.2061 9.47798 32.684 5 27.1047 5ZM27.1047 20.6883C23.9759 20.6883 21.3583 18.0993 21.3583 15.0004C21.3583 11.9016 23.974 9.31256 27.1047 9.31256C30.2354 9.31256 32.7714 11.9016 32.7714 15.0004C32.7714 18.0993 30.2354 20.6883 27.1047 20.6883Z" fill="url(#paint0_linear_17_63)"/>
<path d="M32.1851 17.4811C31.2406 19.3738 29.2487 20.6645 26.9576 20.6087C23.9551 20.5356 21.5085 18.1101 21.4366 15.1382C21.3608 11.9778 23.926 9.39453 27.1014 9.39453C30.2767 9.39453 32.7681 11.9047 32.7681 15.0036C32.7681 10.3621 28.967 6.60156 24.2797 6.60156C22.8746 6.60156 21.5493 6.94203 20.3833 7.54025C18.3079 9.3676 17 12.0336 17 15.0016C17 17.9696 18.3079 20.6357 20.3833 22.4669C21.5513 23.0651 22.8746 23.4055 24.2797 23.4055C28.0225 23.4055 31.1998 21.0069 32.3289 17.6773C32.3619 17.5811 32.2881 17.4811 32.1851 17.4811Z" fill="url(#paint1_linear_17_63)"/>
<path d="M36.945 17.0003C36.945 15.7961 35.9617 14.8594 34.7472 14.8594C33.7405 14.8594 32.8485 15.5191 32.5862 16.4328C32.5084 16.6963 32.4404 16.9118 32.3277 17.1753C32.1995 17.4792 32.0421 17.7678 31.8633 18.0409C30.2484 20.6896 27.312 22.4612 23.9579 22.4612C22.17 22.4612 20.5026 21.9572 19.0898 21.0858C20.936 23.4653 23.8393 25.0002 27.1041 25.0002C31.667 25.0002 35.5206 22.0111 36.776 17.8986C36.879 17.5735 36.947 17.3023 36.947 16.9983L36.945 17.0003Z" fill="url(#paint2_linear_17_63)"/>
<path d="M40.1699 10.8353C41.7755 10.8353 43.0771 9.54694 43.0771 7.95768C43.0771 6.36843 41.7755 5.08008 40.1699 5.08008C38.5643 5.08008 37.2627 6.36843 37.2627 7.95768C37.2627 9.54694 38.5643 10.8353 40.1699 10.8353Z" fill="url(#paint3_linear_17_63)"/>
</g>
<defs>
<linearGradient id="paint0_linear_17_63" x1="34.7031" y1="17.049" x2="26.3221" y2="14.7122" gradientUnits="userSpaceOnUse">
<stop stop-color="white"/>
<stop offset="0.45" stop-color="white"/>
<stop offset="0.81" stop-color="white"/>
<stop offset="1" stop-color="white"/>
</linearGradient>
<linearGradient id="paint1_linear_17_63" x1="30.5469" y1="9.4003" x2="18.9506" y2="20.3886" gradientUnits="userSpaceOnUse">
<stop stop-color="white"/>
<stop offset="1" stop-color="#8B77B9"/>
</linearGradient>
<linearGradient id="paint2_linear_17_63" x1="33.5248" y1="14.3496" x2="25.5286" y2="22.9622" gradientUnits="userSpaceOnUse">
<stop stop-color="#A090C6"/>
<stop offset="1" stop-color="white"/>
</linearGradient>
<linearGradient id="paint3_linear_17_63" x1="37.2627" y1="7.95768" x2="43.0771" y2="7.95768" gradientUnits="userSpaceOnUse">
<stop stop-color="white"/>
<stop offset="0.19" stop-color="white"/>
<stop offset="0.55" stop-color="white"/>
<stop offset="1" stop-color="white"/>
</linearGradient>
</defs>
</svg>
