<svg width="111" height="30" viewBox="0 0 111 30" fill="none" xmlns="http://www.w3.org/2000/svg">
<g opacity="0.5">
<path d="M45.502 20.0594V11.8914C45.502 11.7374 45.5549 11.6124 45.6607 11.5162C45.7665 11.4103 45.8964 11.3574 46.0503 11.3574H48.4603C49.2204 11.3574 49.8698 11.6124 50.4085 12.1223C50.9377 12.6226 51.2023 13.2575 51.2023 14.0272C51.2023 14.7872 50.9377 15.4174 50.4085 15.9177C49.8698 16.4276 49.2204 16.6825 48.4603 16.6825H46.5843V20.0594C46.5843 20.2807 46.4929 20.4346 46.3101 20.5212C46.1369 20.6078 45.9589 20.6078 45.7761 20.5212C45.5934 20.4346 45.502 20.2807 45.502 20.0594ZM46.5843 12.4398V15.6002H48.4748C48.927 15.6002 49.3214 15.4414 49.6581 15.124C49.9756 14.8065 50.1344 14.4313 50.1344 13.9983C50.1344 13.5654 49.9708 13.1902 49.6437 12.8727C49.3358 12.5841 48.9414 12.4398 48.4603 12.4398H46.5843Z" fill="white"/>
<path d="M54.7847 20.68C53.8322 20.68 53.0193 20.3432 52.3458 19.6698C51.6724 18.9963 51.3356 18.1882 51.3356 17.2453C51.3356 16.2833 51.6724 15.4703 52.3458 14.8065C53.0193 14.133 53.8322 13.7963 54.7847 13.7963C55.7275 13.7963 56.5357 14.1282 57.2091 14.792C57.873 15.4366 58.2097 16.24 58.2193 17.202V20.0306C58.2193 20.1941 58.1664 20.3288 58.0606 20.4346C57.9547 20.5405 57.82 20.5934 57.6565 20.5934C57.5026 20.5934 57.3775 20.5405 57.2813 20.4346C57.1851 20.3288 57.137 20.1941 57.137 20.0306L57.1225 19.6698C56.4491 20.3432 55.6698 20.68 54.7847 20.68ZM54.7847 19.5976C55.4389 19.5976 55.9969 19.3619 56.4587 18.8905C56.9109 18.4383 57.137 17.8899 57.137 17.2453C57.137 16.5815 56.9109 16.0235 56.4587 15.5713C56.0161 15.1095 55.4581 14.8786 54.7847 14.8786C54.1305 14.8786 53.5725 15.1095 53.1107 15.5713C52.6585 16.0427 52.4324 16.6007 52.4324 17.2453C52.4324 17.8803 52.6633 18.4287 53.1251 18.8905C53.5677 19.3619 54.1209 19.5976 54.7847 19.5976Z" fill="white"/>
<path d="M60.5698 20.4346C60.4736 20.5405 60.3485 20.5934 60.1946 20.5934C60.0406 20.5934 59.9108 20.5405 59.8049 20.4346C59.6991 20.3288 59.6462 20.1989 59.6462 20.045V14.3302C59.6366 14.109 59.7232 13.955 59.9059 13.8684C60.0984 13.7722 60.286 13.7722 60.4688 13.8684C60.6612 13.955 60.7478 14.109 60.7285 14.3302V14.8209C61.4405 14.1378 62.2727 13.7963 63.2251 13.7963H63.2684C63.4416 13.7963 63.5763 13.8492 63.6725 13.955C63.7783 14.0512 63.8312 14.1763 63.8312 14.3302C63.8312 14.4938 63.7735 14.6285 63.6581 14.7343C63.5522 14.8305 63.4223 14.8786 63.2684 14.8786H63.2251C62.5517 14.8786 61.9648 15.124 61.4645 15.6146C60.9739 16.1053 60.7285 16.697 60.7285 17.3896V20.045C60.7285 20.1989 60.6756 20.3288 60.5698 20.4346Z" fill="white"/>
<path d="M64.5904 12.2377C64.5808 11.978 64.6818 11.7952 64.8935 11.6893C65.1148 11.5835 65.3361 11.5835 65.5573 11.6893C65.7786 11.7952 65.8796 11.978 65.8604 12.2377C65.8604 12.4109 65.7978 12.56 65.6728 12.6851C65.5573 12.8102 65.4082 12.8727 65.2254 12.8727C65.0522 12.8727 64.9031 12.8102 64.778 12.6851C64.653 12.56 64.5904 12.4109 64.5904 12.2377ZM64.6915 20.045V14.3302C64.6818 14.109 64.7684 13.955 64.9512 13.8684C65.1436 13.7722 65.3312 13.7722 65.514 13.8684C65.7065 13.955 65.793 14.109 65.7738 14.3302V20.045C65.793 20.2663 65.7065 20.425 65.514 20.5212C65.3312 20.6078 65.1436 20.6078 64.9512 20.5212C64.7684 20.425 64.6818 20.2663 64.6915 20.045Z" fill="white"/>
<path d="M70.6635 20.6655C69.7399 20.6655 68.951 20.3528 68.2968 19.7275V20.0594C68.2968 20.2807 68.2054 20.4346 68.0226 20.5212C67.8494 20.6078 67.6714 20.6078 67.4886 20.5212C67.3058 20.4346 67.2144 20.2807 67.2144 20.0594V11.8914C67.2144 11.6701 67.301 11.5162 67.4742 11.4296C67.657 11.343 67.8398 11.343 68.0226 11.4296C68.2054 11.5162 68.2968 11.6701 68.2968 11.8914V14.7343C68.9798 14.109 69.7687 13.7963 70.6635 13.7963C71.6159 13.7963 72.4241 14.133 73.0879 14.8065C73.7517 15.4703 74.0837 16.2833 74.0837 17.2453C74.0837 18.1882 73.7517 18.9963 73.0879 19.6698C72.4048 20.3336 71.5967 20.6655 70.6635 20.6655ZM72.3231 18.8905C72.7752 18.4479 73.0061 17.8996 73.0158 17.2453C73.0158 16.5719 72.7849 16.0139 72.3231 15.5713C71.8709 15.1095 71.3177 14.8786 70.6635 14.8786C70.0093 14.8786 69.4513 15.1095 68.9895 15.5713C68.5277 16.0139 68.2968 16.5719 68.2968 17.2453C68.2968 17.8707 68.5229 18.4191 68.975 18.8905C69.4368 19.3523 69.9948 19.5832 70.649 19.5832C71.3129 19.5832 71.8709 19.3523 72.3231 18.8905Z" fill="white"/>
<path d="M79.9258 20.0594V19.5255C79.3197 20.2374 78.6126 20.5934 77.8044 20.5934C76.9674 20.5934 76.3036 20.2903 75.8129 19.6842C75.3223 19.107 75.0673 18.3036 75.0481 17.2742V14.3302C75.0481 14.1763 75.101 14.0464 75.2068 13.9406C75.3126 13.8348 75.4425 13.7819 75.5965 13.7819C75.7504 13.7819 75.8803 13.8348 75.9861 13.9406C76.0919 14.0464 76.1448 14.1763 76.1448 14.3302V17.2886C76.1545 18.0006 76.3132 18.549 76.6211 18.9338C76.9289 19.3186 77.3667 19.511 77.9343 19.511C78.4827 19.511 78.9445 19.309 79.3197 18.9049C79.6949 18.5105 79.8969 18.0054 79.9258 17.3896V14.3447C79.9162 14.1234 80.0028 13.9695 80.1856 13.8829C80.3684 13.7867 80.5512 13.7867 80.734 13.8829C80.9264 13.9695 81.0178 14.1234 81.0081 14.3447V20.0594C81.0178 20.2807 80.9264 20.4346 80.734 20.5212C80.5512 20.6078 80.3636 20.6078 80.1711 20.5212C79.9883 20.4346 79.9066 20.2807 79.9258 20.0594Z" fill="white"/>
<path d="M84.4981 20.6655C83.9978 20.6655 83.5312 20.5693 83.0983 20.3769C82.6269 20.1652 82.2902 19.8622 82.0881 19.4677C82.04 19.3523 82.016 19.2513 82.016 19.1647C82.016 18.9915 82.0929 18.8616 82.2469 18.775C82.3238 18.7269 82.4152 18.7029 82.5211 18.7029C82.7135 18.7029 82.8722 18.7895 82.9973 18.9626C83.1512 19.2128 83.3532 19.4052 83.6034 19.5399C83.8535 19.6553 84.1518 19.7131 84.4981 19.7131C84.8637 19.7131 85.1668 19.6217 85.4073 19.4389C85.6863 19.2657 85.821 19.03 85.8114 18.7317C85.8017 18.4335 85.643 18.1882 85.3351 17.9958C85.1331 17.8611 84.7964 17.7312 84.3249 17.6061C83.6515 17.3945 83.156 17.1636 82.8385 16.9134C82.396 16.5863 82.1747 16.1726 82.1747 15.6723C82.1747 15.0951 82.4104 14.6285 82.8818 14.2725C83.3051 13.9454 83.8295 13.7819 84.4548 13.7819C84.8781 13.7819 85.2774 13.8636 85.6526 14.0272C86.0663 14.2196 86.3501 14.4697 86.5041 14.7776C86.5425 14.845 86.5618 14.9219 86.5618 15.0085C86.5618 15.1047 86.5233 15.2057 86.4463 15.3116C86.3597 15.4174 86.2395 15.4703 86.0855 15.4703C86.0374 15.4703 85.9749 15.4559 85.8979 15.427C85.4554 14.9748 84.9984 14.7487 84.527 14.7487C84.1614 14.7487 83.8728 14.8113 83.6611 14.9364C83.3917 15.0903 83.257 15.3212 83.257 15.629C83.257 15.908 83.3917 16.1341 83.6611 16.3073C83.8247 16.4228 84.1422 16.5478 84.6136 16.6825C85.3929 16.9327 85.9172 17.1636 86.1866 17.3752C86.6387 17.7119 86.8648 18.1497 86.8648 18.6885C86.8648 19.2657 86.6387 19.7371 86.1866 20.1027C85.7055 20.4779 85.1427 20.6655 84.4981 20.6655Z" fill="white"/>
<path d="M30.9959 18.6235C32.0692 18.0869 32.0691 18.0867 32.069 18.0866L32.0689 18.0863L32.0686 18.0857L32.0679 18.0843L32.0663 18.0811L32.062 18.0726L32.0494 18.0482C32.0392 18.0287 32.0254 18.0027 32.0081 17.9712C31.9737 17.9084 31.9251 17.8227 31.8633 17.7216C31.7414 17.5221 31.5605 17.2499 31.3286 16.9716C30.8494 16.3965 30.5116 16.1677 30.0668 15.9008L30.0273 15.8771L29.9861 15.8565C29.2882 15.5075 29.0449 15.4153 28.6731 15.3127C28.6542 15.3075 28.6346 15.3022 28.6142 15.2966C28.3756 15.2316 28.0203 15.1347 27.0767 14.7768C26.1395 14.4213 25.6081 14.0371 25.3309 13.7857C25.2793 13.7389 25.236 13.6963 25.2 13.6586V10.7359C25.2 8.22998 27.23 6.2 29.7359 6.2H35.7359C39.1221 6.2 41.8709 8.94881 41.8709 12.335C41.8709 15.7262 39.1649 18.4699 35.7359 18.4699H35.712H35.6881H35.6643H35.6406H35.617H35.5935H35.57H35.5467H35.5234H35.5002H35.4771H35.4541H35.4312H35.4084H35.3856H35.363H35.3404H35.3179H35.2955H35.2731H35.2509H35.2287H35.2066H35.1846H35.1627H35.1409H35.1192H35.0975H35.0759H35.0544H35.033H35.0117H34.9905H34.9693H34.9482H34.9272H34.9063H34.8855H34.8647H34.844H34.8234H34.8029H34.7825H34.7621H34.7419H34.7217H34.7016H34.6816H34.6616H34.6417H34.6219H34.6022H34.5826H34.5631H34.5436H34.5242H34.5049H34.4856H34.4665H34.4474H34.4284H34.4095H34.3906H34.3718H34.3532H34.3345H34.316H34.2975H34.2792H34.2608H34.2426H34.2245H34.2064H34.1884H34.1704H34.1526H34.1348H34.1171H34.0995H34.0819H34.0645H34.0471H34.0297H34.0125H33.9953H33.9782H33.9612H33.9442H33.9273H33.9105H33.8938H33.8771H33.8605H33.844H33.8275H33.8112H33.7949H33.7786H33.7625H33.7464H33.7304H33.7144H33.6986H33.6828H33.667H33.6514H33.6358H33.6203H33.6048H33.5894H33.5741H33.5589H33.5437H33.5286H33.5136H33.4987H33.4838H33.4689H33.4542H33.4395H33.4249H33.4103H33.3959H33.3815H33.3671H33.3528H33.3386H33.3245H33.3104H33.2964H33.2825H33.2686H33.2548H33.241H33.2274H33.2138H33.2002H33.1867H33.1733H33.16H33.1467H33.1335H33.1203H33.1073H33.0942H33.0813H33.0684H33.0556H33.0428H33.0301H33.0175H33.0049H32.9924H32.9799H32.9676H32.9552H32.943H32.9308H32.9187H32.9066H32.8946H32.8826H32.8708H32.8589H32.8472H32.8355H32.8238H32.8123H32.8007H32.7893H32.7779H32.7666H32.7553H32.7441H32.7329H32.7218H32.7108H32.6998H32.6889H32.678H32.6672H32.6565H32.6458H32.6352H32.6246H32.6141H32.6037H32.5933H32.5829H32.5727H32.5625H32.5523H32.5422H32.5321H32.5221H32.5122H32.5023H32.4925H32.4828H32.473H32.4634H32.4538H32.4442H32.4348H32.4253H32.416H32.4066H32.3974H32.3882H32.379H32.3699H32.3608H32.3518H32.3429H32.334H32.3252H32.3164H32.3077H32.299H32.2904H32.2818H32.2733H32.2648H32.2564H32.248H32.2397H32.2315H32.2233H32.2151H32.214L32.1278 18.2252L32.1029 18.1542L32.0692 18.0869L30.9959 18.6235Z" stroke="white" stroke-width="2.4"/>
<path d="M29.9649 17.2983C30.725 16.3697 30.7249 16.3696 30.7247 16.3695L30.7244 16.3692L30.7238 16.3687L30.7224 16.3676L30.7193 16.3651L30.7113 16.3586L30.6887 16.3407C30.6708 16.3266 30.6469 16.3083 30.6176 16.2863C30.559 16.2424 30.4778 16.1837 30.3764 16.1156C30.1745 15.9799 29.8874 15.8034 29.5342 15.6309C29.1269 15.432 28.7352 15.3137 28.4297 15.2214C28.3227 15.1891 28.2262 15.16 28.1434 15.1317C27.9318 15.0595 27.8158 15.0245 27.7201 14.9958C27.599 14.9593 27.5107 14.9327 27.3028 14.8528C26.9426 14.7142 26.707 14.6191 26.3696 14.4536C25.7761 14.1624 25.5465 14.0247 25.3637 13.8054C25.3043 13.7341 25.2484 13.6561 25.2 13.5828V10.7362C25.2 10.0775 25.3416 9.45032 25.5959 8.88434C26.2415 9.96264 27.4311 10.9876 29.3296 11.9407L29.3313 11.9416C30.6113 12.5816 31.8839 13.0842 33.0432 13.535C33.1194 13.5646 33.195 13.594 33.2699 13.6231C34.3558 14.045 35.3147 14.4175 36.1561 14.835C37.6511 15.5768 38.5714 16.3571 38.9553 17.5538C38.0227 18.1337 36.9214 18.4702 35.7359 18.4702H32.2428C32.2207 18.4136 32.1972 18.3561 32.1725 18.2984C32.0219 17.947 31.9056 17.742 31.6904 17.4288C31.5117 17.1688 31.2677 16.9059 31.1064 16.7395C31.0186 16.6489 30.9397 16.5709 30.8825 16.5154C30.8537 16.4875 30.8301 16.4649 30.8131 16.4487L30.7927 16.4294L30.7865 16.4237L30.7845 16.4218L30.7837 16.4211L30.7834 16.4208L30.7833 16.4207C30.7833 16.4206 30.7832 16.4206 29.9649 17.2983ZM29.9649 17.2983L30.725 16.3697L30.7549 16.3942L30.7832 16.4206L29.9649 17.2983ZM25.0671 13.3619L25.0674 13.3624C25.0663 13.3603 25.0658 13.3593 25.0658 13.3595L25.0664 13.3607L25.0671 13.3619Z" stroke="white" stroke-width="2.4"/>
<path d="M25.2 19.6709V16.0685C26.0539 16.5219 27.0798 16.8567 28.0566 17.1754C28.1882 17.2183 28.3188 17.261 28.448 17.3036C31.1597 18.2132 31.4254 21.9515 28.8619 23.2333L28.1606 23.5839C28.1602 23.5841 28.1597 23.5844 28.1593 23.5846C26.7983 24.2592 25.2 23.266 25.2 21.754V19.6709Z" stroke="white" stroke-width="2.4"/>
<path d="M37.4367 6.75695C36.5815 6.58719 35.8411 6.39844 35.2003 6.2H35.736C36.9401 6.2 38.0661 6.54988 39.0159 7.15274C38.5131 7.00085 37.9879 6.86792 37.4398 6.75758L37.4398 6.75758L37.4367 6.75695Z" stroke="white" stroke-width="2.4"/>
</g>
</svg>
