<svg width="281" height="70" viewBox="0 0 281 70" fill="none" xmlns="http://www.w3.org/2000/svg">
<path d="M75.3695 28.5703H78.2049L86.1517 47.5612H82.3905L80.6738 43.2153H72.6691L71.0103 47.5612H67.3262L75.3502 28.5703H75.3695ZM79.5358 40.3181L76.7004 32.5987L73.8071 40.3181H79.5358Z" fill="white"/>
<path d="M89.6836 28.5703H93.4641L98.4984 42.9177L103.687 28.5703H107.236L99.7715 47.5612H96.9361L89.6836 28.5703Z" fill="white"/>
<path d="M118.963 28.5703H121.799L129.746 47.5612H125.984L124.268 43.2153H116.263L114.604 47.5612H110.939L118.963 28.5703ZM123.13 40.3181L120.294 32.5987L117.401 40.3181H123.13Z" fill="white"/>
<path d="M137.018 28.5703H140.297V44.5052H148.147V47.5612H137.018V28.5703Z" fill="white"/>
<path d="M161.706 28.5703H164.541L172.488 47.5612H168.727L167.01 43.2153H159.005L157.346 47.5612H153.682L161.706 28.5703ZM165.872 40.3181L163.037 32.5987L160.143 40.3181H165.872Z" fill="white"/>
<path d="M179.76 28.5703H184.119L193.05 42.6795H193.107V28.5703H196.386V47.5612H192.22L183.097 32.9956H183.039V47.5612H179.76V28.5703Z" fill="white"/>
<path d="M218.377 33.0148C217.702 32.2607 217.046 31.7646 216.39 31.5066C215.773 31.2487 215.136 31.1296 214.48 31.1296C213.516 31.1296 212.648 31.3082 211.876 31.6654C211.105 32.0027 210.449 32.479 209.89 33.114C209.33 33.7292 208.906 34.4436 208.578 35.2572C208.289 36.0708 208.135 36.9638 208.135 37.9163C208.135 38.9284 208.289 39.8809 208.578 40.7342C208.887 41.5875 209.33 42.3416 209.89 42.9567C210.449 43.5917 211.105 44.068 211.876 44.4252C212.667 44.7824 213.535 44.961 214.48 44.961C215.233 44.961 215.946 44.7824 216.641 44.4252C217.354 44.0482 218.01 43.4528 218.627 42.6591L221.328 44.6435C220.498 45.8143 219.476 46.6874 218.28 47.2232C217.084 47.759 215.811 48.0368 214.442 48.0368C213.015 48.0368 211.703 47.7987 210.507 47.3423C209.33 46.866 208.308 46.1913 207.44 45.338C206.591 44.4649 205.916 43.4131 205.434 42.2026C204.952 40.9922 204.701 39.6427 204.701 38.1544C204.701 36.6264 204.952 35.2572 205.434 34.0268C205.916 32.7767 206.591 31.7051 207.44 30.8319C208.308 29.9588 209.33 29.2841 210.507 28.8277C211.703 28.3514 213.015 28.1133 214.442 28.1133C215.696 28.1133 216.853 28.3514 217.914 28.8078C218.994 29.2642 219.997 30.0183 220.904 31.1098L218.357 33.0346L218.377 33.0148Z" fill="white"/>
<path d="M228.771 28.5703H232.051V36.1309H240.672V28.5703H243.971V47.5612H240.672V39.1869H232.051V47.5612H228.771V28.5703Z" fill="white"/>
<path d="M253.309 28.5703H265.518V31.6263H256.588V36.2897H265.055V39.3457H256.588V44.5052H266V47.5612H253.309V28.5703Z" fill="white"/>
<path fill-rule="evenodd" clip-rule="evenodd" d="M23.6585 48.9108H18.5278C17.4476 48.9108 16.9075 48.9108 16.5989 48.6926C16.2517 48.4544 16.0395 48.0774 16.001 47.6408C15.9817 47.2439 16.2517 46.7677 16.7725 45.7953L29.4643 22.7959C30.0044 21.8235 30.2745 21.3274 30.6216 21.1488C30.9881 20.9504 31.4318 20.9504 31.7982 21.1488C32.1454 21.3274 32.4155 21.8235 32.9556 22.7959L35.5595 27.4791L35.5788 27.499C36.1574 28.5507 36.4661 29.0865 36.5818 29.6421C36.7168 30.2573 36.7168 30.8923 36.5818 31.5075C36.4468 32.0631 36.1574 32.5989 35.5595 33.6705L28.905 45.7953L28.8857 45.835C28.307 46.8867 27.9984 47.4225 27.5934 47.8393C27.1497 48.2758 26.6096 48.5933 26.0117 48.7918C25.4716 48.9505 24.8737 48.9505 23.6585 48.9505V48.9108ZM36.6204 48.9108H43.9886C45.0687 48.9108 45.6281 48.9108 45.9367 48.6926C46.2839 48.4544 46.5154 48.0575 46.5347 47.6408C46.554 47.2638 46.2839 46.7875 45.7824 45.8945C45.7631 45.8548 45.7438 45.835 45.7245 45.7953L42.0404 39.3063L42.0019 39.2269C41.4811 38.3339 41.2303 37.8775 40.8831 37.6989C40.5167 37.5004 40.073 37.5004 39.7065 37.6989C39.3593 37.8775 39.0893 38.3537 38.5492 39.3063L34.8844 45.7953L34.8651 45.8151C34.325 46.7677 34.055 47.2439 34.0743 47.6408C34.0936 48.0774 34.3058 48.4544 34.6722 48.6926C35.0001 48.9108 35.5402 48.9108 36.6204 48.9108Z" fill="white"/>
</svg>
