<svg width="281" height="70" viewBox="0 0 281 70" fill="none" xmlns="http://www.w3.org/2000/svg">
<path d="M54.3284 39.5596L51.4331 47.4836C51.3101 47.7192 51.3101 47.9641 51.4331 48.1997L56.4951 61.8806L62.2763 58.5169L55.284 39.5596C55.1705 39.0791 54.5649 39.0791 54.3284 39.5596Z" fill="white"/>
<path d="M60.1089 26.126C59.9859 25.6455 59.3898 25.6455 59.1438 26.126L56.2485 34.05C56.1255 34.2856 56.1255 34.5305 56.2485 34.7661L64.4424 57.2096L70.2236 53.8459L60.1089 26.126Z" fill="white"/>
<path d="M49.7485 8.72173C49.8715 8.72173 49.985 8.72173 50.108 8.84422L72.277 21.5641C72.5136 21.6866 72.6366 21.9221 72.6366 22.2801V47.7198C72.6366 47.9554 72.5136 48.3229 72.277 48.4359L50.108 61.1558C49.985 61.2783 49.8715 61.2783 49.7485 61.2783C49.6255 61.2783 49.512 61.2783 49.3889 61.1558L42.4297 57.1984L38.2707 59.1252L33.7051 56.5056L35.4704 53.241L27.22 48.4359C26.9834 48.3134 26.8604 48.0779 26.8604 47.7198V22.2801C26.8604 22.0446 26.9834 21.6771 27.22 21.5641L49.3889 8.84422C49.5025 8.72173 49.6255 8.72173 49.7485 8.72173ZM49.7485 5C48.9064 5 48.1778 5.23555 47.4587 5.60302L25.2898 18.3229C23.8421 19.1614 23 20.603 23 22.2801V47.7198C23 49.2839 23.8421 50.8386 25.2898 51.6771L47.4587 64.397C48.1778 64.755 48.9064 65 49.7485 65C50.5906 65 51.3192 64.7644 52.0382 64.397L74.2072 51.6771C75.6549 50.8386 76.497 49.397 76.497 47.7198V22.2801C76.497 20.7161 75.6549 19.1614 74.2072 18.3229L52.1518 5.60302C51.4327 5.24497 50.7041 5 49.862 5H49.7485Z" fill="white"/>
<path d="M47.9422 20.4805H42.2746C41.9151 20.4805 41.4325 20.716 41.3095 21.0835L29.2646 53.9572L35.0458 57.3209L48.3018 21.1965C48.4248 20.8385 48.1788 20.4805 47.8192 20.4805H47.9422Z" fill="white"/>
<path d="M57.6967 20.4803H52.0291C51.6696 20.4803 51.187 20.7158 51.064 21.0833L37.335 58.5173L43.1161 61.881L58.0563 21.0833C58.1793 20.7252 57.9333 20.3672 57.5737 20.3672L57.6967 20.4803Z" fill="white"/>
<path d="M100.358 27.3223C100.964 27.3223 101.447 27.4448 101.806 27.6803C102.166 27.9159 102.525 28.3964 102.894 28.9994L110.246 42.1998C110.369 42.3223 110.369 42.4353 110.246 42.5578C110.246 42.6803 110.123 42.6803 109.887 42.6803H107.114C106.878 42.6803 106.755 42.5578 106.632 42.4448L105.052 39.5616H94.6909L93.1202 42.4448C92.9972 42.6803 92.8837 42.6803 92.6377 42.6803H89.7424C89.5058 42.6803 89.3828 42.6803 89.3828 42.5578C89.3828 42.4353 89.3828 42.3223 89.3828 42.1998L96.6116 28.9994C96.9712 28.2833 97.3307 27.9159 97.6997 27.6803C98.0687 27.4448 98.4188 27.3223 98.9014 27.3223H100.226H100.358ZM96.0155 37.0459H103.604L100.112 30.5635C99.9895 30.441 99.9895 30.441 99.8759 30.441H99.7529C99.6299 30.441 99.5164 30.441 99.5164 30.5635L96.0155 37.0459Z" fill="white"/>
<path d="M126.265 27.3223C127.95 27.3223 129.161 27.6803 129.88 28.5189C130.599 29.235 130.968 30.441 130.968 31.8826V33.0792C130.968 34.3983 130.731 35.3593 130.249 36.0754C129.766 36.7915 128.924 37.272 127.722 37.517L131.46 42.1998C131.583 42.3223 131.583 42.4353 131.583 42.5578C131.583 42.6803 131.46 42.7934 131.223 42.7934H128.328C128.091 42.7934 127.968 42.7934 127.968 42.6709C127.845 42.6709 127.845 42.5484 127.732 42.4353L124.241 37.875H117.135V42.3128C117.135 42.6709 117.012 42.7934 116.652 42.7934H114.239C113.88 42.7934 113.757 42.6709 113.757 42.3128V28.0383C113.757 27.5578 113.993 27.3223 114.476 27.3223H126.407H126.265ZM117.106 35.2368H125.537C126.256 35.2368 126.861 35.1143 127.107 34.7563C127.467 34.3983 127.59 33.9177 127.59 33.3147V32.3537C127.59 31.6376 127.467 31.1571 127.107 30.9121C126.748 30.554 126.265 30.4316 125.537 30.4316H117.343C117.106 30.4316 117.106 30.554 117.106 30.6671V35.2368Z" fill="white"/>
<path d="M149.524 27.3223C151.095 27.3223 152.173 27.6803 152.779 28.2833C153.385 28.8863 153.744 29.8474 153.744 31.044V32.1275C153.744 33.3241 153.262 34.2852 152.296 34.8882C153.262 35.4912 153.867 36.4523 153.867 37.7714V39.0905C153.867 39.6935 153.744 40.174 153.631 40.6545C153.517 41.1351 153.271 41.4931 153.025 41.8512C152.665 42.2092 152.306 42.4542 151.823 42.5672C151.341 42.6897 150.735 42.8028 150.016 42.8028H136.883C136.401 42.8028 136.164 42.5672 136.164 42.0867V28.0478C136.164 27.5672 136.401 27.3317 136.883 27.3317H149.657H149.524V27.3223ZM139.523 33.6822H148.559C149.278 33.6822 149.761 33.5597 150.007 33.3242C150.253 33.0886 150.366 32.8436 150.366 32.3631V31.647C150.366 31.1665 150.243 30.8084 150.007 30.686C149.77 30.4504 149.288 30.3279 148.805 30.3279H139.769C139.532 30.3279 139.532 30.4504 139.532 30.5635V33.6822H139.523ZM139.523 36.0848V39.326C139.523 39.5616 139.646 39.5616 139.76 39.5616H148.796C149.401 39.5616 149.761 39.4391 149.997 39.2035C150.234 38.968 150.357 38.6005 150.357 38.2425V37.4039C150.357 36.9234 150.234 36.5654 149.997 36.3204C149.761 36.0754 149.278 35.9623 148.427 35.9623H139.4L139.523 36.0848Z" fill="white"/>
<path d="M162.05 27.3223C162.409 27.3223 162.532 27.4448 162.532 27.8028V42.1998C162.532 42.5578 162.409 42.6803 162.05 42.6803H159.637C159.277 42.6803 159.154 42.5578 159.154 42.1998V27.8028C159.154 27.4448 159.277 27.3223 159.637 27.3223H162.05Z" fill="white"/>
<path d="M185.307 27.3223C185.666 27.3223 185.789 27.4448 185.789 27.8028V29.9605C185.789 30.3185 185.666 30.441 185.307 30.441H178.315V42.1998C178.315 42.5578 178.192 42.6803 177.832 42.6803H175.419C175.06 42.6803 174.937 42.5578 174.937 42.1998V30.441H167.944C167.585 30.441 167.462 30.3185 167.462 29.9605V27.8028C167.462 27.4448 167.585 27.3223 167.944 27.3223H185.174H185.307Z" fill="white"/>
<path d="M202.783 27.3223C204.467 27.3223 205.678 27.6803 206.397 28.5189C207.116 29.235 207.485 30.441 207.485 31.8826V33.0792C207.485 34.3983 207.249 35.3593 206.766 36.0754C206.284 36.7915 205.442 37.272 204.24 37.517L207.977 42.1998C208.1 42.3223 208.1 42.4353 208.1 42.5578C208.1 42.6803 207.977 42.7934 207.741 42.7934H204.846C204.609 42.7934 204.486 42.7934 204.486 42.6709C204.363 42.6709 204.363 42.5484 204.249 42.4353L200.758 37.875H193.652V42.3128C193.652 42.6709 193.529 42.7934 193.17 42.7934H190.757C190.397 42.7934 190.274 42.6709 190.274 42.3128V28.0383C190.274 27.5578 190.511 27.3223 190.994 27.3223H202.925H202.783ZM193.624 35.2368H202.054C202.773 35.2368 203.379 35.1143 203.625 34.7563C203.985 34.3983 204.108 33.9177 204.108 33.3147V32.3537C204.108 31.6376 203.985 31.1571 203.625 30.9121C203.265 30.554 202.783 30.4316 202.054 30.4316H193.86C193.624 30.4316 193.624 30.554 193.624 30.6671V35.2368Z" fill="white"/>
<path d="M215.197 27.3223C215.557 27.3223 215.68 27.4448 215.68 27.8028V36.5654C215.68 37.1684 215.68 37.6489 215.803 38.0069C215.926 38.365 216.039 38.723 216.285 38.968C216.531 39.213 216.768 39.326 217.127 39.4485C217.487 39.571 217.97 39.571 218.575 39.571H224.725C225.331 39.571 225.813 39.571 226.173 39.4485C226.533 39.326 226.892 39.213 227.015 38.968C227.252 38.7324 227.375 38.365 227.498 38.0069C227.621 37.6489 227.621 37.1684 227.621 36.5654V27.8028C227.621 27.4448 227.744 27.3223 228.103 27.3223H230.516C230.875 27.3223 230.998 27.4448 230.998 27.8028V36.9234C230.998 38.0069 230.875 38.8455 230.639 39.5616C230.402 40.2777 230.033 40.8807 229.551 41.3612C229.068 41.8417 228.463 42.1998 227.621 42.3223C226.779 42.5578 225.936 42.6803 224.725 42.6803H218.339C217.25 42.6803 216.285 42.5578 215.443 42.3223C214.724 42.0867 213.996 41.7193 213.513 41.3612C213.031 40.8807 212.671 40.2777 212.425 39.5616C212.188 38.8455 212.065 37.8845 212.065 36.9234V27.8028C212.065 27.4448 212.188 27.3223 212.548 27.3223H214.961H215.197Z" fill="white"/>
<path d="M240.497 27.3223C240.857 27.3223 241.103 27.3223 241.339 27.4448C241.576 27.4448 241.822 27.5672 241.945 27.6803C242.068 27.8028 242.305 27.9159 242.428 28.1608C242.551 28.3964 242.664 28.6414 242.91 28.9994L247.49 39.5616C247.613 39.6841 247.613 39.7971 247.849 39.7971H248.086C248.209 39.7971 248.322 39.6747 248.445 39.5616L253.025 28.9994C253.148 28.6414 253.261 28.3964 253.507 28.1608C253.63 27.9253 253.744 27.8028 253.99 27.6803C254.113 27.5578 254.349 27.4448 254.595 27.4448C254.841 27.4448 255.078 27.3223 255.437 27.3223H257.85C258.569 27.3223 259.175 27.4448 259.421 27.8028C259.657 28.1608 259.78 28.7638 259.78 29.6024V42.1998C259.78 42.5578 259.657 42.6803 259.298 42.6803H257.008C256.649 42.6803 256.526 42.5578 256.526 42.1998V30.686C256.526 30.5635 256.403 30.4504 256.403 30.4504H256.166C256.043 30.4504 255.93 30.5729 255.93 30.5729L251.473 40.4096C251.35 40.7676 251.113 41.1257 250.867 41.3706C250.621 41.6156 250.508 41.8512 250.262 42.0867C250.025 42.2092 249.779 42.4448 249.543 42.4448C249.306 42.5672 248.937 42.5672 248.578 42.5672H247.49C247.13 42.5672 246.77 42.5672 246.524 42.4448C246.278 42.3223 246.042 42.2092 245.805 42.0867C245.569 41.9642 245.446 41.7287 245.2 41.3706C244.963 41.1351 244.84 40.7676 244.594 40.4096L240.138 30.5729C240.138 30.4504 240.015 30.4504 239.901 30.4504H239.665C239.542 30.4504 239.542 30.5729 239.542 30.686V42.2092C239.542 42.5672 239.419 42.6897 239.059 42.6897H236.76C236.4 42.6897 236.277 42.5672 236.277 42.2092V29.6024C236.277 28.7638 236.4 28.1608 236.637 27.8028C236.873 27.4448 237.479 27.3223 238.208 27.3223H240.62H240.497Z" fill="white"/>
</svg>
