<svg width="281" height="70" viewBox="0 0 281 70" fill="none" xmlns="http://www.w3.org/2000/svg">
<path d="M199.776 35.0033C199.776 33.7663 199.776 32.6028 199.736 31.5282C199.709 30.5145 199.609 29.5041 199.436 28.5048C199.275 27.5924 198.99 26.7062 198.59 25.8707C198.168 25.0094 197.604 24.2256 196.921 23.5526C195.953 22.5584 194.801 21.7627 193.529 21.2099C192.153 20.6514 190.68 20.3746 189.195 20.3957C187.706 20.3764 186.227 20.6531 184.844 21.2099C183.565 21.7551 182.406 22.5474 181.432 23.5414C180.751 24.2141 180.188 24.998 179.769 25.8596C179.373 26.6952 179.093 27.5816 178.937 28.4937C178.768 29.4933 178.672 30.5037 178.648 31.5171C178.622 32.5917 178.608 33.7552 178.615 34.9922C178.622 36.2291 178.615 37.3838 178.648 38.465C178.672 39.4784 178.768 40.4888 178.937 41.4884C179.093 42.4005 179.373 43.2869 179.769 44.1225C180.19 44.9831 180.752 45.7667 181.432 46.4407C182.404 47.4355 183.564 48.2266 184.844 48.7677C186.226 49.3282 187.705 49.6065 189.195 49.5864C190.68 49.6084 192.154 49.3299 193.529 48.7677C194.801 48.2223 195.953 47.4316 196.921 46.4407C197.602 45.7663 198.166 44.9828 198.59 44.1225C198.99 43.287 199.275 42.4009 199.436 41.4884C199.607 40.4919 199.705 39.4845 199.731 38.4739C199.765 37.3926 199.78 36.2358 199.771 35.0011L199.776 35.0033ZM194.181 35.0033C194.181 36.3737 194.162 37.515 194.115 38.4227C194.089 39.1683 194.015 39.9114 193.893 40.6474C193.81 41.1378 193.66 41.6146 193.449 42.0646C193.277 42.4273 193.053 42.7625 192.783 43.0591C192.366 43.5371 191.849 43.917 191.269 44.1714C190.616 44.4515 189.912 44.5938 189.202 44.5898C188.488 44.5928 187.781 44.4505 187.124 44.1714C186.53 43.9217 185.999 43.5416 185.57 43.0591C185.299 42.7638 185.074 42.4284 184.904 42.0646C184.699 41.6141 184.557 41.1371 184.482 40.6474C184.364 39.911 184.29 39.1681 184.26 38.4227C184.22 37.515 184.2 36.3752 184.2 35.0033C184.2 33.6328 184.22 32.4893 184.26 31.5816C184.29 30.8363 184.364 30.0933 184.482 29.3569C184.557 28.8672 184.699 28.3902 184.904 27.9397C185.074 27.5762 185.299 27.2409 185.57 26.9453C185.999 26.4634 186.53 26.0834 187.124 25.8329C187.78 25.5506 188.488 25.4082 189.202 25.4147C189.913 25.4073 190.617 25.5498 191.269 25.8329C191.849 26.0881 192.366 26.4679 192.783 26.9453C193.052 27.2423 193.277 27.5773 193.449 27.9397C193.66 28.3898 193.81 28.8665 193.893 29.3569C194.014 30.0929 194.089 30.8361 194.115 31.5816C194.164 32.4871 194.181 33.6306 194.181 35.0033Z" fill="white"/>
<path d="M244.35 21.1421C244.348 20.8715 244.129 20.6528 243.86 20.6504H239.244C238.974 20.6516 238.755 20.871 238.754 21.1421V38.228L227.498 20.7883C227.423 20.6704 227.356 20.6504 227.19 20.6504H222.91C222.64 20.654 222.423 20.872 222.419 21.1421V48.8667C222.423 49.1364 222.64 49.3538 222.91 49.3562H227.523C227.792 49.355 228.01 49.1365 228.011 48.8667V31.7363L239.269 49.216C239.346 49.3339 239.408 49.354 239.577 49.354H243.855C244.125 49.3528 244.343 49.1347 244.346 48.8645L244.35 21.1421Z" fill="white"/>
<path d="M213.413 21.1421C213.412 20.871 213.193 20.6516 212.923 20.6504H208.312C208.041 20.6516 207.823 20.871 207.821 21.1421V48.8645C207.823 49.1355 208.041 49.355 208.312 49.3562H212.923C213.193 49.355 213.412 49.1355 213.413 48.8645V21.1421Z" fill="white"/>
<path d="M158.218 35.0055C158.218 33.6262 158.233 32.4782 158.273 31.5638C158.301 30.8183 158.375 30.0753 158.495 29.3391C158.922 26.8696 160.809 25.4124 163.217 25.4124C164.789 25.4258 166.214 26.0087 167.124 27.3346C167.537 27.9536 167.837 28.6404 168.012 29.3636C168.026 29.4398 168.095 29.4929 168.172 29.4859H173.6C173.678 29.4859 173.707 29.4325 173.693 29.3569C173.101 25.9909 171.309 22.9675 168.143 21.4702C166.588 20.7483 164.889 20.3871 163.175 20.4135C160.119 20.4135 157.545 21.462 155.452 23.5592C154.257 24.7262 153.442 26.2273 153.112 27.8663C152.792 29.48 152.631 31.859 152.628 35.0033C152.625 38.1476 152.786 40.5258 153.112 42.138C153.439 43.7791 154.252 45.2833 155.445 46.454C157.536 48.5497 160.111 49.5976 163.168 49.5976C164.883 49.6236 166.58 49.2632 168.137 48.543C171.302 47.0458 173.094 44.0224 173.687 40.6563C173.7 40.5785 173.671 40.5273 173.594 40.5273H168.163C168.086 40.5192 168.016 40.5729 168.004 40.6497C167.828 41.372 167.527 42.058 167.116 42.6764C166.205 44.0113 164.78 44.5875 163.208 44.5986C160.8 44.5986 158.913 43.1436 158.487 40.6741C158.366 39.938 158.292 39.1949 158.265 38.4494C158.233 37.5306 158.218 36.3804 158.218 35.0055Z" fill="white"/>
<path d="M100.886 21.1421C100.885 20.871 100.666 20.6516 100.395 20.6504H95.7846C95.5141 20.6516 95.2952 20.871 95.2939 21.1421V48.8667C95.2964 49.1369 95.515 49.355 95.7846 49.3564H100.395C100.665 49.355 100.884 49.1369 100.886 48.8667V40.7286L104.587 36.2947L112.188 49.2093C112.247 49.3046 112.352 49.3607 112.463 49.3564H118.067C118.324 49.3564 118.371 49.196 118.242 48.9758L108.29 32.0677L117.42 21.0909C117.605 20.8684 117.527 20.6571 117.238 20.6571H111.114C111.039 20.6527 110.967 20.6861 110.923 20.7461L100.886 32.8086V21.1421Z" fill="white"/>
<path d="M134.482 44.5997C131.887 44.5997 129.534 42.1925 129.534 39.3182V21.1421C129.532 20.871 129.313 20.6516 129.043 20.6504H124.432C124.162 20.6516 123.943 20.871 123.941 21.1421V39.247C123.941 45.5764 128.666 49.5987 134.482 49.5987C140.298 49.5987 145.022 45.5764 145.022 39.247V21.1421C145.02 20.8715 144.802 20.6528 144.532 20.6504H139.919C139.649 20.6528 139.431 20.8719 139.43 21.1421V39.3182C139.43 42.1903 137.075 44.5997 134.482 44.5997Z" fill="white"/>
<path fill-rule="evenodd" clip-rule="evenodd" d="M48.9465 35.0051L63.2609 49.3525L72.2962 40.2978C73.9119 38.8399 76.3836 38.9048 77.9209 40.4454C79.4582 41.986 79.5229 44.463 78.0682 46.0821L66.1446 58.0334C64.543 59.6119 61.9743 59.6119 60.3727 58.0334L43.1701 40.7894V51.0388C43.1701 53.3008 41.3403 55.1346 39.0831 55.1346C36.8259 55.1346 34.9961 53.3008 34.9961 51.0388V18.9581C34.9961 16.6961 36.8259 14.8624 39.0831 14.8624C41.3403 14.8624 43.1701 16.6961 43.1701 18.9581V29.2075L60.3705 11.968C61.9716 10.3883 64.5413 10.3883 66.1424 11.968L78.0748 23.917C79.5296 25.5361 79.4649 28.0132 77.9276 29.5538C76.3903 31.0944 73.9185 31.1592 72.3029 29.7014L63.2676 20.6467L48.9465 35.0051ZM63.2676 30.9049C61.6125 30.904 60.12 31.9024 59.486 33.4345C58.852 34.9666 59.2015 36.7305 60.3715 37.9036C61.5414 39.0767 63.3014 39.4279 64.8305 38.7934C66.3597 38.1589 67.3568 36.6637 67.3568 35.0051C67.3574 33.9177 66.9269 32.8746 66.16 32.1052C65.3931 31.3359 64.3527 30.9033 63.2676 30.9027V30.9049Z" fill="white"/>
</svg>
