<svg width="281" height="70" viewBox="0 0 281 70" fill="none" xmlns="http://www.w3.org/2000/svg">
<path d="M60.3253 45.5252V40.496L70.7394 29.6019V29.1827H60.4972V24.1544H78.2952V29.1827L67.8811 40.0777V40.496H78.7034V45.5252H60.3253Z" fill="white"/>
<path d="M91.8493 46.1473C89.7805 46.1473 87.8887 45.6443 86.1728 44.6383C84.4578 43.6332 83.0965 42.2645 82.089 40.5322C81.1083 38.7999 80.6187 36.9008 80.6187 34.8332C80.6187 32.7664 81.1083 30.8665 82.089 29.1342C83.0965 27.4028 84.4578 26.0341 86.1728 25.0281C87.8887 24.0221 89.7805 23.5199 91.8493 23.5199C93.9734 23.5199 95.8661 24.0221 97.5266 25.0281C99.2148 26.0341 100.522 27.4028 101.447 29.1342C102.4 30.8665 102.876 32.7664 102.876 34.8332V36.0907H86.5408C86.6766 36.9846 86.9901 37.8221 87.4796 38.6049C87.9968 39.3594 88.6364 39.9736 89.3991 40.4484C90.1619 40.8958 90.9784 41.119 91.8493 41.119C93.0479 41.119 94.0413 40.8812 94.8309 40.4064C95.6481 39.9034 96.2198 39.3029 96.5467 38.6049H102.672C102.046 40.6998 100.821 42.4877 98.9968 43.9685C97.172 45.4211 94.7898 46.1473 91.8493 46.1473ZM96.7504 32.5286C96.6146 31.8023 96.3145 31.1462 95.8518 30.5594C95.4168 29.9443 94.8443 29.4558 94.1368 29.0923C93.4562 28.7296 92.6942 28.5482 91.8493 28.5482C91.0052 28.5482 90.2298 28.7296 89.5215 29.0923C88.8141 29.4558 88.2282 29.9443 87.7655 30.5594C87.3028 31.1462 86.9624 31.8023 86.7445 32.5286H96.7504Z" fill="white"/>
<path d="M106.205 45.5195V24.1496H111.922V27.2917H112.126C112.534 26.2865 113.188 25.4482 114.087 24.7775C114.985 24.0795 116.102 23.7304 117.435 23.7304H119.886V29.3875H116.823C115.816 29.3875 114.944 29.5825 114.209 29.9735C113.474 30.3644 112.902 30.9239 112.494 31.6502C112.113 32.3764 111.922 33.2285 111.922 34.2062V45.5195H106.205Z" fill="white"/>
<path d="M132.839 46.1473C130.688 46.1473 128.741 45.6443 126.999 44.6383C125.256 43.6332 123.88 42.2645 122.874 40.5322C121.893 38.7999 121.403 36.9008 121.403 34.8332C121.403 32.7664 121.893 30.8665 122.874 29.1342C123.88 27.4028 125.256 26.0341 126.999 25.0281C128.741 24.0221 130.688 23.5199 132.839 23.5199C134.989 23.5199 136.937 24.0221 138.679 25.0281C140.421 26.0341 141.783 27.4028 142.763 29.1342C143.77 30.8665 144.274 32.7664 144.274 34.8332C144.274 36.9008 143.77 38.7999 142.763 40.5322C141.783 42.2645 140.421 43.6332 138.679 44.6383C136.937 45.6443 134.989 46.1473 132.839 46.1473ZM132.839 41.119C133.846 41.119 134.772 40.8538 135.616 40.3226C136.461 39.7922 137.127 39.0514 137.617 38.1019C138.107 37.1523 138.352 36.0625 138.352 34.8332C138.352 33.6039 138.107 32.5149 137.617 31.5645C137.127 30.615 136.461 29.875 135.616 29.3438C134.772 28.8134 133.846 28.5482 132.839 28.5482C131.831 28.5482 130.906 28.8134 130.062 29.3438C129.217 29.875 128.55 30.615 128.061 31.5645C127.57 32.5149 127.326 33.6039 127.326 34.8332C127.326 36.0625 127.57 37.1523 128.061 38.1019C128.55 39.0514 129.217 39.7922 130.062 40.3226C130.906 40.8538 131.831 41.119 132.839 41.119Z" fill="white"/>
<path d="M156.414 46.1473C154.399 46.1473 152.669 45.7983 151.227 45.0994C149.783 44.3731 148.626 43.4518 147.755 42.3338C146.911 41.1892 146.326 39.9453 145.999 38.6049H151.921C152.22 39.3594 152.737 40.0018 153.472 40.5322C154.235 41.0634 155.215 41.3286 156.414 41.3286C157.665 41.3286 158.55 41.1464 159.068 40.7837C159.612 40.4201 159.885 39.9034 159.885 39.2336C159.885 38.8144 159.695 38.4791 159.313 38.2276C158.959 37.9479 158.496 37.7383 157.924 37.5989C157.38 37.4312 156.604 37.2361 155.596 37.012C153.799 36.6211 152.342 36.2164 151.227 35.7973C150.11 35.3781 149.13 34.7074 148.286 33.7861C147.442 32.864 147.02 31.6064 147.02 30.0145C147.02 28.869 147.36 27.8074 148.041 26.8296C148.721 25.8245 149.729 25.0281 151.063 24.4412C152.397 23.827 153.976 23.5199 155.801 23.5199C158.687 23.5199 160.933 24.1897 162.539 25.5311C164.173 26.8715 165.194 28.5063 165.602 30.4336H159.885C159.667 29.8468 159.218 29.3583 158.537 28.9665C157.856 28.5482 156.944 28.3386 155.801 28.3386C155.147 28.3386 154.603 28.4225 154.167 28.5901C153.758 28.7296 153.446 28.9255 153.228 29.1761C153.037 29.4276 152.942 29.7074 152.942 30.0145C152.942 30.4336 153.119 30.7827 153.472 31.0624C153.854 31.3139 154.316 31.5235 154.861 31.6903C155.433 31.8306 156.223 32.0119 157.23 32.2352C159.026 32.6261 160.483 33.0316 161.6 33.4508C162.716 33.87 163.696 34.5398 164.541 35.4619C165.384 36.3841 165.807 37.6408 165.807 39.2336C165.807 40.462 165.439 41.6075 164.704 42.6691C163.969 43.7025 162.893 44.5408 161.477 45.1832C160.062 45.8257 158.374 46.1473 156.414 46.1473Z" fill="white"/>
<path d="M169.979 45.5363V29.1938H167.323V24.1655H169.979V19.5564H175.696V24.1655H181.617V29.1938H175.696V40.508H181.822V45.5363H169.979Z" fill="white"/>
<path d="M193.519 46.1473C191.749 46.1473 190.13 45.6863 188.659 44.7641C187.216 43.8145 186.059 42.4877 185.187 40.7837C184.343 39.0514 183.922 37.0685 183.922 34.8332C183.922 32.5988 184.343 30.6295 185.187 28.9255C186.059 27.1932 187.216 25.8664 188.659 24.9442C190.13 23.9947 191.749 23.5199 193.519 23.5199C194.527 23.5199 195.452 23.6876 196.297 24.022C197.141 24.33 197.876 24.7346 198.502 25.2376C199.128 25.7406 199.645 26.2856 200.053 26.8715H200.258V24.1478H205.976V45.5186H200.258V42.7948H200.053C199.645 43.3817 199.128 43.9266 198.502 44.4296C197.876 44.9317 197.141 45.3372 196.297 45.6443C195.452 45.9797 194.527 46.1473 193.519 46.1473ZM194.949 41.119C195.984 41.119 196.896 40.8675 197.685 40.3645C198.502 39.8615 199.128 39.1352 199.564 38.1857C200.027 37.2361 200.258 36.1181 200.258 34.8332C200.258 33.5483 200.027 32.4311 199.564 31.4815C199.128 30.5311 198.502 29.8049 197.685 29.3019C196.896 28.7997 195.984 28.5482 194.949 28.5482C193.996 28.5482 193.125 28.7997 192.335 29.3019C191.573 29.8049 190.96 30.5311 190.497 31.4815C190.062 32.4311 189.844 33.5483 189.844 34.8332C189.844 36.1181 190.062 37.2361 190.497 38.1857C190.96 39.1352 191.573 39.8615 192.335 40.3645C193.125 40.8675 193.996 41.119 194.949 41.119Z" fill="white"/>
<path d="M212.382 53.4802V48.4519H225.655V42.3338H225.452C225.044 42.9206 224.526 43.4792 223.899 44.0104C223.273 44.5134 222.538 44.9318 221.694 45.2671C220.85 45.5742 219.924 45.7282 218.917 45.7282C217.147 45.7282 215.527 45.2671 214.057 44.3458C212.614 43.3954 211.457 42.0823 210.585 40.4064C209.742 38.7306 209.319 36.8024 209.319 34.6236C209.319 32.4448 209.742 30.5175 210.585 28.8416C211.457 27.165 212.614 25.8664 214.057 24.9442C215.527 23.9947 217.147 23.5199 218.917 23.5199C219.924 23.5199 220.85 23.6876 221.694 24.022C222.538 24.33 223.273 24.7483 223.899 25.2796C224.526 25.7826 225.044 26.3275 225.452 26.9135H225.655V24.1478H231.373V53.4802H212.382ZM220.551 40.6999C221.504 40.6999 222.361 40.462 223.124 39.9873C223.913 39.4843 224.526 38.7725 224.961 37.8504C225.424 36.9282 225.655 35.8529 225.655 34.6236C225.655 33.3943 225.424 32.319 224.961 31.3977C224.526 30.4755 223.913 29.7775 223.124 29.3019C222.361 28.7997 221.504 28.5482 220.551 28.5482C219.516 28.5482 218.59 28.7997 217.774 29.3019C216.984 29.7775 216.358 30.4755 215.895 31.3977C215.459 32.319 215.241 33.3943 215.241 34.6236C215.241 35.8529 215.459 36.9282 215.895 37.8504C216.358 38.7725 216.984 39.4843 217.774 39.9873C218.59 40.462 219.516 40.6999 220.551 40.6999Z" fill="white"/>
<path d="M245.743 46.1473C243.675 46.1473 241.783 45.6443 240.067 44.6383C238.352 43.6332 236.991 42.2645 235.983 40.5322C235.003 38.7999 234.513 36.9008 234.513 34.8332C234.513 32.7664 235.003 30.8665 235.983 29.1342C236.991 27.4028 238.352 26.0341 240.067 25.0281C241.783 24.0221 243.675 23.5199 245.743 23.5199C247.868 23.5199 249.76 24.0221 251.421 25.0281C253.109 26.0341 254.416 27.4028 255.341 29.1342C256.294 30.8665 256.771 32.7664 256.771 34.8332V36.0907H240.435C240.571 36.9846 240.884 37.8221 241.374 38.6049C241.891 39.3594 242.531 39.9736 243.293 40.4484C244.056 40.8958 244.873 41.119 245.743 41.119C246.942 41.119 247.936 40.8812 248.725 40.4064C249.542 39.9034 250.114 39.3029 250.441 38.6049H256.567C255.94 40.6998 254.715 42.4877 252.891 43.9685C251.067 45.4211 248.684 46.1473 245.743 46.1473ZM250.645 32.5286C250.509 31.8023 250.21 31.1462 249.746 30.5594C249.311 29.9443 248.739 29.4558 248.031 29.0923C247.35 28.7296 246.588 28.5482 245.743 28.5482C244.9 28.5482 244.124 28.7296 243.416 29.0923C242.708 29.4558 242.123 29.9443 241.66 30.5594C241.197 31.1462 240.857 31.8023 240.639 32.5286H250.645Z" fill="white"/>
<path fill-rule="evenodd" clip-rule="evenodd" d="M45.6495 55.2106V48.8161H31.8624L45.6479 24.8747V48.8161H51.818V21.5898L45.6495 21.5906V15.4023H29.4005V21.5906H23.2295V48.8161H29.4005V55.2106H45.6495ZM29.4005 46.905V21.5906H43.9756L29.4005 46.905ZM45.642 21.5906L45.6479 21.5932V21.5898L45.642 21.5906Z" fill="white"/>
</svg>
