<svg width="281" height="70" viewBox="0 0 281 70" fill="none" xmlns="http://www.w3.org/2000/svg">
<path d="M48.0716 59.5536C42.835 59.5536 37.5983 59.5554 32.3616 59.5536C25.4529 59.5502 20.909 52.2317 23.9944 46.0383C29.2137 35.5633 34.433 25.0865 39.7114 14.641C41.4129 11.276 44.2761 9.55014 48.0508 9.54493C51.8255 9.53972 54.7008 11.2621 56.3989 14.6219C61.6685 25.0396 66.8705 35.4921 72.0741 45.9428C75.2411 52.3029 70.7164 59.5536 63.608 59.5536C58.4286 59.5536 53.251 59.5536 48.0716 59.5536ZM48.0317 55.7321C48.0317 55.7321 48.0317 55.7182 48.0317 55.713C53.2684 55.713 58.505 55.7859 63.7382 55.6904C67.9609 55.6123 70.4715 51.433 68.5998 47.6548C63.443 37.251 58.2428 26.8697 53.034 16.4918C52.0304 14.4916 50.3462 13.4047 48.0907 13.3926C45.7953 13.3804 44.0955 14.4847 43.0763 16.5162C37.8674 26.894 32.6638 37.2753 27.5347 47.6913C27.0659 48.6428 26.8715 49.8912 27 50.9468C27.3594 53.9072 29.6634 55.7147 32.8443 55.7286C37.9074 55.7512 42.9687 55.7338 48.0317 55.7338V55.7321Z" fill="white"/>
<path d="M189.211 47.4534C181.574 47.4393 175.933 41.7748 175.989 34.1848C176.045 26.6882 181.658 21.1265 189.182 21.1172C196.773 21.1079 202.428 26.7864 202.4 34.3904C202.372 41.8309 196.679 47.472 189.206 47.458L189.211 47.4534ZM189.084 43.3966C194.193 43.448 198.048 39.6296 198.119 34.4512C198.193 29.1372 194.375 25.1739 189.187 25.1739C184.126 25.1739 180.265 29.0765 180.232 34.2362C180.195 39.3679 184.041 43.3452 189.089 43.3966H189.084Z" fill="white"/>
<path d="M208.136 21.7732C212.389 21.7732 216.675 21.4648 220.89 21.8667C224.629 22.2219 226.821 25.1149 227.144 28.9286C227.49 33.0368 225.69 35.6354 220.984 37.4768C223.335 40.51 225.625 43.4684 227.952 46.4643C224.9 47.5719 223.344 47.1747 221.568 44.9033C220.325 43.3095 218.955 41.7906 217.899 40.08C216.595 37.9722 214.992 36.9393 212.244 37.8039V46.7914H208.094V33.8173C211.571 33.8173 214.894 33.85 218.217 33.808C220.876 33.7752 222.489 32.5554 222.849 30.4382C223.288 27.8444 221.643 25.8534 218.717 25.6851C216.315 25.5449 213.894 25.7178 211.487 25.5916C209.043 25.4655 208.131 24.3531 208.14 21.7732H208.136Z" fill="white"/>
<path d="M163.462 37.4751C165.865 40.569 168.136 43.4948 170.44 46.4625C167.402 47.5796 165.841 47.1823 164.047 44.9015C162.747 43.2471 161.336 41.658 160.242 39.8727C158.957 37.7742 157.302 37.0498 154.713 37.8022V46.8177H150.633V33.8249C153.475 33.8249 156.326 33.839 159.172 33.8203C160.181 33.8156 161.219 33.8717 162.191 33.652C164.266 33.18 165.416 31.8012 165.374 29.6373C165.327 27.4687 164.154 26.0339 162.009 25.8423C159.457 25.6133 156.877 25.7348 154.311 25.6273C151.638 25.5151 150.717 24.5617 150.596 21.893C154.989 21.893 159.42 21.5285 163.761 22.0052C167.421 22.4071 169.403 25.3422 169.641 29.1185C169.875 32.8949 168.211 35.5635 164.715 37.003C164.378 37.1432 164.037 37.2648 163.467 37.4844L163.462 37.4751Z" fill="white"/>
<path d="M121.46 21.6648H125.657C125.657 22.7117 125.657 23.6885 125.657 24.6606C125.676 28.9371 125.592 33.2228 125.741 37.4946C125.872 41.2242 127.928 43.2619 131.317 43.3927C135.004 43.5376 137.224 41.7897 137.551 37.9853C137.855 34.4286 137.748 30.8392 137.804 27.2639C137.832 25.4832 137.804 23.7072 137.804 21.7536H141.702C141.702 27.7967 142.132 33.7977 141.575 39.7005C141.066 45.1407 136.575 47.8374 130.429 47.3934C125.204 47.0148 121.586 43.3881 121.479 38.1489C121.362 32.7227 121.455 27.2919 121.455 21.6602L121.46 21.6648Z" fill="white"/>
<path d="M115.104 46.7818C112.406 47.109 110.622 46.1244 109.753 43.828C107.57 38.0934 105.378 32.3635 102.99 26.0914C102.495 27.2458 102.177 27.9095 101.915 28.5965C99.9804 33.6862 98.0642 38.7805 96.1339 43.8701C95.2615 46.1695 93.4512 47.137 90.7031 46.7724C90.8667 46.1836 90.9835 45.5994 91.1892 45.0572C94.0121 37.7242 96.877 30.4146 99.6485 23.0629C100.135 21.7683 100.924 21.3664 102.112 21.6094C103.481 21.8851 105.28 20.67 106.122 22.8666C109.061 30.5688 112.052 38.2477 115.011 45.9405C115.09 46.1462 115.067 46.3939 115.104 46.7865V46.7818Z" fill="white"/>
<path d="M258.992 46.7057C256.265 47.198 254.458 46.2882 253.57 43.9763C251.635 38.9007 249.71 33.8204 247.775 28.7448C247.508 28.0437 247.2 27.352 246.69 26.1182C245.723 28.5999 244.943 30.5675 244.185 32.5445C242.741 36.3114 241.311 40.0878 239.881 43.8594C239.012 46.1527 237.215 47.1201 234.492 46.7618C234.66 46.1729 234.777 45.598 234.988 45.0512C237.74 37.8771 240.61 30.7498 243.209 23.5196C243.994 21.3323 245.429 21.6314 247.027 21.566C248.532 21.5052 249.527 21.6969 250.163 23.4448C252.776 30.5862 255.608 37.6481 258.351 44.7428C258.599 45.3784 258.777 46.042 258.992 46.7057Z" fill="white"/>
</svg>
