<svg width="281" height="70" viewBox="0 0 281 70" fill="none" xmlns="http://www.w3.org/2000/svg">
<path d="M88.3583 5C89.5057 5.1141 90.6619 5.17115 91.7982 5.35099C102.025 6.97323 109.661 12.3385 114.367 21.5572C120.14 32.8658 118.192 46.2927 109.506 55.5102C103.037 62.3737 94.9729 65.545 85.5528 64.9236C73.233 64.1112 62.8055 55.8512 59.0806 44.0937C58.6704 42.7989 58.4337 41.4495 58.1128 40.1262C58.0892 40.0307 58.0384 39.9426 58 39.8508C58 36.6671 58 33.4847 58 30.301C58.0384 30.1844 58.0917 30.0703 58.1128 29.9512C58.5229 27.5166 59.1859 25.1502 60.2379 22.9178C64.9046 13.0194 72.6221 7.12578 83.4363 5.35719C84.5702 5.17115 85.7263 5.11658 86.8713 5C87.3669 5 87.8626 5 88.3583 5ZM87.9791 37.4882C88.0088 37.5167 88.0386 37.5452 88.0696 37.5725C88.4772 37.3356 88.8738 37.0789 89.2926 36.8668C91.2034 35.9007 93.2146 35.5038 95.3434 35.8697C95.9221 35.9689 95.9866 36.1425 95.5987 36.5878C95.2344 37.007 94.8453 37.4138 94.4203 37.7697C92.2592 39.5755 89.7362 40.1944 86.9754 39.9625C86.5863 39.9302 86.3843 40.0257 86.2021 40.3779C85.6928 41.3677 85.1352 42.3313 84.6048 43.3099C84.419 43.6534 84.2566 44.0106 84.0844 44.3616C84.3298 44.3145 84.4797 44.2066 84.6395 44.1148C87.0026 42.7617 89.4995 42.2234 92.1848 42.9043C92.8825 43.0804 92.9134 43.2193 92.3942 43.7192C90.6421 45.4059 88.5318 46.3013 86.1191 46.4154C85.1426 46.4613 84.1575 46.3162 83.155 46.2567C83.1117 46.341 83.0472 46.4477 83.0014 46.5618C82.0893 48.7918 81.1724 51.0192 80.274 53.2541C80.0323 53.8544 80.3136 54.3555 80.9976 54.5911C85.248 56.0521 89.5516 56.2233 93.8936 55.0624C94.2084 54.9781 94.5826 54.6879 94.7078 54.3977C95.6619 52.1652 96.6347 49.9377 97.0869 47.5267C97.4488 45.6006 98.0758 45.1479 100.008 45.0388C101.445 44.9582 102.878 44.756 104.306 44.5563C105.112 44.4447 105.496 43.9957 105.569 43.1896C105.609 42.7592 105.667 42.2966 105.553 41.896C105.332 41.1233 105.533 40.5379 106.085 40.0083C106.405 39.6995 106.366 39.3907 106.014 39.129C105.529 38.7669 105.526 38.4109 105.997 38.0326C106.431 37.6841 106.417 37.2848 106.139 36.8321C105.961 36.5394 105.839 36.212 105.692 35.8982C106.311 35.3922 106.906 34.9469 107.453 34.4496C108.003 33.9485 107.964 33.5802 107.346 33.1845C106.093 32.3833 104.87 31.5673 103.916 30.3816C103.371 29.7032 103.196 29.0359 103.405 28.2062C103.695 27.0552 103.487 25.9824 102.904 24.9369C102.194 23.6644 101.531 22.3622 100.922 21.0376C100.294 19.6696 99.4451 18.5373 97.9816 18.0412C96.9333 17.6864 95.8602 17.3627 94.771 17.1792C92.7015 16.8294 90.6098 16.6186 88.5355 16.2974C85.5825 15.8397 82.9084 16.5343 80.5528 18.3028C79.4636 19.1214 78.3954 19.9276 77.1649 20.5303C76.7684 20.725 76.4202 21.1777 76.2269 21.5945C75.8477 22.4105 75.3446 23.022 74.5528 23.4957C73.6432 24.0402 72.7089 24.6541 72.0323 25.4491C71.3247 26.2789 70.6159 27.0255 69.6655 27.56C68.8984 27.9916 68.5502 28.7345 68.554 29.5779C68.5564 30.141 68.7126 30.714 68.8737 31.2609C69.0707 31.9282 69.1364 32.5632 68.9641 33.2577C68.7968 33.9312 68.6828 34.6418 68.6952 35.3339C68.7225 36.7626 69.2851 37.89 70.7398 38.401C71.3879 38.6292 71.6407 39.1241 71.8018 39.7876C71.9802 40.5293 72.1711 41.4334 72.6878 41.8948C73.9158 42.9911 74.7708 44.2537 75.3124 45.7829C75.5912 46.5692 76.207 47.0256 76.9728 47.3369C77.7535 47.6532 78.502 48.0476 79.269 48.3961C79.8031 48.6392 80.3446 48.8637 80.8997 49.1031C81.331 48.1357 81.6891 47.2588 82.1129 46.4142C82.3409 45.9603 82.2777 45.6725 81.9431 45.2881C79.7064 42.7071 78.9828 39.7405 79.7994 36.4129C79.844 36.2306 79.9555 36.0644 80.0398 35.8821C81.8675 37.0107 82.9345 39.5296 83.3644 43.6981C84.1749 42.2197 84.9407 40.8207 85.7052 39.4254C83.906 36.2355 83.8105 33.0047 85.4661 29.7329C85.559 29.5494 85.7523 29.4179 85.8985 29.2616C86.0324 29.4067 86.1984 29.5345 86.2963 29.7007C87.0076 30.9087 87.4549 32.2085 87.5082 33.6161C87.5454 34.6145 87.5156 35.6166 87.5156 36.8085C88.0386 35.8076 88.7152 34.963 88.9382 34.0118C89.8478 30.1435 91.9556 27.2897 95.5752 25.6004C95.8441 25.4752 96.1365 25.4032 96.4178 25.3065C96.4835 25.3412 96.5504 25.376 96.6161 25.4107C96.4674 26.161 96.3769 26.9275 96.1588 27.6568C95.1848 30.9149 93.1328 33.2825 90.1266 34.8403C89.9469 34.9333 89.7424 35.0313 89.6284 35.185C89.0646 35.9428 88.528 36.7205 87.9816 37.4907L87.9791 37.4882Z" fill="white"/>
<path d="M152.122 45.05H147.513V33.5169C147.461 33.5083 147.408 33.4983 147.356 33.4897C146.981 34.2363 146.604 34.9817 146.232 35.7308C145.304 37.5973 144.37 39.4614 143.46 41.3379C143.284 41.7013 143.057 41.7832 142.666 41.8501C141.126 42.1168 140.321 41.5054 139.729 40.0543C138.865 37.9384 137.73 35.9342 136.708 33.8828C136.63 33.7265 136.537 33.5777 136.344 33.45V45.0326H131.75V25.0287C131.922 25.0163 132.1 24.9928 132.278 24.9915C133.579 24.9878 134.88 25.0064 136.18 24.9803C136.587 24.9729 136.8 25.0944 136.983 25.4715C138.497 28.5684 140.036 31.6529 141.569 34.7411C141.668 34.9407 141.776 35.1379 141.936 35.4406C142.528 34.2586 143.076 33.166 143.622 32.0733C144.73 29.857 145.832 27.6382 146.951 25.4281C147.04 25.2532 147.24 25.0138 147.393 25.0101C148.956 24.9791 150.52 24.9915 152.123 24.9915V45.0512L152.122 45.05Z" fill="white"/>
<path d="M171.343 32.9563V36.718H163.496V40.9534H172.857V45.0177H158.872V25.0225H172.612V29.0483H163.507V32.9576H171.343V32.9563Z" fill="white"/>
<path d="M208.81 42.7109C209.494 41.354 210.152 40.0493 210.742 38.8785C212.192 39.4875 213.558 40.1758 215.001 40.6248C215.962 40.9237 217.029 40.9001 218.053 40.9758C218.349 40.9981 218.666 40.8939 218.955 40.7934C219.452 40.621 219.814 40.2998 219.879 39.738C219.949 39.1464 219.757 38.6367 219.225 38.3774C218.506 38.0265 217.753 37.7375 216.998 37.4696C215.677 37.0008 214.313 36.6423 213.021 36.1053C210.492 35.0548 209.042 33.3718 209.868 29.6387C210.428 27.1061 212.272 25.7629 214.667 25.1527C218.146 24.2672 221.249 25.3896 224.301 27.0664C223.614 28.3625 222.953 29.6114 222.29 30.8641C220.691 29.8855 219.075 29.1141 217.229 29.0285C216.681 29.0037 216.116 29.0793 215.578 29.1996C214.913 29.3472 214.501 29.7987 214.442 30.5019C214.385 31.1816 214.702 31.6963 215.311 31.9331C216.365 32.3424 217.456 32.6587 218.52 33.0444C219.778 33.5008 221.047 33.9374 222.265 34.4856C222.81 34.7311 223.282 35.1863 223.72 35.6154C224.312 36.1983 224.633 36.904 224.565 37.7883C224.5 38.6106 224.493 39.4465 224.565 40.2663C224.69 41.71 223.977 42.7171 222.96 43.5703C221.742 44.5923 220.267 45.014 218.728 45.1442C215.297 45.4344 212.081 44.7039 209.116 42.9304C209.029 42.8783 208.95 42.8126 208.811 42.7121L208.81 42.7109Z" fill="white"/>
<path d="M177.006 29.0843V25.0287H193.783V29.0558H187.762V45.0314H183.127V29.0856H177.007L177.006 29.0843Z" fill="white"/>
<path d="M203.544 45.0375H198.95V25.0324H203.544V45.0375Z" fill="white"/>
</svg>
