<svg width="281" height="70" viewBox="0 0 281 70" fill="none" xmlns="http://www.w3.org/2000/svg">
<path d="M103.589 15.4874L75.5133 35.3561C73.8393 32.6717 72.9575 29.5691 72.9696 26.4055C72.9696 16.9444 80.7036 9.27989 90.2637 9.27989C92.8047 9.27104 95.3163 9.82275 97.6196 10.8957C99.9229 11.9687 101.961 13.5365 103.589 15.4874Z" fill="white"/>
<path d="M103.931 30.0324C103.942 26.8687 103.06 23.7662 101.388 21.0806L87.3818 30.9828L73.3078 40.9287L72.5632 41.4598L72.598 60.7202C72.598 60.7202 91.1099 48.3437 96.9458 43.799C101.285 40.4091 103.931 35.6625 103.931 30.0324Z" fill="white"/>
<path d="M118.633 22.3249H123.587L123.709 24.5188H123.779C124.34 23.697 125.131 23.0591 126.053 22.6849C127.168 22.1857 128.379 21.9368 129.6 21.9558C132.151 21.9558 134.211 22.8007 135.78 24.4931C137.349 26.1854 138.135 28.4539 138.136 31.2999V31.8683C138.136 34.7103 137.367 36.9763 135.827 38.6661C134.286 40.3559 132.264 41.2085 129.759 41.2239C128.563 41.2431 127.373 41.0336 126.255 40.6066C125.333 40.2818 124.524 39.6966 123.927 38.922V48.1786H118.633V22.3249ZM125.536 36.4297C126.362 36.9647 127.329 37.2399 128.313 37.2193C129.799 37.2193 130.906 36.7718 131.63 35.8754C132.357 34.9791 132.72 33.7407 132.72 32.1602V31.0234C132.72 29.4442 132.36 28.2032 131.639 27.3004C130.919 26.4002 129.799 25.9475 128.275 25.9475C127.372 25.9198 126.48 26.1497 125.702 26.6103C124.925 27.071 124.294 27.7435 123.885 28.5491V34.5547C124.235 35.3302 124.811 35.9822 125.536 36.4297ZM141.695 22.3249H146.719L146.825 24.6242H146.931C147.347 23.8154 147.967 23.1295 148.73 22.6348C149.494 22.1153 150.398 21.8396 151.322 21.8439C151.585 21.8452 151.848 21.8748 152.104 21.9326C152.296 21.9674 152.488 22.0201 152.672 22.0882V26.5841C152.439 26.5378 152.205 26.5 151.97 26.4709C151.695 26.4412 151.419 26.427 151.143 26.4285C150.248 26.4187 149.371 26.6825 148.63 27.1847C147.916 27.6476 147.351 28.3048 146.999 29.0802V40.8484H141.696L141.695 22.3249ZM154.078 31.2999C154.078 28.3832 155.025 26.0684 156.92 24.3542C158.814 22.6387 161.278 21.7809 164.309 21.7783C167.352 21.7783 169.814 22.6374 171.698 24.3542C173.581 26.0697 174.524 28.3858 174.526 31.2986V31.8683C174.526 34.7836 173.584 37.0984 171.697 38.8127C169.813 40.5282 167.35 41.3872 164.309 41.3885C161.278 41.3885 158.814 40.5308 156.92 38.8139C155.025 37.0971 154.078 34.7823 154.078 31.8683V31.2999ZM159.477 32.1525C159.477 33.8384 159.899 35.1296 160.743 36.0259C161.585 36.9222 162.767 37.3698 164.29 37.3672C165.805 37.3672 166.985 36.9197 167.83 36.0259C168.675 35.1321 169.094 33.8397 169.086 32.1525V30.9925C169.086 29.3078 168.663 28.0167 167.818 27.1191C166.974 26.2214 165.801 25.7765 164.3 25.7855C162.785 25.7855 161.605 26.2343 160.762 27.1306C159.919 28.027 159.494 29.3168 159.489 31.0041L159.477 32.1525ZM178.073 22.3249H183.095L183.2 24.6435H183.288C183.935 23.7623 184.804 23.0679 185.806 22.6309C186.841 22.1759 187.961 21.9454 189.091 21.9545C190.35 21.9259 191.595 22.2194 192.709 22.8071C193.729 23.359 194.53 24.241 194.983 25.3084H195.037C195.724 24.2095 196.719 23.337 197.898 22.7994C199.09 22.2366 200.392 21.9454 201.71 21.9468C203.726 21.9468 205.35 22.5615 206.584 23.7909C207.817 25.0203 208.434 27.0702 208.437 29.938V40.8484H203.142V29.6306C203.131 28.3896 202.856 27.4766 202.318 26.8915C201.779 26.3063 200.978 26.0131 199.911 26.0131C199.059 25.9828 198.22 26.2291 197.52 26.7153C196.819 27.222 196.258 27.8984 195.889 28.6828V40.8484H190.595V29.6821C190.583 28.4166 190.305 27.4894 189.761 26.9005C189.216 26.3089 188.401 26.0131 187.309 26.0131C186.471 25.994 185.649 26.2368 184.956 26.7076C184.256 27.2107 183.705 27.8924 183.358 28.6816V40.8484H178.073V22.3249Z" fill="white"/>
</svg>
