<svg width="281" height="70" viewBox="0 0 281 70" fill="none" xmlns="http://www.w3.org/2000/svg">
<path d="M106.606 54.8264H100.711V26.2461H106.606V54.8264Z" fill="white"/>
<path d="M127.905 25.6836C131.159 25.6836 133.818 26.8207 135.878 29.0941C137.935 31.368 138.966 34.2587 138.966 37.7636V54.8221H133.071V38.6584C133.071 36.4586 132.36 34.6396 130.937 33.2047C129.515 31.7695 127.757 31.052 125.662 31.052C123.303 31.052 121.376 31.7695 119.88 33.2047C118.383 34.6396 117.633 36.4586 117.633 38.6584V54.8221H111.738V26.2447H117.633V33.6269C118.418 31.167 119.719 29.2273 121.536 27.8098C123.35 26.3923 125.475 25.6836 127.908 25.6836H127.905Z" fill="white"/>
<path d="M157.344 25.6836C161.947 25.6836 165.69 27.3256 168.571 30.6059C171.452 33.8895 172.631 37.8582 172.107 42.5205H148.361C148.773 44.8328 149.84 46.7076 151.562 48.1428C153.284 49.5777 155.359 50.2955 157.792 50.2955C159.662 50.2955 161.336 49.8378 162.816 48.9252C164.294 48.013 165.444 46.7725 166.268 45.2049L171.209 47.3869C169.937 49.8109 168.121 51.7482 165.764 53.2037C163.408 54.6596 160.694 55.3861 157.623 55.3861C153.32 55.3861 149.707 53.9687 146.787 51.137C143.868 48.3053 142.407 44.7794 142.407 40.5659C142.407 36.3523 143.839 32.8206 146.702 29.9654C149.564 27.113 153.109 25.6869 157.341 25.6869L157.344 25.6836ZM157.344 30.7742C155.172 30.7742 153.293 31.4358 151.701 32.7615C150.11 34.0846 149.052 35.8089 148.53 37.9348H166.159C165.672 35.8089 164.632 34.0846 163.043 32.7615C161.452 31.4387 159.552 30.7742 157.344 30.7742Z" fill="white"/>
<path d="M188.405 25.6836C191.849 25.6836 194.655 26.5784 196.825 28.368C198.994 30.1572 200.082 32.7321 200.082 36.0864V54.825H194.187V47.2187C192.426 52.6636 188.891 55.3861 183.577 55.3861C181.105 55.3861 179.048 54.6509 177.4 53.1772C175.753 51.7039 174.932 49.7757 174.932 47.3899C174.932 44.5934 175.921 42.494 177.907 41.0972C179.89 39.7008 182.418 38.8325 185.485 38.4959L191.042 37.9348C193.138 37.7491 194.187 36.8158 194.187 35.1387C194.187 33.7596 193.653 32.6581 192.587 31.8402C191.52 31.0194 190.127 30.6092 188.405 30.6092C186.683 30.6092 185.156 31.0578 183.941 31.9526C182.726 32.8471 181.95 34.1525 181.612 35.8681L175.773 34.4684C176.298 31.7843 177.7 29.6494 179.985 28.0637C182.267 26.4808 185.073 25.6869 188.405 25.6869V25.6836ZM185.485 50.6292C187.919 50.6292 189.975 49.8171 191.659 48.1958C193.342 46.5748 194.184 44.6822 194.184 42.5176V40.9525C193.736 41.6997 192.649 42.1632 190.927 42.3493L185.483 43.0196C184.06 43.2086 182.928 43.6249 182.086 44.2775C181.244 44.93 180.823 45.8161 180.823 46.935C180.823 48.0543 181.244 48.9488 182.086 49.6191C182.928 50.2893 184.06 50.6259 185.483 50.6259L185.485 50.6292Z" fill="white"/>
<path d="M96.6508 54.8264H69.4229V26.2461H75.6526V49.2897H96.6508V54.8264Z" fill="white"/>
<path d="M205.64 25.6842C208.709 25.6842 211.197 23.2054 211.197 20.1478C211.197 17.0901 208.709 14.6113 205.64 14.6113C202.571 14.6113 200.083 17.0901 200.083 20.1478C200.083 23.2054 202.571 25.6842 205.64 25.6842Z" fill="white"/>
</svg>
