<svg width="281" height="70" viewBox="0 0 281 70" fill="none" xmlns="http://www.w3.org/2000/svg">
<path d="M106.127 53.0997V26.9391H110.019L110.39 29.0506H110.575C111.687 27.6043 113.577 26.5684 116.209 26.5684C121.024 26.5684 124.88 30.497 124.88 36.3125C124.88 42.1277 121.028 46.0564 116.209 46.0564C113.614 46.0564 111.8 44.9806 110.837 43.7594H110.651V53.0963H106.13L106.127 53.0997ZM120.356 36.3156C120.356 32.9066 118.168 30.7586 115.5 30.7586C112.833 30.7586 110.645 32.9066 110.645 36.3156C110.645 39.7248 112.833 41.8729 115.5 41.8729C118.168 41.8729 120.356 39.7248 120.356 36.3156Z" fill="white"/>
<path d="M127.175 36.3163C127.175 30.6466 131.249 26.5723 136.697 26.5723C142.145 26.5723 146.219 30.6466 146.219 36.3163C146.219 41.986 142.145 46.0603 136.697 46.0603C131.249 46.0603 127.175 41.9463 127.175 36.3163ZM141.662 36.3163C141.662 32.98 139.438 30.7592 136.697 30.7592C133.957 30.7592 131.696 32.9834 131.696 36.3163C131.696 39.6493 133.957 41.837 136.697 41.837C139.438 41.837 141.662 39.6525 141.662 36.3163Z" fill="white"/>
<path d="M149.494 45.6894V19.7539H154.015V45.6926H149.494V45.6894Z" fill="white"/>
<path d="M170.798 26.9414H175.613L167.461 49.7293C166.647 51.9898 165.535 53.1018 162.606 53.1018H158.234V48.915H161.941C162.609 48.915 162.976 48.5808 163.202 48.0247L163.645 46.8034L156.013 26.9414H160.828L165.684 39.9489H166.425L170.798 26.9414Z" fill="white"/>
<path d="M176.48 46.6156H181.074C181.259 47.8371 182.481 49.5052 185.373 49.5052C188.077 49.5052 189.858 47.8006 189.858 45.2057V42.5746H189.673C188.673 43.6501 186.82 44.6133 184.447 44.6133C179.631 44.6133 175.924 40.9063 175.924 35.5709C175.924 30.2356 179.631 26.5684 184.447 26.5684C186.929 26.5684 188.746 27.5679 189.894 28.9778H190.08L190.451 26.9391H194.379V45.2057C194.379 50.1704 191.043 53.4703 185.373 53.4703C179.039 53.4703 176.593 49.3198 176.48 46.6156ZM189.858 35.5743C189.858 32.6484 187.783 30.6096 185.152 30.6096C182.52 30.6096 180.482 32.6484 180.482 35.5743C180.482 38.5002 182.557 40.5755 185.152 40.5755C187.747 40.5755 189.858 38.5365 189.858 35.5743Z" fill="white"/>
<path d="M197.52 36.3163C197.52 30.6466 201.594 26.5723 207.042 26.5723C212.49 26.5723 216.564 30.6466 216.564 36.3163C216.564 41.986 212.49 46.0603 207.042 46.0603C201.594 46.0603 197.52 41.9463 197.52 36.3163ZM212.007 36.3163C212.007 32.98 209.782 30.7592 207.042 30.7592C204.301 30.7592 202.041 32.9834 202.041 36.3163C202.041 39.6493 204.301 41.837 207.042 41.837C209.782 41.837 212.007 39.6525 212.007 36.3163Z" fill="white"/>
<path d="M219.714 45.6891V26.9391H223.603L223.974 28.7164H224.159C224.901 27.8658 226.754 26.5684 229.568 26.5684C233.866 26.5684 236.978 29.6795 236.978 34.4224V45.6857H232.457V35.015C232.457 32.6054 230.753 30.8645 228.42 30.8645C226.086 30.8645 224.232 32.6815 224.232 35.015V45.6857H219.711L219.714 45.6891Z" fill="white"/>
<path d="M79.8107 43.5017L90.9248 37.0841C91.514 36.7431 91.8781 36.1109 91.8781 35.4324V22.5971C91.8781 21.9186 91.514 21.2865 90.9248 20.9455L79.8107 14.5279C79.2215 14.187 78.49 14.1903 77.9042 14.5279L66.7899 20.9455C66.2009 21.2865 65.8367 21.9186 65.8367 22.5971V45.5339L58.0422 50.0319L50.2476 45.5339V36.5347L58.0422 32.0367L63.1823 35.0054V28.9684L58.9953 26.549C58.7074 26.3835 58.3765 26.2942 58.0422 26.2942C57.7078 26.2942 57.377 26.3835 57.089 26.549L45.9747 32.9667C45.3856 33.3076 45.0215 33.9398 45.0215 34.6183V47.4537C45.0215 48.1321 45.3856 48.7642 45.9747 49.1051L57.089 55.5229C57.6781 55.8605 58.4063 55.8605 58.9953 55.5229L70.1096 49.1051C70.6989 48.7642 71.0628 48.1321 71.0628 47.4537V24.5135L71.2018 24.4341L78.8542 20.0155L86.6487 24.5135V33.5128L78.8542 38.0108L73.7205 35.0485V41.0857L77.9008 43.4985C78.49 43.836 79.2215 43.836 79.8073 43.4985L79.8107 43.5017Z" fill="white"/>
</svg>
