<svg width="281" height="70" viewBox="0 0 281 70" fill="none" xmlns="http://www.w3.org/2000/svg">
<path d="M105.697 49.5621V50.068C103.299 50.068 100.813 49.3861 98.3169 48.0224C96.1723 46.9116 94.5446 45.5478 93.4338 44.0191C91.4651 43.5132 89.8264 42.2264 88.5507 40.3458C87.2639 38.3882 86.582 36.3425 86.582 34.2089C86.582 31.3934 87.5279 29.0839 89.3315 27.1262C91.1352 25.1686 93.4558 24.2227 96.1943 24.2227C98.9328 24.2227 101.176 25.1686 103.057 27.1262C104.949 29.0839 105.807 31.3824 105.807 34.2089C105.807 36.5075 105.125 38.5641 103.75 40.5218C102.375 42.4794 100.571 43.6782 98.5148 44.0961C98.9438 45.4599 99.8016 46.6476 101.176 47.7694C102.639 48.9682 104.179 49.4741 105.73 49.4741V49.5621H105.697ZM96.1723 43.5132C98.1409 43.2603 99.6916 42.3144 100.802 40.6977C101.913 39.07 102.43 36.9474 102.43 34.2199C102.43 31.4924 101.924 29.3588 100.802 27.7421C99.6916 26.0374 98.1409 25.1906 96.1723 25.1906C94.2036 25.1906 92.6529 26.0374 91.5421 27.6651C90.4313 29.2818 89.9144 31.5034 89.9144 34.2309C89.9144 36.9584 90.4203 39.18 91.4541 40.8847C92.5649 42.6664 94.1157 43.5242 96.1723 43.5242V43.5132ZM109.546 37.2004V27.8191C109.546 26.7963 109.37 26.1144 108.941 25.7735C108.512 25.4325 107.83 25.2676 106.796 25.2676V24.7617H115.298V25.2676C114.264 25.2676 113.582 25.4435 113.153 25.7735C112.724 26.1034 112.548 26.7963 112.548 27.8191V37.2774C112.548 38.982 113.054 40.3458 114.088 41.5336C115.122 42.7324 116.409 43.2383 118.036 43.2383C119.664 43.2383 121.039 42.6444 121.985 41.5336C123.018 40.4228 123.447 38.982 123.447 37.2774V27.8191C123.447 26.7963 123.271 26.1144 122.842 25.7735C122.413 25.4325 121.732 25.2676 120.698 25.2676V24.7617H127.472V25.2676C126.438 25.2676 125.757 25.4435 125.328 25.7735C124.899 26.1034 124.723 26.7963 124.723 27.8191V37.2774C124.723 39.411 124.118 41.1157 122.919 42.4024C121.545 43.8542 119.576 44.536 117.002 44.536C114.605 44.536 112.801 43.8542 111.426 42.4024C110.14 41.0387 109.535 39.334 109.535 37.2004H109.546ZM131.256 40.9507V27.7311C131.256 26.7083 131.08 26.0264 130.651 25.6855C130.222 25.3445 129.54 25.1796 128.506 25.1796V24.6737H137.007V25.1796C135.974 25.1796 135.292 25.3555 134.863 25.6855C134.434 26.0264 134.258 26.7083 134.258 27.7311V40.9397C134.258 41.9625 134.434 42.6444 134.863 42.9853C135.292 43.3262 135.974 43.4912 137.007 43.4912V43.9971H128.506V43.4912C129.54 43.4912 130.222 43.3153 130.651 42.9853C131.08 42.6554 131.256 41.9625 131.256 40.9507ZM155.286 24.2337L155.792 30.7995H155.11C154.934 29.2708 154.252 27.9841 153.142 26.8733C152.031 25.7625 150.744 25.2566 149.281 25.2566C147.137 25.2566 145.421 26.2024 144.046 27.9841C143.441 28.8309 142.935 29.7767 142.583 30.9645C142.232 32.1633 142.078 33.3511 142.078 34.7148C142.078 37.3653 142.847 39.488 144.31 41.1157C145.685 42.6444 147.577 43.4142 149.721 43.4142C150.92 43.4142 152.042 42.9853 153.153 42.2155C154.186 41.5336 155.044 40.5108 155.814 39.312L156.32 39.5649C155.539 41.0167 154.516 42.1165 153.229 43.0623C151.855 44.0851 150.315 44.591 148.676 44.591C145.762 44.591 143.364 43.6452 141.473 41.6875C139.581 39.8069 138.558 37.4313 138.558 34.6928C138.558 31.9543 139.592 29.4138 141.561 27.3572C143.617 25.3116 145.938 24.2887 148.764 24.2887C149.875 24.2887 150.821 24.4647 151.602 24.7177C152.284 25.0586 153.065 25.3115 153.746 25.6635C153.922 25.6635 154.175 25.4875 154.351 25.3225C154.527 25.0696 154.703 24.7287 154.78 24.3767H155.286V24.2227V24.2337ZM160.51 27.7311C160.51 26.7083 160.334 26.0264 159.905 25.6855C159.476 25.3445 158.794 25.1796 157.761 25.1796V24.6737H166.262V25.1796C165.228 25.1796 164.546 25.3555 164.117 25.6855C163.689 26.0264 163.513 26.7083 163.513 27.7311V33.1861L169.682 27.6431C170.023 27.3022 170.287 27.0492 170.54 26.7963C170.892 26.4553 171.046 26.1144 171.046 25.8505C171.046 25.5865 170.87 25.4215 170.617 25.3445C170.265 25.2676 169.836 25.1686 169.243 25.1686V24.6627H176.446V25.1686C175.588 25.1686 174.819 25.3445 174.126 25.6745C173.444 26.0154 172.663 26.6203 171.728 27.4672L165.987 32.8452L173.884 40.6977C175.17 41.9735 176.116 42.7434 176.721 43.0843C177.326 43.4142 178.096 43.5902 179.119 43.5902V44.0961H170.023V43.5902C170.529 43.5902 170.881 43.5132 171.057 43.3372C171.233 43.1613 171.409 42.9083 171.409 42.5674C171.409 42.2265 171.057 41.7205 170.298 40.9507L163.601 34.2969V41.0277C163.601 42.0505 163.777 42.7324 164.205 43.0733C164.634 43.4142 165.316 43.5792 166.35 43.5792V44.0851H157.849V43.5792C158.882 43.5792 159.564 43.4032 159.993 43.0733C160.422 42.7324 160.598 42.0505 160.598 41.0277L160.51 40.9617V27.7311ZM192.008 30.9755H191.502C191.327 29.1828 190.821 27.8191 189.864 26.7963C188.929 25.7735 187.719 25.3445 186.168 25.3445C185.135 25.3445 184.277 25.6855 183.683 26.2904C183.001 26.9722 182.748 27.6541 182.748 28.424C182.748 29.5348 183.683 30.6456 185.498 31.7454C187.213 32.7682 188.929 33.703 190.645 34.6488C192.536 35.9246 193.394 37.3763 193.394 38.9051C193.394 40.5328 192.789 41.8085 191.678 42.8313C190.568 43.8541 188.929 44.3601 186.96 44.3601C186.355 44.3601 185.85 44.2831 185.333 44.1841C184.827 44.1071 184.398 43.9311 184.046 43.8432C183.694 43.6672 183.364 43.5902 183.012 43.4142C182.66 43.3372 182.407 43.2383 182.154 43.2383C181.901 43.2383 181.725 43.3153 181.549 43.4912C181.373 43.6672 181.296 43.9201 181.197 44.2611H180.691V37.6953H181.197C181.197 39.4 181.802 40.6757 183.089 41.6985C184.2 42.6444 185.575 43.1503 187.213 43.1503C188.247 43.1503 189.105 42.8973 189.787 42.3034C190.557 41.7095 190.898 40.9397 190.898 40.0049C190.898 38.7291 190.04 37.5303 188.236 36.4305C186.52 35.4847 184.893 34.5499 183.254 33.615C181.45 32.3393 180.592 30.8875 180.592 29.2598C180.592 27.8081 181.098 26.5323 182.22 25.5865C183.331 24.5637 184.706 24.1348 186.344 24.1348C186.85 24.1348 187.29 24.2118 187.719 24.3107C187.796 24.3107 188.148 24.3877 188.83 24.6517C189.083 24.7287 189.347 24.8276 189.765 24.9926C190.194 25.1686 190.447 25.2456 190.711 25.2456C190.975 25.2456 191.217 25.1686 191.392 24.9046C191.645 24.6517 191.744 24.3987 191.744 24.2227H192.25V30.9535H192.008V30.9755ZM193.9 24.6627H201.104V25.1686C200.422 25.1686 199.993 25.2456 199.641 25.5095C199.3 25.6855 199.212 25.9384 199.212 26.2794C199.212 26.5323 199.212 26.7853 199.3 26.9612C199.377 27.1372 199.476 27.5551 199.729 28.16L203.754 39.334L207.021 30.2936L206.24 28.16C205.888 27.0492 205.459 26.2794 205.206 25.9384C204.777 25.4325 204.095 25.1686 203.237 25.1686V24.6627H210.793V25.1686C210.111 25.1686 209.682 25.2456 209.33 25.5095C208.978 25.6855 208.824 25.9384 208.824 26.2794C208.824 26.7853 209 27.3902 209.253 28.237L213.114 39.411L217.062 28.16C217.238 27.5661 217.414 27.0492 217.414 26.6313C217.414 25.6855 216.732 25.2676 215.357 25.2676V24.7617H221.098V25.2676C220.163 25.2676 219.558 25.6965 219.129 26.4663C218.953 26.8073 218.7 27.4122 218.448 28.259L212.872 44.547H212.19L207.735 32.2623L203.358 44.547H202.676L196.836 28.347C196.408 27.1482 196.056 26.3894 195.803 26.0484C195.374 25.5425 194.868 25.2786 194.087 25.2786V24.7726L193.911 24.6737L193.9 24.6627ZM227.18 24.2337H227.862L234.988 40.9397C235.417 41.9625 235.846 42.5674 236.198 42.8973C236.627 43.3262 237.309 43.4912 238.255 43.4912V43.9971H230.27V43.4912C231.645 43.4912 232.415 43.0623 232.415 42.2155C232.415 41.8745 232.338 41.4456 232.063 40.9397L230.6 37.5303H223.045L221.505 40.9397C221.252 41.4456 221.153 41.8855 221.153 42.2155C221.153 42.6444 221.329 42.8973 221.659 43.1613C222.011 43.4142 222.605 43.5022 223.375 43.5022V44.0081H217.205V43.5022C217.887 43.5022 218.415 43.2493 218.832 42.8203C219.184 42.4794 219.613 41.7975 219.943 40.9397L227.158 24.2227L227.18 24.2337ZM226.751 28.6769L223.408 36.4305H230.006L226.751 28.6769ZM241.774 40.9617V27.7421C241.774 26.7193 241.598 26.0374 241.169 25.6965C240.74 25.3555 240.059 25.1906 239.025 25.1906V24.6847H247.35C249.242 24.6847 250.87 25.1906 252.068 26.1364C253.355 27.0822 253.96 28.435 253.96 30.1397C253.96 31.8444 253.355 33.1201 252.156 34.0659C251.046 34.9128 249.759 35.3417 248.12 35.3417C247.438 35.3417 246.745 35.3417 246.228 35.2647C245.624 35.1877 245.118 35.0888 244.689 35.0118V40.8957C244.689 41.9185 244.865 42.6004 245.294 42.9413C245.723 43.2823 246.404 43.4472 247.438 43.4472V43.9531H238.937V43.4472C239.971 43.4472 240.652 43.2713 241.081 42.9413C241.51 42.6004 241.686 41.9185 241.686 40.8957L241.763 40.9727L241.774 40.9617ZM244.777 26.0374V33.967C245.283 34.1429 245.723 34.2199 246.063 34.3079C246.404 34.3959 246.745 34.3849 247.009 34.3849C248.208 34.3849 249.154 34.0439 249.847 33.2741C250.529 32.5042 250.782 31.5694 250.782 30.3706C250.782 29.0949 250.43 27.9841 249.671 27.0492C248.89 26.2024 247.955 25.6855 246.833 25.6855C246.404 25.6855 246.052 25.6855 245.8 25.7625C245.547 25.7625 245.195 25.8505 244.766 26.0264L244.777 26.0374Z" fill="white"/>
<path d="M77.8168 29.2701C75.1553 16.7324 63.6624 7.94501 50.6958 8.71487H50.7728C39.8848 9.31975 30.5365 16.4794 27.2811 26.7956C25.4774 32.3275 25.6534 38.4754 27.71 43.9304C30.6245 51.53 36.9703 57.4029 44.7789 59.7125C50.4428 61.4172 56.7887 61.0763 62.2767 58.7667C70.3382 55.4453 76.1781 48.2856 77.8938 39.7512C78.5867 36.2648 78.5867 32.6685 77.8168 29.2701ZM54.4681 41.1149C53.6103 42.5667 52.3235 43.6665 50.8608 44.5243C49.3211 45.3711 47.6824 45.8881 45.9777 46.053C42.8872 46.394 40.0607 45.7121 37.3992 44.0954C35.2546 42.7316 33.5389 40.851 32.1642 38.7174C32.0762 38.5634 31.9662 38.3324 31.8453 38.0685C30.6685 35.363 30.3715 32.3385 31.0314 29.4681C31.0314 29.4571 31.0314 29.4351 31.0314 29.4241C32.8461 22.7703 37.6522 17.4033 44.086 14.8407C46.0547 14.0709 48.0343 13.565 50.0909 13.389C53.3573 13.1361 56.5247 13.466 59.6152 14.5878C59.1093 15.4346 56.4367 17.8322 54.3801 19.1959C54.0282 17.5792 53.9512 17.7442 53.4343 16.6444C53.4343 16.8204 52.0595 18.6021 50.4318 19.6249C48.7162 20.6477 44.339 21.4175 44.339 23.8811L44.5149 24.0571C44.5149 25.1679 45.1198 25.5858 46.2306 25.8497C45.6807 26.0257 45.2848 25.9707 44.9878 25.8607C44.7679 25.8057 44.5589 25.7178 44.35 25.5858C44.35 25.5308 44.306 25.5198 44.251 25.5088C43.6461 26.1907 41.4135 28.1483 40.2257 27.6314C39.3679 27.4554 39.7198 26.1797 39.7968 25.6738C39.4449 25.7507 39.2909 26.0147 38.939 26.1797C36.2774 28.0603 35.6726 31.0408 36.3654 34.1862C36.4424 34.4392 36.5414 34.4391 36.7174 34.2632C36.9703 34.0102 37.3223 33.7573 37.5752 33.5813C37.6522 33.5813 37.7512 33.6583 37.7512 33.7573C38.609 34.8681 39.7198 35.55 41.0946 35.8909C41.6994 36.0669 42.2054 36.0669 42.8102 36.1438C42.6343 35.8909 42.6343 35.8029 42.4583 35.5499C42.2054 35.044 42.2054 34.5271 42.5353 34.1862C42.9642 33.7573 43.6461 33.5923 44.251 33.4163C45.4498 33.0754 46.7365 33.0754 48.0233 33.1634C49.0571 33.2404 50.0799 33.5043 51.0257 33.7573C51.8836 34.0102 52.6534 34.2632 53.3463 34.7031L53.4013 34.7471C54.4791 35.8359 55.062 36.9907 55.15 38.4534C55.15 39.3992 54.897 40.3341 54.4681 41.1039V41.1149ZM50.1019 22.2754C49.849 23.2212 49.2441 23.9031 48.4742 24.321C47.9683 24.574 47.3634 24.7499 46.7585 24.9149C46.5826 24.486 46.7585 24.145 47.0115 23.8041C47.2644 23.4632 47.6934 23.2102 48.1223 23.0342C48.8151 22.7703 49.42 22.5173 50.1019 22.2644V22.2754ZM39.8078 29.952C39.7308 29.611 39.5548 29.5231 39.2029 29.5231C38.851 29.6 38.521 29.776 38.2571 30.029C38.1801 30.1059 38.0811 30.2049 38.0041 30.2049C37.9271 30.1279 38.0041 30.029 38.0041 30.029C38.1801 29.5231 38.51 29.1821 38.862 28.9182C38.939 28.8412 39.0379 28.8412 39.2139 28.7422C39.7198 28.6652 39.9838 28.8192 39.8958 29.3361V29.677C39.9728 29.754 39.8188 29.853 39.8188 29.93L39.8078 29.952ZM73.3626 40.466C73.3114 40.466 73.2857 40.4404 73.2857 40.3891L73.0987 40.532C73.0217 38.3984 72.4938 36.3528 71.559 34.3952C70.9541 33.1194 70.1842 32.0086 69.3264 30.8978C68.5565 29.952 67.6107 29.1051 66.5769 28.3463C66.6539 28.2693 66.7529 28.2693 66.9288 28.2693C68.3036 28.4452 69.6783 28.7752 70.9541 29.2151C71.306 29.2921 71.559 29.4681 71.8999 29.644C71.9769 29.721 72.0759 29.721 72.2518 29.82C72.2518 29.82 72.2518 29.897 72.3288 29.897V29.82C71.471 28.7092 70.3602 27.6864 69.2384 26.8395C67.8637 25.7287 66.4009 24.8819 64.8612 24.112C62.7166 23.0892 60.407 22.4074 57.9985 22.0664C57.8225 22.0664 57.5695 22.0664 57.3936 21.9894C57.3936 21.8135 57.4706 21.8135 57.5695 21.7365C58.9443 20.5377 60.0551 19.1849 60.9129 17.5572C61.1659 17.0513 61.3418 16.5344 61.5178 16.0285C61.5948 15.8526 61.5948 15.6876 61.7708 15.5996C64.2563 16.7984 66.4889 18.5031 68.3806 20.4607C73.3626 25.9157 75.2433 33.4163 73.3626 40.499V40.466Z" fill="white"/>
</svg>
