<svg width="281" height="70" viewBox="0 0 281 70" fill="none" xmlns="http://www.w3.org/2000/svg">
<path d="M30.2907 30.9762L40.0009 21.2824L49.7163 30.9813L55.3663 25.3406L40.0009 10L24.6406 25.3354L30.2907 30.9762Z" fill="white"/>
<path d="M26.3004 34.959L20.6504 29.3184L15.0001 34.9593L20.6501 40.6L26.3004 34.959Z" fill="white"/>
<path d="M30.2892 38.9422L39.9994 48.6361L49.7144 38.9375L55.3676 44.5751L55.3649 44.5783L39.9994 59.9184L24.6388 44.5834L24.6309 44.5755L30.2892 38.9422Z" fill="white"/>
<path d="M59.3517 40.6L65.002 34.959L59.352 29.3183L53.7017 34.9593L59.3517 40.6Z" fill="white"/>
<path d="M45.7309 34.9564H45.7332L39.9998 29.2324L35.7628 33.4625H35.7624L35.2758 33.9487L34.2716 34.9513L34.2637 34.9592L34.2716 34.9674L39.9998 40.6863L45.7332 34.9623L45.736 34.9592L45.7309 34.9564Z" fill="white"/>
<path d="M73.8125 22.0938H86.1011C89.1511 22.0938 91.4574 22.8752 93.0205 24.4381C94.2301 25.6485 94.8347 27.1487 94.8347 28.9382V29.0139C94.8347 29.7701 94.7411 30.4384 94.5527 31.018C94.3648 31.5984 94.1136 32.1208 93.7996 32.5872C93.4865 33.054 93.1224 33.4636 92.7085 33.8161C92.2942 34.1694 91.8491 34.4722 91.3725 34.7237C92.9056 35.3041 94.1124 36.0914 94.9923 37.0874C95.8718 38.0837 96.3121 39.464 96.3121 41.2283V41.3036C96.3121 42.514 96.0791 43.5727 95.6127 44.4807C95.1463 45.3879 94.4781 46.1445 93.6081 46.7497C92.7381 47.3549 91.692 47.8083 90.4693 48.1111C89.2466 48.4135 87.8917 48.5645 86.4048 48.5645H73.8125V22.0938ZM84.8725 32.7954C86.1608 32.7954 87.1836 32.5754 87.9407 32.1338C88.6981 31.6926 89.0768 30.9801 89.0768 29.9972V29.9215C89.0768 29.0396 88.7483 28.3654 88.0919 27.8986C87.4352 27.4321 86.4882 27.1987 85.2513 27.1987H79.4938V32.7954H84.8725ZM86.4258 43.4599C87.7136 43.4599 88.723 43.2273 89.4559 42.7605C90.1881 42.294 90.5546 41.569 90.5546 40.5857V40.5104C90.5546 39.628 90.2134 38.9286 89.5318 38.4113C88.8498 37.8952 87.7515 37.6366 86.2362 37.6366H79.4938V43.4603L86.4258 43.4599Z" fill="white"/>
<path d="M103.629 22.0938H109.463V48.5653H103.629V22.0938Z" fill="white"/>
<path d="M118.297 22.0938H123.675L136.099 38.3928V22.0938H141.857V48.5653H136.895L124.054 31.7371V48.5653H118.297V22.0938Z" fill="white"/>
<path d="M159.519 21.9082H164.897L176.261 48.5686H170.163L167.738 42.6317H156.526L154.102 48.5686H148.154L159.519 21.9082ZM165.655 37.4881L162.132 28.9041L158.61 37.4881H165.655Z" fill="white"/>
<path d="M182.557 22.0938H187.936L200.359 38.3928V22.0938H206.117V48.5653H201.155L188.314 31.7371V48.5653H182.557V22.0938Z" fill="white"/>
<path d="M227.112 49.0194C225.167 49.0194 223.362 48.6661 221.695 47.9607C220.028 47.2554 218.589 46.2906 217.377 45.0676C216.165 43.845 215.217 42.4016 214.537 40.7378C213.854 39.0736 213.514 37.2962 213.514 35.4053V35.33C213.514 33.4391 213.854 31.6684 214.537 30.0168C215.218 28.3656 216.165 26.9159 217.377 25.6681C218.589 24.4202 220.041 23.4365 221.733 22.7182C223.424 21.9998 225.294 21.6406 227.339 21.6406C228.576 21.6406 229.706 21.742 230.728 21.943C231.751 22.1453 232.679 22.4221 233.513 22.7749C234.347 23.1282 235.116 23.5568 235.824 24.0606C236.53 24.5653 237.187 25.1196 237.793 25.7248L234.082 29.9979C233.045 29.0655 231.991 28.3337 230.918 27.8046C229.845 27.2755 228.639 27.0105 227.301 27.0105C226.19 27.0105 225.161 27.225 224.214 27.6536C223.267 28.0822 222.453 28.6744 221.771 29.4306C221.089 30.1868 220.559 31.0632 220.179 32.0588C219.802 33.0551 219.612 34.12 219.612 35.2543V35.3296C219.612 36.4639 219.802 37.5359 220.179 38.5437C220.559 39.5526 221.082 40.4346 221.752 41.1908C222.421 41.947 223.229 42.5463 224.176 42.9875C225.123 43.429 226.165 43.649 227.301 43.649C228.817 43.649 230.097 43.3719 231.145 42.8171C232.193 42.2632 233.235 41.5066 234.271 40.5481L237.983 44.2921C237.301 45.0235 236.593 45.6791 235.862 46.2583C235.129 46.8387 234.327 47.3362 233.456 47.7526C232.585 48.1681 231.631 48.4839 230.597 48.6976C229.56 48.9117 228.399 49.0194 227.112 49.0194Z" fill="white"/>
<path d="M244.848 22.0938H264.81V27.2748H250.606V32.6447H263.105V37.8254H250.606V43.3846H265V48.5653H244.848V22.0938Z" fill="white"/>
</svg>
