<svg width="281" height="70" viewBox="0 0 281 70" fill="none" xmlns="http://www.w3.org/2000/svg">
<path d="M42.3105 19H53.7498C58.3134 19 62.6944 22.5658 62.6944 27.7361V42.2962C62.6944 47.2289 58.8002 51.0323 53.7498 51.0323H42.4931C42.2497 50.7946 42.4931 50.5569 42.7365 50.3786C43.4058 49.4872 44.136 48.5957 44.8053 47.7043C45.0487 47.2289 45.2921 47.0506 45.718 47.0506C48.2127 46.3969 50.7683 45.5054 53.0805 44.7923C55.1493 44.1386 56.062 43.0094 56.062 40.9888V29.3407C56.062 27.3201 55.1493 26.1909 53.0805 25.5372C50.5858 24.8835 48.2736 23.9921 45.718 23.2789C45.2312 23.0412 44.8053 22.8035 44.5619 22.3875C43.8926 21.1989 42.9799 20.1292 42.3105 19Z" fill="white"/>
<path d="M30.3838 19C29.4711 20.3669 28.5584 21.4366 27.8891 22.5658C27.6457 22.8035 27.2198 23.0412 26.9764 23.0412C24.4817 23.6949 21.9261 24.5863 19.4313 25.2995C17.6059 25.7749 16.6932 27.0824 16.6932 28.8652V40.9888C16.6932 42.7717 17.6059 44.1386 19.4313 44.5546C21.9261 45.2083 24.4817 46.0997 26.9764 46.8129C27.2198 46.8129 27.4632 47.0506 27.6457 47.2883C28.5584 48.4175 29.4711 49.7249 30.3838 51.0918H18.9446C14.5635 51.0918 11.1561 48.4175 10.2434 44.3763C10 43.7226 10 43.0094 10 42.3557V27.7955C10 23.5166 12.9815 20.1886 17.3625 19.2971H30.2013C30.1607 19.099 30.2216 19 30.3838 19Z" fill="white"/>
<path d="M91.3525 49.6658H87.8842C87.3974 49.6658 87.2149 49.4281 86.9715 49.0121C86.4847 46.9915 85.8154 45.2086 85.3895 43.4257C85.065 42.3956 84.4565 41.8806 83.5641 41.8806H77.1143C76.5058 41.8806 76.1204 42.0985 75.9582 42.5343C75.2888 44.7926 74.8021 46.8132 74.1327 49.0121C73.8893 49.4875 73.8893 49.6658 73.22 49.6658H69.9951C70.2385 48.5366 70.4819 47.6452 70.6644 46.7538C72.9766 38.2554 75.228 29.5193 77.7836 21.0209C78.027 20.5455 78.2704 20.3672 78.6963 20.3672H82.1646C82.773 20.3672 83.1584 20.5851 83.3207 21.0209C84.7202 25.9535 86.0588 30.8862 87.4583 35.8188C88.6144 40.0977 89.7705 44.5549 90.9266 48.8338C91.1091 49.0121 91.3525 49.2498 91.3525 49.6658ZM84.2334 37.7799C83.0773 33.7388 82.1646 29.9353 80.7651 26.1318C79.609 30.173 78.6963 33.9765 77.5402 37.7799H84.2334Z" fill="white"/>
<path d="M150.07 29.7573C150.314 29.7573 150.557 29.5196 150.557 29.5196C154.695 26.1321 160.901 28.3904 161.814 33.5607V43.426C161.814 46.1003 160.414 48.3586 157.92 49.4878C155.425 50.6169 153.113 50.3792 150.8 48.834C150.557 48.5963 150.314 48.3586 150.131 48.3586C149.888 48.3586 149.888 48.5963 149.888 48.5963C149.888 49.3491 149.502 49.7255 148.732 49.7255H146.419C145.933 49.7255 145.75 49.4878 145.933 49.0718V20.5457C145.933 20.0703 146.176 20.0703 146.419 20.0703H149.401C149.888 20.0703 150.07 20.308 150.07 20.724V29.7573ZM157.859 39.1471V34.4522C157.372 32.6693 155.547 31.5401 153.721 31.5401C151.896 31.7779 150.253 33.323 150.253 35.3436V42.7128C150.253 44.9712 152.078 46.5163 154.147 46.5163C156.459 46.5163 158.041 44.7334 158.041 42.4751C157.859 41.4054 157.859 40.2762 157.859 39.1471Z" fill="white"/>
<path d="M265.923 48.3C265.254 48.7755 264.524 49.4292 263.854 49.6669C259.291 51.4498 254.423 48.3 254.423 43.6051V34.869C254.423 31.7193 256.918 28.3912 261.299 28.1535C262.881 28.1535 264.28 28.629 265.436 29.5204C265.68 29.7581 265.68 29.9958 266.106 29.9958C266.349 29.7581 266.106 29.5204 266.106 29.3421V21.0815C266.106 20.6456 266.329 20.4277 266.775 20.4277H269.513C269.756 20.4277 270 20.4277 270 20.9032V49.1915C270 49.6273 269.777 49.8452 269.33 49.8452H266.592C266.106 49.8452 265.923 49.6075 265.923 49.3698C266.166 48.7755 266.349 48.5378 265.923 48.3ZM266.166 38.9102V35.5228C266.166 35.0473 266.166 34.6313 265.923 34.1559C265.436 32.373 263.611 31.2439 261.785 31.4816C259.96 31.7193 258.56 33.2644 258.317 34.869V42.9514C258.317 45.2097 260.812 46.7549 262.881 46.3389C264.706 45.8634 265.862 44.556 265.862 42.5354C266.166 41.4062 266.166 40.2771 266.166 38.9102Z" fill="white"/>
<path d="M113.379 29.9344C113.622 29.6967 113.866 29.459 114.292 29.2807C116.604 27.9138 118.855 27.7356 121.411 28.8053C123.906 29.9344 125.062 31.955 125.062 34.6293V43.6031C125.062 46.2775 123.662 48.2981 121.168 49.4272C118.673 50.5564 116.361 50.3186 114.048 48.7735C113.805 48.5358 113.562 48.2981 113.379 48.2981H113.136C113.136 49.0508 112.669 49.4272 111.736 49.4272H109.667C109.181 49.4272 108.998 49.1895 108.998 48.7735V20.2475C108.998 19.772 109.241 19.5938 109.667 19.5938H112.405C112.892 19.5938 113.075 19.8315 113.075 20.2475V28.5081C113.136 29.2807 113.136 29.5184 113.379 29.9344ZM113.136 39.146V42.7117C113.136 44.97 114.718 46.5152 117.03 46.5152C119.099 46.5152 120.924 44.97 120.924 42.7117V35.5208C120.924 34.3916 120.437 33.2625 119.525 32.6087C118.369 31.7173 116.787 31.4796 115.387 32.1333C113.988 32.787 113.075 33.9162 113.075 35.5208C113.136 36.6499 113.136 37.7791 113.136 39.146Z" fill="white"/>
<path d="M194.123 35.1045V40.9285C194.123 43.3651 195.523 45.2074 198.017 45.8612C200.999 46.7526 204.224 44.732 204.467 41.5823C204.467 41.1464 204.772 40.9285 205.38 40.9285H207.875C208.362 40.9285 208.544 41.1663 208.544 41.5823C208.301 45.148 206.475 47.644 203.25 49.1892C198.443 51.4475 192.906 49.1892 190.838 44.4943C190.168 43.3651 189.925 42.4737 189.925 41.3445V29.0427C189.925 25.4769 192.237 22.3272 195.401 20.9603C198.869 19.5935 202.764 20.3066 205.502 22.7432C207.327 24.2884 208.24 26.309 208.24 28.805C208.24 29.1219 208.078 29.2804 207.753 29.2804H204.772C204.285 29.2804 204.102 29.0427 204.102 28.6267C203.859 26.6061 202.52 24.8232 200.451 24.3478C196.983 23.4564 193.819 25.7147 193.819 29.2804C194.123 31.0633 194.123 33.0839 194.123 35.1045Z" fill="white"/>
<path d="M164.552 34.4509C165.221 30.8852 168.02 28.3891 171.671 28.1514C175.808 27.9137 179.216 30.588 179.946 34.2132C180.189 34.8669 180.189 35.5801 180.189 36.2338V49.2488C180.189 49.4865 179.946 49.7242 179.703 49.7242H176.478C175.991 49.7242 175.991 49.4865 175.991 49.2488V48.3573C175.504 48.3573 175.322 48.8328 175.078 49.0111C171.61 51.4477 164.977 50.5562 163.821 44.9699C162.665 40.275 166.56 36.8875 170.271 36.8875H175.565C176.052 36.8875 176.234 36.6498 176.234 36.2338V34.2132C175.747 32.668 174.409 31.5389 172.583 31.3012C171.001 31.3012 169.358 32.1926 168.933 33.7378C168.689 34.2132 168.446 34.3915 168.02 34.3915C166.803 34.4509 165.708 34.4509 164.552 34.4509ZM173.253 39.7995H170.758C169.358 40.0373 168.446 40.691 168.02 42.0578C167.533 43.4247 167.776 44.4944 168.689 45.4453C171.001 47.8819 174.896 46.8122 175.808 43.9002C176.295 42.771 176.052 41.4636 176.052 40.3344C176.052 40.0967 175.808 40.0967 175.565 40.0967C174.835 39.7995 174.165 39.7995 173.253 39.7995Z" fill="white"/>
<path d="M139.057 48.1197C137.901 49.0112 136.745 49.6649 135.589 49.9026C131.451 50.5563 128.226 48.7735 127.131 45.4454C125.549 40.7505 129.443 36.7093 133.581 36.7093H138.631C139.118 36.7093 139.3 36.4716 139.3 36.0556V34.9264C139.3 33.1436 137.901 31.539 136.076 31.123C134.493 30.8853 132.425 31.7767 131.938 33.5596C131.694 34.2133 131.451 34.2133 130.782 34.2133H128.47C128.023 34.2133 127.861 33.9954 127.983 33.5596C128.652 31.123 130.295 29.2807 132.79 28.3892C137.84 26.6064 143.316 30.1721 143.316 35.5802V48.7735C143.316 49.2093 143.093 49.4272 142.647 49.4272H140.152C139.706 49.4272 139.402 49.2093 139.24 48.7735C139.3 48.5357 139.057 48.5357 139.057 48.1197ZM139.057 41.5825V40.2156C139.057 39.7402 138.814 39.7402 138.388 39.7402H134.007C132.425 39.7402 131.269 40.8694 130.782 42.1768C130.295 43.5437 131.025 45.0888 132.181 45.9803C134.676 47.7632 137.901 46.218 138.631 43.722C139.3 42.9494 139.057 42.2957 139.057 41.5825Z" fill="white"/>
<path d="M247.547 48.2999C247.304 48.2999 247.06 48.5377 247.06 48.5377C244.748 50.0828 242.497 50.5583 239.941 49.4291C237.447 48.3 236.047 46.2794 235.804 43.605V28.8666C235.804 28.2723 236.108 27.9752 236.716 27.9752H239.211C239.657 27.9752 239.88 28.1931 239.88 28.6289V42.5353C239.88 44.3182 240.793 45.6851 242.375 46.1011C244.87 46.9925 247.669 45.2096 247.669 42.5353V28.6883C247.669 28.094 247.973 27.7969 248.582 27.7969H251.076C251.523 27.7969 251.746 28.0148 251.746 28.4506V48.8942C251.746 49.3697 251.746 49.548 251.076 49.548H248.095C247.608 49.548 247.426 49.548 247.426 49.0725C247.547 48.7754 247.547 48.5377 247.547 48.2999Z" fill="white"/>
<path d="M217.307 38.908V35.3423C217.307 31.5388 220.532 28.3891 224.426 27.9731C228.807 27.4976 231.971 30.4097 232.884 33.5594C233.127 34.2131 233.127 34.9263 233.127 35.58V42.2955C233.127 46.099 230.145 49.4864 226.251 49.9024C221.688 50.3779 218.219 47.4658 217.55 43.6029V42.4738C217.307 41.4041 217.307 40.2749 217.307 38.908ZM228.989 39.1458V35.7583C228.989 33.7377 227.407 32.1925 225.095 31.9548C223.026 31.9548 221.201 33.5 221.201 35.7583V42.4738C221.201 44.4944 222.783 46.2773 225.095 46.2773C227.407 46.2773 228.989 44.2567 228.989 42.4738V39.1458Z" fill="white"/>
<path d="M93.1777 34.8682V20.5457C93.1777 20.308 93.4211 20.0703 93.6645 20.0703H97.1328C97.3762 20.0703 97.6196 20.308 97.6196 20.5457V49.0123C97.6196 49.4878 97.3762 49.6661 96.9503 49.6661H94.2121C93.7659 49.6661 93.5428 49.4482 93.5428 49.0123V46.5757C93.1777 42.7128 93.1777 38.6717 93.1777 34.8682Z" fill="white"/>
<path d="M214.326 34.8679V49.1904C214.326 49.4281 214.326 49.6658 213.839 49.6658H210.858C210.371 49.6658 210.371 49.4281 210.371 49.1904V20.6643C210.371 20.1889 210.371 20.0106 210.858 20.1889H213.839C214.083 20.1889 214.326 20.1889 214.326 20.6643V34.8679Z" fill="white"/>
<path d="M36.3461 32.8454H44.1346C44.7431 32.8454 45.0473 33.1426 45.0473 33.7369V36.1735C45.0473 36.6489 44.8039 36.8272 44.378 36.8272H27.645C27.4624 36.8272 27.1582 36.5895 27.1582 36.3517V33.202C27.1582 32.7266 27.4016 32.7266 27.645 32.7266H30.3831C32.6345 32.8454 34.4599 32.8454 36.3461 32.8454Z" fill="white"/>
<path d="M103.279 20.1289H104.678C105.165 20.1289 105.165 20.3666 105.165 20.6043V23.5164C105.165 23.9918 104.922 23.9918 104.678 23.9918H101.697C101.21 23.9918 101.21 23.7541 101.21 23.5164V20.6043C101.21 20.1289 101.453 20.1289 101.697 20.1289H103.279Z" fill="white"/>
</svg>
