<svg width="125" height="55" viewBox="0 0 125 55" fill="none" xmlns="http://www.w3.org/2000/svg">
<path d="M119.656 21.6461L113.706 27.4113L107.756 21.6461L113.706 15.8809L119.656 21.6461Z" fill="white"/>
<path d="M31.6681 21.8203H28.4227L28.062 22.1697L24.6362 33.7002L20.8499 21.995L20.4892 21.8203H16.8832L16.5225 21.995L12.7362 33.5256L9.31044 21.995L8.94982 21.8203H5.52405L5.34375 21.995L10.7529 38.2426L11.1135 38.5919H14.359L14.7195 38.2426L18.5059 26.5374L22.2923 38.2426L22.8332 38.5919H26.259L26.6196 38.2426L32.0287 21.995L31.6681 21.8203Z" fill="white"/>
<path d="M69.3516 21.8203H65.9258L65.5651 22.1697L60.8773 34.2244L56.1894 22.1697L55.8288 21.8203H52.403L52.2227 21.995L58.8939 38.2426L59.2546 38.5919H62.3197L62.6803 38.2426L69.3516 21.995V21.8203Z" fill="white"/>
<path d="M86.8419 30.7301L86.4813 31.0795H73.86C74.0403 32.4771 74.5812 33.5253 75.4827 34.3988C76.3842 35.2723 77.6464 35.7965 78.9085 35.7965C80.8918 35.7965 82.1539 35.0977 82.8752 33.5253L83.2358 33.1759H86.3009L86.4813 33.5253C85.9403 35.447 84.6782 36.8447 83.4161 37.7182C82.1539 38.5917 80.5312 38.9412 78.7282 38.9412C76.2039 38.9412 74.0403 38.0677 72.5979 36.4953C70.9751 34.923 70.2539 32.6518 70.2539 30.2059C70.2539 27.7601 70.9751 25.8384 72.5979 24.0913C74.2206 22.3442 76.2039 21.4707 78.5479 21.4707C81.0721 21.4707 83.0554 22.3442 84.4979 23.9166C85.9403 25.4889 86.8419 27.7601 86.8419 30.3806V30.7301ZM78.5479 24.6154C76.3842 24.6154 74.5812 26.0131 74.0403 28.1095H83.0554C82.6949 26.7119 81.4327 24.6154 78.5479 24.6154Z" fill="white"/>
<path d="M46.4531 21.9957L46.8138 21.821H49.6986L50.0593 22.1704V38.5926L49.6986 38.9421H46.8138L46.4531 38.5926V36.8456C46.0925 37.3697 45.3713 37.8938 44.8304 38.2432C44.6501 38.2432 44.4698 38.4179 44.4698 38.4179C44.4698 38.4179 44.4698 38.4179 44.2895 38.4179C43.388 38.9421 42.3061 39.1167 41.2243 39.1167C39.0607 39.1167 37.2576 38.2432 35.6349 36.4962C34.0122 34.7492 33.291 32.6527 33.291 30.2068C33.291 27.761 34.0122 25.6645 35.6349 23.9174C37.2576 22.1704 39.0607 21.2969 41.2243 21.2969C42.3061 21.2969 43.388 21.4716 44.2895 21.9957C44.4698 21.9957 44.6501 22.1704 44.8304 22.1704C45.5516 22.5198 46.0925 23.0439 46.6335 23.568V21.9957H46.4531ZM41.585 35.7974C43.0274 35.7974 44.1092 35.2732 45.0108 34.225C45.5516 33.5262 46.0925 32.8274 46.2728 31.7792V28.4598C46.0925 27.4115 45.5516 26.7128 45.0108 26.0139C44.1092 25.1404 42.8471 24.6163 41.585 24.6163C40.1425 24.6163 39.241 25.1404 38.3395 26.1886C37.438 27.2368 36.8971 28.6345 36.8971 30.2068C36.8971 31.9539 37.438 33.1768 38.3395 34.225C39.241 35.2732 40.1425 35.7974 41.585 35.7974Z" fill="white"/>
<path d="M98.5613 28.8083C98.5613 28.8083 96.7585 28.4589 95.1352 28.1095C93.6931 27.7601 92.9719 27.4107 92.9719 26.3624C92.9719 25.3142 94.0533 24.4407 96.2171 24.4407C98.3809 24.4407 99.6432 25.3142 99.6432 26.1877L100.003 26.5371H103.068L103.249 26.3624C103.249 24.0913 101.266 21.4707 96.2171 21.4707C90.9886 21.4707 89.3658 24.6154 89.3658 26.5371C89.3658 28.1095 89.9068 30.2059 94.0533 31.0795C94.0533 31.0795 96.0366 31.4289 97.4794 31.7783C99.2823 32.1277 100.003 32.8265 100.003 33.7C100.003 34.5735 99.1018 35.7965 96.578 35.7965C94.2338 35.7965 92.9719 34.7483 92.9719 33.5253L92.6113 33.1759H89.3658L89.1855 33.5253C89.5461 36.3206 91.5295 38.9412 96.7585 38.9412C102.528 38.9412 103.61 35.447 103.61 33.7C103.61 31.2541 102.167 29.6818 98.5613 28.8083Z" fill="white"/>
</svg>
