<svg width="125" height="55" viewBox="0 0 125 55" fill="none" xmlns="http://www.w3.org/2000/svg">
<path fill-rule="evenodd" clip-rule="evenodd" d="M61.7783 23.3097L61.7756 20.767H44.7402L44.743 23.3097H52.1417V34.2847H54.9315V23.3097H61.7783ZM73.2435 20.767H63.8327V34.2847H66.6225V29.003H69.8797L76.6157 34.2847H81.0827L74.2743 28.9814L74.278 28.9679C76.1324 28.8367 77.4022 28.3459 78.2392 27.6474C79.2375 26.8143 79.5405 25.7517 79.5405 24.885C79.5405 24.0183 79.2375 22.9557 78.2392 22.1225C77.2549 21.3011 75.6719 20.767 73.2435 20.767ZM97.8513 33.1759L98.1412 33.0065V26.4604H87.5365L87.5393 29.003H95.4366V31.3906C94.4929 31.7134 93.1385 31.9479 91.2304 31.9479C89.0711 31.9479 87.1106 31.4428 85.7106 30.6183C84.3051 29.7905 83.5458 28.6999 83.5458 27.5259C83.5458 26.3513 84.3058 25.2562 85.7113 24.4243C87.112 23.5958 89.0718 23.0867 91.2304 23.0867C94.0345 23.0867 96.1179 23.842 97.0347 24.5852L97.988 25.3584V22.0429L97.6946 21.874C96.1711 20.9958 93.6334 20.5098 91.2304 20.5098C88.4457 20.5098 85.8604 21.2086 83.9517 22.4208C82.0436 23.6325 80.7562 25.4027 80.7562 27.5259C80.7562 29.6753 82.005 31.4479 83.9068 32.6566C85.8038 33.8625 88.3911 34.542 91.2304 34.542C94.3962 34.542 96.4707 33.983 97.8513 33.1759ZM115.999 32.9464V29.6096L115.037 30.4226C113.896 31.3865 112.085 31.965 109.89 31.965C107.538 31.965 105.779 31.4063 104.625 30.5785C103.48 29.757 102.921 28.6693 102.921 27.5259C102.921 26.383 103.48 25.2998 104.624 24.4826C105.778 23.6588 107.537 23.1039 109.89 23.1039C112.182 23.1039 113.885 23.7908 114.889 24.6169L115.845 25.404V22.0964L115.577 21.9235C114.122 20.9852 112.124 20.5269 109.89 20.5269C103.957 20.5269 100.131 23.6082 100.131 27.5259C100.131 29.5847 101.078 31.368 102.791 32.6182C104.489 33.8583 106.915 34.5591 109.89 34.5591C112.126 34.5591 114.24 34.1405 115.742 33.1206L115.999 32.9464ZM73.2435 26.4604H66.6225V23.3097H73.2435C74.816 23.3097 75.6937 23.5979 76.1624 23.9205C76.6008 24.2221 76.7167 24.5761 76.7167 24.885C76.7167 25.1939 76.6008 25.5479 76.1624 25.8495C75.6937 26.1721 74.816 26.4604 73.2435 26.4604Z" fill="white"/>
<path fill-rule="evenodd" clip-rule="evenodd" d="M25.7305 33.8101C27.4485 32.257 28.529 30.0047 28.529 27.4987C28.529 24.9927 27.4485 22.7404 25.7305 21.1873C26.5835 20.7081 27.5437 20.3988 28.5658 20.3047C30.1978 22.2466 31.1817 24.7571 31.1817 27.4987C31.1817 30.2403 30.1978 32.7509 28.5658 34.6928C27.5437 34.5987 26.5835 34.2893 25.7305 33.8101Z" fill="white"/>
<path fill-rule="evenodd" clip-rule="evenodd" d="M20.0901 16.3477C21.0082 16.3477 21.9002 16.4598 22.7534 16.6713C22.9245 16.7138 23.0944 16.7692 23.2639 16.8185C23.7458 16.9587 24.214 17.1303 24.666 17.3309L24.6659 17.3384C26.061 16.702 27.6104 16.3477 29.2421 16.3477C35.3669 16.3477 40.3322 21.3406 40.3322 27.4998C40.3322 33.6589 35.3669 38.6519 29.2421 38.6519C27.6103 38.6519 26.0609 38.2975 24.6658 37.6611L24.666 37.6738C24.2824 37.8442 23.8871 37.9935 23.4817 38.1205C23.1335 38.2295 22.7828 38.3272 22.4261 38.404C21.6729 38.5664 20.8914 38.6519 20.0901 38.6519C13.9652 38.6519 9 33.6589 9 27.4998C9 21.3406 13.9652 16.3477 20.0901 16.3477ZM17.2214 35.4646C18.1885 35.817 19.2369 35.9986 20.3288 35.9735C20.8457 35.9616 21.3506 35.9039 21.84 35.8044C19.5762 33.7626 18.152 30.7984 18.152 27.4998C18.152 24.2034 19.5742 21.2411 21.8352 19.1994C21.3474 19.1005 20.844 19.0431 20.3288 19.0313C19.4159 19.0103 18.5334 19.1338 17.7034 19.3808C17.2595 19.5129 16.8225 19.6679 16.5229 19.8086C13.6461 21.1602 11.6528 24.0959 11.6528 27.4998C11.6528 30.8541 13.5885 33.7538 16.3978 35.1309C16.665 35.2618 16.9375 35.3611 17.2214 35.4646ZM37.6794 27.4998C37.6794 32.1857 33.9019 35.9843 29.2421 35.9843C24.5823 35.9843 20.8048 32.1857 20.8048 27.4998C20.8048 22.8139 24.5823 19.0153 29.2421 19.0153C33.9019 19.0153 37.6794 22.8139 37.6794 27.4998Z" fill="white"/>
</svg>
